<svg version="1.1" id="Layer_1" xmlns="http://www.w3.org/2000/svg" xmlns:xlink="http://www.w3.org/1999/xlink" x="0px" y="0px"
	 width="100%" viewBox="0 0 325 690" enable-background="new 0 0 325 690" xml:space="preserve">
<path fill="#000000" opacity="1.000000" stroke="none" 
	d="
M1.000000,284.000000 
	C1.000000,189.356506 1.000000,95.213020 1.000000,1.034763 
	C109.283485,1.034763 217.566986,1.034763 325.925232,1.034763 
	C325.925232,230.893539 325.925232,460.787109 325.925232,690.840332 
	C217.666840,690.840332 109.333450,690.840332 1.000000,690.840332 
	C1.000000,555.432922 1.000000,419.966461 1.000000,284.000000 
M192.625244,594.045654 
	C200.256424,588.034729 208.433151,582.589233 215.389389,575.878662 
	C225.521515,566.104370 235.120453,555.717468 244.322388,545.052979 
	C258.143585,529.034973 269.353302,511.168030 279.189240,492.468353 
	C289.264496,473.313782 297.191467,453.302948 303.336151,432.518433 
	C310.180084,409.368469 314.407318,385.725861 315.762604,361.748688 
	C316.725189,344.719452 315.523773,327.552856 314.977631,310.457520 
	C314.402344,292.448639 310.751007,274.963074 306.191711,257.536072 
	C298.750885,229.094757 289.523010,201.278580 276.276306,175.089172 
	C267.313324,157.368988 256.933990,140.254242 245.927917,123.706909 
	C232.529053,103.562057 215.465210,86.370491 198.761993,68.903610 
	C191.110733,60.902523 184.773911,51.477390 178.803375,42.086212 
	C173.529953,33.791523 169.593140,24.647072 164.981491,15.196743 
	C164.338165,14.019629 163.694839,12.842516 163.051514,11.665403 
	C162.270584,22.245955 159.600418,31.870722 152.608826,39.503071 
	C147.279236,45.321106 140.788406,50.057606 135.036270,55.509575 
	C114.925850,74.570564 96.547218,95.146469 80.993202,118.143723 
	C68.418770,136.735519 57.348637,156.212662 48.722763,176.918671 
	C42.857899,190.996994 37.669964,205.413818 33.139519,219.977966 
	C26.748755,240.522522 21.974005,261.493500 19.886631,282.987640 
	C18.613035,296.102142 16.923294,309.189667 16.121119,322.332092 
	C15.509727,332.348816 15.731623,342.442078 16.079412,352.484100 
	C16.393330,361.548096 16.468616,370.774292 18.263529,379.600677 
	C21.885403,397.411133 25.895895,415.207886 31.046089,432.625916 
	C37.696606,455.118073 48.129490,476.079071 60.063145,496.266724 
	C74.723358,521.066833 91.810883,544.121216 112.216866,564.397034 
	C125.308411,577.405090 139.931534,588.871765 153.983490,601.881775 
	C157.149582,628.086182 160.315659,654.290649 163.494659,680.601990 
	C168.165176,680.601990 173.017319,680.601990 177.398865,680.601990 
	C178.641129,671.585815 179.703964,663.005127 181.029556,654.465210 
	C182.771164,643.245056 184.602493,632.035828 186.616470,620.861816 
	C188.218567,611.973022 190.152527,603.144043 192.625244,594.045654 
z"/>
<path fill="#10AA50" opacity="1.000000" stroke="none" 
	d="
M153.868134,601.029419 
	C139.931534,588.871765 125.308411,577.405090 112.216866,564.397034 
	C91.810883,544.121216 74.723358,521.066833 60.063145,496.266724 
	C48.129490,476.079071 37.696606,455.118073 31.046089,432.625916 
	C25.895895,415.207886 21.885403,397.411133 18.263529,379.600677 
	C16.468616,370.774292 16.393330,361.548096 16.079412,352.484100 
	C15.731623,342.442078 15.509727,332.348816 16.121119,322.332092 
	C16.923294,309.189667 18.613035,296.102142 19.886631,282.987640 
	C21.974005,261.493500 26.748755,240.522522 33.139519,219.977966 
	C37.669964,205.413818 42.857899,190.996994 48.722763,176.918671 
	C57.348637,156.212662 68.418770,136.735519 80.993202,118.143723 
	C96.547218,95.146469 114.925850,74.570564 135.036270,55.509575 
	C140.788406,50.057606 147.279236,45.321106 152.608826,39.503071 
	C159.600418,31.870722 162.270584,22.245955 163.051514,11.665403 
	C163.694839,12.842516 164.338165,14.019629 165.022247,15.980659 
	C166.674332,44.992046 168.654846,73.204788 169.782043,101.451576 
	C170.711090,124.732864 170.706238,148.053589 170.977249,171.358459 
	C171.370300,205.156784 171.623886,238.956711 171.965134,272.755676 
	C172.286194,304.555359 173.036453,336.356689 172.875412,368.153656 
	C172.712769,400.271210 171.793961,432.387695 170.941010,464.497620 
	C170.565659,478.627563 169.532639,492.740021 168.799591,506.860474 
	C168.499771,512.635986 168.203537,518.411621 167.607361,524.445496 
	C166.196106,535.449036 165.755737,546.317993 163.808029,556.909790 
	C161.083725,571.724670 157.235489,586.332825 153.868134,601.029419 
z"/>
<path fill="#12924F" opacity="1.000000" stroke="none" 
	d="
M167.905685,524.187256 
	C168.203537,518.411621 168.499771,512.635986 168.799591,506.860474 
	C169.532639,492.740021 170.565659,478.627563 170.941010,464.497620 
	C171.793961,432.387695 172.712769,400.271210 172.875412,368.153656 
	C173.036453,336.356689 172.286194,304.555359 171.965134,272.755676 
	C171.623886,238.956711 171.370300,205.156784 170.977249,171.358459 
	C170.706238,148.053589 170.711090,124.732864 169.782043,101.451576 
	C168.654846,73.204788 166.674332,44.992046 165.064575,16.321198 
	C169.593140,24.647072 173.529953,33.791523 178.803375,42.086212 
	C184.773911,51.477390 191.110733,60.902523 198.761993,68.903610 
	C215.465210,86.370491 232.529053,103.562057 245.927917,123.706909 
	C256.933990,140.254242 267.313324,157.368988 276.276306,175.089172 
	C289.523010,201.278580 298.750885,229.094757 306.191711,257.536072 
	C310.751007,274.963074 314.402344,292.448639 314.977631,310.457520 
	C315.523773,327.552856 316.725189,344.719452 315.762604,361.748688 
	C314.407318,385.725861 310.180084,409.368469 303.336151,432.518433 
	C297.191467,453.302948 289.264496,473.313782 279.189240,492.468353 
	C269.353302,511.168030 258.143585,529.034973 244.322388,545.052979 
	C235.120453,555.717468 225.521515,566.104370 215.389389,575.878662 
	C208.433151,582.589233 200.256424,588.034729 191.943832,594.057678 
	C182.621048,589.459839 178.241226,581.310974 176.306793,572.581970 
	C172.768158,556.614014 170.628662,540.335999 167.905685,524.187256 
z"/>
<path fill="#B7C4C1" opacity="1.000000" stroke="none" 
	d="
M167.607361,524.445496 
	C170.628662,540.335999 172.768158,556.614014 176.306793,572.581970 
	C178.241226,581.310974 182.621048,589.459839 191.600800,594.179077 
	C190.152527,603.144043 188.218567,611.973022 186.616470,620.861816 
	C184.602493,632.035828 182.771164,643.245056 181.029556,654.465210 
	C179.703964,663.005127 178.641129,671.585815 177.398865,680.601990 
	C173.017319,680.601990 168.165176,680.601990 163.494659,680.601990 
	C160.315659,654.290649 157.149582,628.086182 153.925812,601.455566 
	C157.235489,586.332825 161.083725,571.724670 163.808029,556.909790 
	C165.755737,546.317993 166.196106,535.449036 167.607361,524.445496 
z"/>
</svg>