<?xml version="1.0" standalone="no"?>
<!DOCTYPE svg PUBLIC "-//W3C//DTD SVG 20010904//EN"
 "http://www.w3.org/TR/2001/REC-SVG-20010904/DTD/svg10.dtd">
<svg version="1.0" xmlns="http://www.w3.org/2000/svg"
 width="520.000000pt" height="512.000000pt" viewBox="0 0 520.000000 512.000000"
 preserveAspectRatio="xMidYMid meet">

<g transform="translate(0.000000,512.000000) scale(0.100000,-0.100000)"
fill="#000000" stroke="none">
<path d="M211 5105 c-84 -24 -145 -76 -180 -155 -64 -148 -21 -280 175 -530
165 -211 218 -297 244 -392 39 -145 148 -440 209 -565 71 -145 116 -218 175
-281 53 -58 57 -69 38 -106 -14 -29 -93 -329 -113 -431 -32 -162 -29 -434 7
-610 58 -286 189 -511 342 -589 37 -19 123 -23 163 -7 15 5 43 24 63 41 44 39
68 111 91 275 28 195 35 229 49 214 2 -2 39 -74 81 -159 48 -96 101 -185 140
-235 74 -95 222 -239 360 -352 55 -45 123 -105 150 -133 51 -53 112 -96 121
-87 3 3 -16 21 -42 42 -226 172 -641 843 -789 1275 -12 36 -27 65 -33 65 -18
0 -131 -146 -162 -210 -39 -79 -65 -182 -84 -341 -29 -231 -25 -214 -50 -214
-35 0 -108 71 -139 134 -92 187 -126 329 -134 562 -9 248 12 370 106 634 42
119 51 191 31 246 -6 14 -39 56 -73 93 -117 123 -171 232 -286 581 -45 135
-99 281 -121 325 -37 73 -143 228 -278 402 -132 171 -145 296 -35 332 52 17
120 0 285 -71 143 -61 248 -123 342 -201 40 -32 83 -59 100 -62 17 -2 108 -10
201 -15 146 -10 183 -16 265 -43 209 -69 501 -236 732 -418 132 -105 392 -365
497 -497 167 -212 323 -471 395 -657 41 -108 63 -157 168 -380 45 -93 115
-246 157 -340 78 -174 152 -307 205 -372 31 -37 114 -81 196 -103 25 -7 121
-39 214 -73 160 -57 179 -67 325 -166 86 -57 212 -142 281 -188 122 -82 198
-150 183 -164 -5 -4 -84 -9 -178 -12 -93 -3 -209 -12 -256 -21 -69 -13 -277
-76 -361 -111 -29 -12 -29 -39 -2 -101 88 -199 281 -362 639 -538 213 -105
371 -207 493 -318 30 -26 58 -48 63 -48 23 0 -45 115 -103 173 -35 35 -108
112 -163 172 -122 132 -210 204 -363 294 -147 86 -236 153 -267 200 -30 44
-32 61 -4 61 11 0 82 16 157 35 75 19 192 41 260 49 134 16 311 62 319 82 7
18 -135 192 -210 259 -114 100 -278 224 -443 334 -151 101 -308 180 -566 285
-51 20 -78 65 -240 401 -136 280 -228 484 -330 732 -127 306 -454 741 -764
1014 -209 184 -508 395 -708 500 -156 81 -366 135 -567 145 -147 7 -149 8
-239 85 -101 86 -317 196 -469 238 -100 28 -205 34 -270 16z"/>
<path d="M1062 4231 l-24 -6 23 -30 c13 -17 38 -47 56 -67 18 -21 54 -79 79
-130 l47 -93 28 34 c16 19 34 58 40 86 11 50 10 55 -17 105 -39 71 -96 110
-161 109 -26 -1 -59 -4 -71 -8z"/>
</g>
</svg>
