<svg version="1.1" id="Layer_1" xmlns="http://www.w3.org/2000/svg" xmlns:xlink="http://www.w3.org/1999/xlink" x="0px" y="0px"
	 width="100%" viewBox="0 0 374 442" enable-background="new 0 0 374 442" xml:space="preserve">
<path fill="#000000" opacity="1.000000" stroke="none" 
	d="
M1.000000,157.000000 
	C1.000000,104.682541 1.000000,52.865086 1.000000,1.023815 
	C125.612595,1.023815 250.225204,1.023815 374.918884,1.023815 
	C374.918884,148.234100 374.918884,295.468262 374.918884,442.851196 
	C250.333466,442.851196 125.666756,442.851196 1.000000,442.851196 
	C1.000000,347.774872 1.000000,252.637436 1.000000,157.000000 
M283.811859,55.548916 
	C283.641144,55.227165 283.390228,55.142315 282.522003,55.119194 
	C282.338348,55.077431 282.154724,55.035667 281.636719,54.384674 
	C266.343414,45.915226 251.050125,37.445774 235.747162,28.520632 
	C235.584305,28.235445 235.340256,28.070198 235.024399,27.982582 
	C235.024399,27.982582 234.981308,27.987219 234.741638,27.434868 
	C234.166702,27.292225 233.591766,27.149582 233.013702,26.987492 
	C233.013702,26.987492 232.994080,26.986538 232.849335,26.545240 
	C232.660156,26.218153 232.391510,26.128159 231.537216,26.109169 
	C231.364792,26.066666 231.192368,26.024160 230.853973,25.505650 
	C230.576508,25.331762 230.299042,25.157873 230.003052,24.995550 
	C230.003052,24.995550 230.012329,24.975058 229.745972,24.439631 
	C229.172363,24.317038 228.598755,24.194445 228.022995,23.998819 
	C228.022995,23.998819 227.949966,24.000690 227.639481,23.389994 
	C217.939697,17.906281 208.120743,12.620051 198.584015,6.866081 
	C192.698776,3.315233 187.033676,2.915195 180.989716,5.992734 
	C180.989716,5.992734 180.980743,6.003338 180.382736,6.039638 
	C179.926010,6.354966 179.469284,6.670293 178.982239,6.978956 
	C178.982239,6.978956 178.979950,7.009900 178.380722,7.044546 
	C177.934357,7.361692 177.487976,7.678839 176.982178,7.986372 
	C176.982178,7.986372 176.988083,8.046288 176.505432,8.166992 
	C176.208191,8.356463 176.024353,8.623902 175.264587,9.091469 
	C173.161682,10.386100 171.058762,11.680732 168.294632,13.234376 
	C161.178772,17.269163 154.062897,21.303951 146.515625,25.287668 
	C146.239594,25.445385 146.093033,25.682976 146.011810,25.989090 
	C146.011810,25.989090 146.009735,26.054266 145.341125,26.279457 
	C138.882584,29.958376 132.424042,33.637295 125.523369,37.273342 
	C125.234726,37.434521 125.093796,37.680370 124.519318,38.156357 
	C124.330894,38.222588 124.142464,38.288818 123.520935,38.284161 
	C123.232437,38.443741 123.098289,38.688061 123.031799,39.018909 
	C123.031799,39.018909 123.034149,39.105572 122.378624,39.330952 
	C113.255386,44.653141 104.132141,49.975330 94.335487,55.410351 
	C86.223267,60.274471 78.111053,65.138596 69.278008,70.089706 
	C62.171940,74.363670 55.065872,78.637627 47.247623,83.046547 
	C39.161690,87.673256 31.075758,92.299957 22.293451,97.023895 
	C17.627655,100.286568 13.378603,104.044998 13.091529,110.150337 
	C12.780997,116.754532 13.115218,123.389046 13.049004,130.939606 
	C13.088234,139.629684 13.127464,148.319778 13.044739,157.938873 
	C13.084741,166.628357 13.124743,175.317825 13.041079,184.936462 
	C13.082629,200.625443 13.124180,216.314438 13.037952,232.932480 
	C13.079688,240.286743 13.121424,247.641022 13.030865,255.923782 
	C13.076198,261.623291 13.121531,267.322815 13.040988,273.948914 
	C13.081899,280.296448 13.122809,286.644012 13.031401,293.884369 
	C12.434721,299.152832 13.162249,304.055084 17.229231,308.728882 
	C24.877171,313.402374 32.442856,318.217316 40.188797,322.722321 
	C61.541725,335.141113 82.974541,347.422516 104.367447,359.772614 
	C128.685349,373.811218 152.899536,388.034790 177.403656,401.740173 
	C181.324768,403.933289 186.526459,403.836823 191.877182,404.905334 
	C194.507874,403.918915 197.138565,402.932526 200.466064,401.793030 
	C208.642532,396.830933 216.818985,391.868835 225.711868,387.021820 
	C232.507935,383.098541 239.304001,379.175293 246.791229,375.074127 
	C251.195480,372.384979 255.599716,369.695831 260.710815,366.912659 
	C265.778046,363.931335 270.845306,360.950012 276.594482,357.830078 
	C278.728241,356.546234 280.861969,355.262360 283.681213,353.887726 
	C285.787262,352.593536 287.893311,351.299316 290.650330,349.782257 
	C292.782501,348.554382 294.914673,347.326508 297.751892,345.986603 
	C300.557098,344.346069 303.362305,342.705566 306.678070,340.841156 
	C307.127991,340.519043 307.577911,340.196930 308.544220,339.835785 
	C308.757233,339.571289 308.970245,339.306824 309.603638,338.999573 
	C309.603638,338.999573 310.005615,338.869202 310.481628,338.869690 
	C310.793640,338.723236 310.983246,338.480988 311.710724,338.031464 
	C312.832733,337.398560 313.954742,336.765656 315.674103,335.812469 
	C317.511810,334.564331 319.349518,333.316193 321.878448,332.004730 
	C330.614075,327.013519 339.452759,322.192047 348.051117,316.974640 
	C354.352295,313.151154 361.611542,310.168549 364.714691,301.560272 
	C364.755219,288.041443 364.795746,274.522583 364.958344,260.073029 
	C364.914154,248.719879 364.869934,237.366730 364.951508,225.081787 
	C364.911530,217.390213 364.871552,209.698639 364.952850,201.075821 
	C364.966827,171.987335 364.890045,142.898270 365.072205,113.810837 
	C365.108124,108.072731 362.930542,103.714172 358.674377,99.318909 
	C347.816010,92.935181 337.031799,86.420914 326.079895,80.201897 
	C313.379303,72.989906 300.531525,66.037186 287.736725,58.531384 
	C287.578033,58.249252 287.336945,58.102509 287.015350,58.001232 
	C287.015350,58.001232 286.925446,57.999146 286.704285,57.457138 
	C286.144501,57.320946 285.584747,57.184753 285.024902,56.980186 
	C285.024902,56.980186 284.956573,56.983330 284.824493,56.533039 
	C284.644501,56.231140 284.379395,56.094826 284.027039,55.980488 
	C284.027039,55.980488 283.883423,55.982037 283.811859,55.548916 
z"/>
<path fill="#3E863D" opacity="1.000000" stroke="none" 
	d="
M191.136139,404.798798 
	C186.526459,403.836823 181.324768,403.933289 177.403656,401.740173 
	C152.899536,388.034790 128.685349,373.811218 104.367447,359.772614 
	C82.974541,347.422516 61.541725,335.141113 40.188797,322.722321 
	C32.442856,318.217316 24.877171,313.402374 17.129389,308.046967 
	C19.003382,303.572357 20.977217,299.779694 23.137514,295.701050 
	C25.624378,291.036987 27.924780,286.658936 30.464615,282.039978 
	C33.178265,277.603271 35.652481,273.407440 38.384911,268.986511 
	C43.101971,261.179108 47.560814,253.596756 52.251541,245.768997 
	C59.049091,234.030823 65.614761,222.538071 72.395966,210.920380 
	C73.041290,210.538040 73.471085,210.280670 73.969315,210.485748 
	C74.037743,217.140915 74.037743,223.333633 74.037743,230.691589 
	C80.540237,227.213425 85.721626,224.441910 91.051102,222.004303 
	C93.046852,225.690598 94.883049,229.049377 96.744202,232.394257 
	C104.832138,246.930023 112.927345,261.461731 121.142365,276.321838 
	C129.102524,290.812622 136.940231,304.976562 144.896576,319.472656 
	C150.333969,329.591553 155.588913,339.413666 160.991196,349.154053 
	C165.497940,357.279785 170.177383,365.309784 174.835052,373.731140 
	C175.734406,375.873871 176.500656,377.709717 177.436981,379.454315 
	C181.978348,387.915894 186.565323,396.353027 191.136139,404.798798 
z"/>
<path fill="#78B85E" opacity="1.000000" stroke="none" 
	d="
M144.777939,319.140472 
	C136.940231,304.976562 129.102524,290.812622 121.500198,276.201874 
	C122.489601,273.740051 123.859077,271.736237 123.895935,269.708191 
	C124.106483,258.124390 123.934036,246.534088 124.062515,234.947891 
	C124.085236,232.898224 124.913521,230.857498 125.700150,228.891907 
	C129.654022,230.831848 129.483231,228.166626 129.498032,225.971588 
	C129.558487,217.007751 129.055237,208.006241 129.723618,199.090881 
	C130.277161,191.707413 128.888779,186.123627 121.749748,183.025253 
	C122.703918,180.578354 123.920326,178.412933 123.910446,176.253113 
	C123.701401,130.536896 123.354286,84.821289 123.034149,39.105572 
	C123.034149,39.105572 123.031799,39.018909 123.226425,38.923965 
	C123.616447,38.690960 123.794106,38.532970 123.954041,38.355053 
	C124.142464,38.288818 124.330894,38.222588 124.966003,37.983601 
	C125.614273,37.665314 125.798538,37.500439 125.965492,37.316216 
	C132.424042,33.637295 138.882584,29.958376 145.674255,26.631702 
	C146.003342,79.971268 145.999313,132.958603 145.749008,186.217026 
	C142.562698,187.798019 141.632065,190.031158 141.732513,193.231247 
	C141.944626,199.988068 142.081619,206.772354 141.699387,213.514191 
	C141.429657,218.271667 142.446671,221.876541 147.017487,224.392685 
	C147.008286,253.886978 147.056290,282.907837 146.903290,311.927612 
	C146.890594,314.335571 145.518448,316.736359 144.777939,319.140472 
z"/>
<path fill="#639B5A" opacity="1.000000" stroke="none" 
	d="
M275.912567,357.968689 
	C270.845306,360.950012 265.778046,363.931335 260.341522,366.533417 
	C259.648560,361.194519 259.057404,356.235626 259.043182,351.275085 
	C258.921997,309.056000 258.905701,266.836609 259.095764,224.368576 
	C263.423920,222.477707 264.584808,219.549408 264.530182,215.127563 
	C264.280060,194.876175 264.276947,174.618240 264.521942,154.366745 
	C264.582550,149.357040 264.032227,145.258698 258.993439,142.556396 
	C258.997589,139.275940 258.799500,136.449066 259.033142,133.658325 
	C260.318512,118.302956 252.766830,106.425301 243.923889,94.644402 
	C239.169617,85.810219 234.535828,77.309387 229.765625,68.885803 
	C229.269424,68.009613 227.963913,67.591728 227.022949,66.576996 
	C226.372437,64.347061 225.977539,62.366112 225.046402,60.681549 
	C222.489822,56.056274 219.708115,51.555428 217.374298,47.037022 
	C219.078659,47.935982 220.808243,48.513798 221.712646,49.713612 
	C237.196228,70.254860 252.617340,90.843590 267.969360,111.483475 
	C280.357025,128.137939 292.765350,144.780273 304.883118,161.630341 
	C308.675598,166.903885 311.553009,172.835556 314.505310,178.357162 
	C307.858704,173.066315 301.507996,172.292908 295.064148,178.013916 
	C294.845428,178.208115 294.447418,178.200348 293.950623,177.974945 
	C287.888794,168.972305 284.068176,158.824722 275.689789,150.308167 
	C274.832703,153.072800 274.137695,154.289825 274.126892,155.512909 
	C274.045990,164.640579 273.937744,173.774796 274.237061,182.893860 
	C274.304596,184.951538 275.939789,186.957748 276.846863,189.457047 
	C276.953644,200.262512 277.066895,210.598572 276.827454,221.082306 
	C275.650116,223.768845 274.116547,226.305038 274.106873,228.847000 
	C273.955658,268.657837 273.956818,308.469574 274.083771,348.280579 
	C274.094116,351.511871 275.275391,354.739441 275.912567,357.968689 
z"/>
<path fill="#79B461" opacity="1.000000" stroke="none" 
	d="
M145.995300,185.945923 
	C145.999313,132.958603 146.003342,79.971268 146.008545,26.519106 
	C146.009735,26.054266 146.011810,25.989090 146.198059,25.897259 
	C146.585480,25.666285 146.773071,25.510723 146.947037,25.338737 
	C154.062897,21.303951 161.178772,17.269163 168.995255,13.167739 
	C170.793381,15.467700 172.839386,17.830656 172.848495,20.201435 
	C173.035721,68.964005 173.023636,117.727547 172.887817,166.490448 
	C172.881546,168.747925 171.354202,171.001175 170.202728,173.298248 
	C168.219803,174.018600 166.489746,174.551178 164.932953,175.401123 
	C158.591553,178.863190 152.303192,182.422470 145.995300,185.945923 
z"/>
<path fill="#75BB59" opacity="1.000000" stroke="none" 
	d="
M122.706390,39.218262 
	C123.354286,84.821289 123.701401,130.536896 123.910446,176.253113 
	C123.920326,178.412933 122.703918,180.578354 121.427345,182.942383 
	C117.042831,180.997162 113.178757,179.020432 109.564949,176.660461 
	C105.240250,173.836258 100.991257,171.769806 95.996780,174.513535 
	C95.667999,134.463211 95.338448,94.880363 95.008896,55.297516 
	C104.132141,49.975330 113.255386,44.653141 122.706390,39.218262 
z"/>
<path fill="#6DA360" opacity="1.000000" stroke="none" 
	d="
M231.019943,25.981653 
	C231.192368,26.024160 231.364792,26.066666 231.933533,26.330406 
	C232.531662,26.726519 232.753067,26.871483 232.994080,26.986538 
	C232.994080,26.986538 233.013702,26.987492 233.225616,27.180344 
	C233.952118,27.577871 234.466705,27.782545 234.981308,27.987221 
	C234.981308,27.987219 235.024399,27.982582 235.121490,28.178028 
	C235.373825,28.596001 235.553238,28.796951 235.756821,28.976324 
	C251.050125,37.445774 266.343414,45.915226 281.492554,54.682663 
	C280.414856,54.980652 279.481323,54.980652 277.078522,54.980652 
	C281.812286,61.392368 285.809509,66.818268 289.819122,72.234970 
	C299.512848,85.330414 309.319977,98.343681 318.872559,111.541222 
	C325.482941,120.673935 331.745331,130.058517 338.124329,139.684631 
	C334.370789,147.022202 330.656158,154.005676 326.613617,160.900391 
	C324.900482,159.437210 323.319336,158.208694 322.167114,156.660873 
	C318.791870,152.126801 315.690857,147.387863 312.294495,142.870453 
	C305.308502,133.578506 298.081879,124.465981 291.171478,115.119034 
	C281.891907,102.567589 272.919678,89.788818 263.630249,77.244843 
	C251.469818,60.824028 239.115936,44.546581 226.884094,28.178467 
	C225.635300,26.507372 224.299805,24.546926 227.949966,24.000690 
	C227.949966,24.000690 228.022995,23.998819 228.239395,24.208408 
	C228.974640,24.603683 229.493484,24.789370 230.012329,24.975056 
	C230.012329,24.975058 230.003052,24.995550 230.156723,25.177023 
	C230.520187,25.596636 230.756699,25.804356 231.019943,25.981653 
z"/>
<path fill="#679F5C" opacity="1.000000" stroke="none" 
	d="
M227.794724,23.695343 
	C224.299805,24.546926 225.635300,26.507372 226.884094,28.178467 
	C239.115936,44.546581 251.469818,60.824028 263.630249,77.244843 
	C272.919678,89.788818 281.891907,102.567589 291.171478,115.119034 
	C298.081879,124.465981 305.308502,133.578506 312.294495,142.870453 
	C315.690857,147.387863 318.791870,152.126801 322.167114,156.660873 
	C323.319336,158.208694 324.900482,159.437210 326.483032,161.222092 
	C323.243042,167.502502 319.805756,173.372452 316.141602,179.247025 
	C315.559570,178.989761 315.204437,178.727859 314.849304,178.465958 
	C311.553009,172.835556 308.675598,166.903885 304.883118,161.630341 
	C292.765350,144.780273 280.357025,128.137939 267.969360,111.483475 
	C252.617340,90.843590 237.196228,70.254860 221.712646,49.713612 
	C220.808243,48.513798 219.078659,47.935982 217.191254,46.749710 
	C214.767395,43.618633 212.885361,40.806553 210.925217,37.649078 
	C207.692566,31.718506 204.700394,26.033251 201.337051,20.576777 
	C198.085373,15.301488 194.451385,10.261849 190.566208,5.110157 
	C187.099487,5.396438 184.051895,5.691259 181.004303,5.986081 
	C187.033676,2.915195 192.698776,3.315233 198.584015,6.866081 
	C208.120743,12.620051 217.939697,17.906281 227.794724,23.695343 
z"/>
<path fill="#79B064" opacity="1.000000" stroke="none" 
	d="
M180.997009,5.989407 
	C184.051895,5.691259 187.099487,5.396438 190.574829,5.529483 
	C191.331436,8.758039 191.944260,11.558432 191.947189,14.359463 
	C192.004669,69.080574 192.014771,123.801804 191.892197,178.522690 
	C191.887970,180.406235 190.409988,182.286469 189.283417,184.104919 
	C182.810364,180.446533 176.672836,176.851456 170.535278,173.256393 
	C171.354202,171.001175 172.881546,168.747925 172.887817,166.490448 
	C173.023636,117.727547 173.035721,68.964005 172.848495,20.201435 
	C172.839386,17.830656 170.793381,15.467700 169.325867,13.038233 
	C171.058762,11.680732 173.161682,10.386100 175.813660,8.915258 
	C176.621002,8.553090 176.829453,8.322170 176.988083,8.046288 
	C176.988083,8.046288 176.982178,7.986372 177.285370,7.938991 
	C178.052353,7.597708 178.516144,7.303806 178.979950,7.009902 
	C178.979950,7.009900 178.982239,6.978956 179.274353,6.931748 
	C180.037903,6.590806 180.509323,6.297073 180.980743,6.003339 
	C180.980743,6.003338 180.989716,5.992734 180.997009,5.989407 
z"/>
<path fill="#74AA64" opacity="1.000000" stroke="none" 
	d="
M224.995422,386.906708 
	C216.818985,391.868835 208.642532,396.830933 199.751144,401.802521 
	C198.358261,400.120850 197.093018,398.431061 197.089005,396.738281 
	C197.007477,362.367859 197.070450,327.997101 197.476685,293.755280 
	C200.500504,293.773804 203.533051,294.458160 205.732254,293.403961 
	C212.313766,290.249115 218.569229,286.414093 224.998169,283.273071 
	C225.358383,285.836914 225.960861,287.974731 225.943146,290.107330 
	C225.675140,322.374176 225.325760,354.640381 224.995422,386.906708 
z"/>
<path fill="#70BD52" opacity="1.000000" stroke="none" 
	d="
M94.672195,55.353935 
	C95.338448,94.880363 95.667999,134.463211 95.692108,174.667847 
	C90.202934,178.534973 84.962685,181.694839 79.862320,185.066330 
	C77.718079,186.483704 75.869514,188.348404 73.673187,189.757477 
	C72.631172,187.695633 71.802521,185.886078 71.129173,183.684738 
	C71.521347,181.659607 71.962967,180.026520 71.964897,178.392899 
	C72.005531,143.993698 72.025558,109.594330 71.912315,75.195465 
	C71.906616,73.462471 70.665001,71.733536 69.998840,70.002716 
	C78.111053,65.138596 86.223267,60.274471 94.672195,55.353935 
z"/>
<path fill="#3E863D" opacity="1.000000" stroke="none" 
	d="
M364.036682,302.102234 
	C361.611542,310.168549 354.352295,313.151154 348.051117,316.974640 
	C339.452759,322.192047 330.614075,327.013519 321.178894,331.888123 
	C319.653168,329.241882 318.121063,326.715820 318.108002,324.181976 
	C317.944519,292.461212 318.001007,260.739319 318.188782,228.773621 
	C319.266693,228.025223 320.156952,227.520920 321.355896,227.143265 
	C323.440552,229.842941 325.295715,232.365463 326.975800,234.999664 
	C330.360657,240.306793 333.650208,245.674728 337.070740,251.355499 
	C343.498535,262.720154 350.003540,273.654541 356.099243,284.812561 
	C359.132202,290.364319 361.414703,296.325989 364.036682,302.102234 
z"/>
<path fill="#6FA461" opacity="1.000000" stroke="none" 
	d="
M225.353638,386.964264 
	C225.325760,354.640381 225.675140,322.374176 225.943146,290.107330 
	C225.960861,287.974731 225.358383,285.836914 225.226562,283.018677 
	C228.836029,280.713623 230.056198,278.032379 229.900772,274.256805 
	C229.668381,268.611267 229.405151,262.906555 229.951263,257.304626 
	C230.639435,250.245300 228.887009,244.960526 221.947189,241.715164 
	C222.359406,237.287155 222.758942,233.325806 223.500854,229.507477 
	C226.958710,231.427475 229.922058,233.622406 233.244217,234.831360 
	C235.382782,235.609619 238.090393,235.202362 240.463028,234.824509 
	C242.012222,234.577805 243.418167,233.431564 244.987350,233.115479 
	C245.390732,236.506958 245.954437,239.470642 245.960449,242.435486 
	C246.050308,286.707581 246.066513,330.979828 246.100067,375.252045 
	C239.304001,379.175293 232.507935,383.098541 225.353638,386.964264 
M233.318817,247.361969 
	C232.404633,250.991882 234.459549,253.050629 237.543365,253.002823 
	C239.250763,252.976349 241.999481,250.908508 242.310425,249.364426 
	C242.625000,247.802155 240.942841,244.995636 239.359848,244.090637 
	C236.980286,242.730255 234.574997,243.737457 233.977951,246.997513 
	C233.977951,246.997513 233.914276,246.957474 233.318817,247.361969 
z"/>
<path fill="#418740" opacity="1.000000" stroke="none" 
	d="
M316.368469,179.242401 
	C319.805756,173.372452 323.243042,167.502502 326.810974,161.310852 
	C330.656158,154.005676 334.370789,147.022202 338.372925,139.434418 
	C345.178253,127.127975 351.722595,115.440384 358.170135,103.699654 
	C358.773376,102.601189 358.764923,101.166809 359.040497,99.888390 
	C362.930542,103.714172 365.108124,108.072731 365.072205,113.810837 
	C364.890045,142.898270 364.966827,171.987335 364.531860,201.505981 
	C362.716339,201.440018 361.257141,201.075317 359.937958,200.426117 
	C352.227478,196.631561 344.586456,192.693436 336.828125,189.000916 
	C335.391327,188.317062 333.526093,188.533340 331.517059,188.232544 
	C326.239838,185.168091 321.304138,182.205261 316.368469,179.242401 
z"/>
<path fill="#79B066" opacity="1.000000" stroke="none" 
	d="
M197.104507,293.626404 
	C197.070450,327.997101 197.007477,362.367859 197.089005,396.738281 
	C197.093018,398.431061 198.358261,400.120850 199.402740,401.879089 
	C197.138565,402.932526 194.507874,403.918915 191.506653,404.852051 
	C186.565323,396.353027 181.978348,387.915894 177.436981,379.454315 
	C176.500656,377.709717 175.734406,375.873871 175.017731,373.310913 
	C175.430450,370.089478 175.956512,367.637817 175.962585,365.184845 
	C176.023926,340.450287 175.966934,315.715424 176.043839,290.980927 
	C176.053024,288.026489 176.660767,285.073914 177.337463,282.187683 
	C179.129608,283.044647 180.551498,283.882294 182.025375,284.615448 
	C187.294922,287.236664 190.304214,286.569550 194.377686,282.182251 
	C195.102005,284.003326 195.510132,285.645020 195.585663,287.300903 
	C193.909698,287.894409 192.566330,288.473755 190.660599,289.295624 
	C193.334518,291.092682 195.219513,292.359558 197.104507,293.626404 
z"/>
<path fill="#72A862" opacity="1.000000" stroke="none" 
	d="
M358.857422,99.603653 
	C358.764923,101.166809 358.773376,102.601189 358.170135,103.699654 
	C351.722595,115.440384 345.178253,127.127975 338.411865,139.080353 
	C331.745331,130.058517 325.482941,120.673935 318.872559,111.541222 
	C309.319977,98.343681 299.512848,85.330414 289.819122,72.234970 
	C285.809509,66.818268 281.812286,61.392368 277.078522,54.980652 
	C279.481323,54.980652 280.414856,54.980652 281.659729,54.987278 
	C282.154724,55.035667 282.338348,55.077431 282.912231,55.339729 
	C283.475708,55.728943 283.669373,55.869537 283.883423,55.982037 
	C283.883423,55.982037 284.027039,55.980488 284.163208,56.214577 
	C284.495972,56.654518 284.715027,56.832741 284.956573,56.983330 
	C284.956573,56.983330 285.024902,56.980186 285.228577,57.190865 
	C285.929993,57.600742 286.427734,57.799942 286.925446,57.999146 
	C286.925446,57.999146 287.015350,58.001232 287.116272,58.208405 
	C287.371765,58.622208 287.548584,58.807652 287.747620,58.971916 
	C300.531525,66.037186 313.379303,72.989906 326.079895,80.201897 
	C337.031799,86.420914 347.816010,92.935181 358.857422,99.603653 
z"/>
<path fill="#6EBF4C" opacity="1.000000" stroke="none" 
	d="
M69.638428,70.046211 
	C70.665001,71.733536 71.906616,73.462471 71.912315,75.195465 
	C72.025558,109.594330 72.005531,143.993698 71.964897,178.392899 
	C71.962967,180.026520 71.521347,181.659607 70.886787,183.547379 
	C70.003059,183.531570 69.517036,183.261337 68.871948,182.679962 
	C61.803860,169.584427 54.894836,156.800064 47.834156,143.730072 
	C47.132637,142.291321 46.582779,141.138153 46.323181,139.734314 
	C47.075321,137.439178 47.926083,135.396912 47.937725,133.349884 
	C48.033333,116.537621 47.972893,99.724464 47.959805,82.911583 
	C55.065872,78.637627 62.171940,74.363670 69.638428,70.046211 
z"/>
<path fill="#68A25B" opacity="1.000000" stroke="none" 
	d="
M72.180420,211.045319 
	C65.614761,222.538071 59.049091,234.030823 51.941620,245.613892 
	C43.644230,241.677628 35.967499,237.487946 28.103342,233.685944 
	C23.426546,231.424896 18.780998,226.762299 13.165730,232.003418 
	C13.124180,216.314438 13.082629,200.625443 13.465940,184.504776 
	C14.845130,184.350616 15.866494,184.492584 16.743605,184.926270 
	C27.618750,190.303528 38.403969,195.868042 49.356316,201.081894 
	C56.847660,204.648163 64.564423,207.740906 72.180420,211.045319 
z"/>
<path fill="#689F5C" opacity="1.000000" stroke="none" 
	d="
M246.445648,375.163086 
	C246.066513,330.979828 246.050308,286.707581 245.960449,242.435486 
	C245.954437,239.470642 245.390732,236.506958 245.206100,232.865295 
	C249.836502,229.664337 254.347244,227.140823 258.857971,224.617310 
	C258.905701,266.836609 258.921997,309.056000 259.043182,351.275085 
	C259.057404,356.235626 259.648560,361.194519 259.988098,366.580444 
	C255.599716,369.695831 251.195480,372.384979 246.445648,375.163086 
z"/>
<path fill="#4F8F4A" opacity="1.000000" stroke="none" 
	d="
M336.979065,251.017548 
	C333.650208,245.674728 330.360657,240.306793 326.975800,234.999664 
	C325.295715,232.365463 323.440552,229.842941 321.383240,226.776459 
	C319.979950,225.196960 319.012146,223.855331 317.709167,223.069519 
	C312.315460,219.816650 307.024231,216.276489 301.304077,213.715958 
	C295.797241,211.250900 294.230255,207.553665 295.021362,201.996780 
	C295.527527,198.441467 302.518372,193.586304 305.752258,195.102127 
	C310.027069,197.105865 314.914795,198.844864 313.392303,205.359711 
	C313.168152,206.318802 313.818115,207.482147 314.159546,208.968628 
	C316.769806,207.714355 318.970062,206.657104 321.539581,205.770920 
	C330.038025,210.011139 338.099945,214.222794 346.318665,218.102158 
	C352.381653,220.963974 358.649261,223.392181 364.825714,226.013580 
	C364.869934,237.366730 364.914154,248.719879 364.525513,260.525879 
	C357.504913,257.912994 350.991211,254.668884 344.286865,251.883713 
	C342.107147,250.978195 339.429169,251.272186 336.979065,251.017548 
M299.081970,202.055328 
	C299.024780,202.874985 298.988037,203.696655 298.907013,204.513947 
	C298.507233,208.546204 301.569458,210.113968 304.368073,210.072144 
	C307.527832,210.024887 310.184937,208.074326 309.767273,203.910324 
	C309.263184,198.884949 305.001587,197.763367 299.081970,202.055328 
z"/>
<path fill="#639D59" opacity="1.000000" stroke="none" 
	d="
M72.395958,210.920380 
	C64.564423,207.740906 56.847660,204.648163 49.356316,201.081894 
	C38.403969,195.868042 27.618750,190.303528 16.743605,184.926270 
	C15.866494,184.492584 14.845130,184.350616 13.527773,184.040192 
	C13.124743,175.317825 13.084741,166.628357 13.444678,157.557617 
	C29.732735,165.035751 45.597408,172.943314 61.534904,180.701279 
	C63.855324,181.830811 66.523659,182.245590 69.031006,182.991089 
	C69.517036,183.261337 70.003059,183.531570 70.731476,183.939163 
	C71.802521,185.886078 72.631172,187.695633 73.744011,190.220551 
	C73.985748,197.298355 73.943314,203.660828 73.900879,210.023285 
	C73.471085,210.280670 73.041290,210.538040 72.395958,210.920380 
z"/>
<path fill="#5E9855" opacity="1.000000" stroke="none" 
	d="
M68.871948,182.679947 
	C66.523659,182.245590 63.855324,181.830811 61.534904,180.701279 
	C45.597408,172.943314 29.732735,165.035751 13.505656,157.093109 
	C13.127464,148.319778 13.088234,139.629684 13.433768,130.569946 
	C20.997375,133.989487 28.027641,138.109039 35.416191,141.431931 
	C39.252575,143.157272 43.085300,146.761505 47.985817,144.015686 
	C54.894836,156.800064 61.803860,169.584427 68.871948,182.679947 
z"/>
<path fill="#5C9654" opacity="1.000000" stroke="none" 
	d="
M276.253540,357.899414 
	C275.275391,354.739441 274.094116,351.511871 274.083771,348.280579 
	C273.956818,308.469574 273.955658,268.657837 274.106873,228.847000 
	C274.116547,226.305038 275.650116,223.768845 277.136841,221.206100 
	C279.665131,222.389847 281.531311,223.597473 283.137268,225.151367 
	C282.584747,227.607880 282.040466,229.717758 282.037598,231.828369 
	C281.986237,269.751373 281.979431,307.674500 282.043335,345.597473 
	C282.048035,348.391693 282.663971,351.184845 282.995728,353.978516 
	C280.861969,355.262360 278.728241,356.546234 276.253540,357.899414 
z"/>
<path fill="#56934F" opacity="1.000000" stroke="none" 
	d="
M297.046814,346.098633 
	C294.914673,347.326508 292.782501,348.554382 290.125000,349.565674 
	C289.071808,347.634674 288.084778,345.920532 288.083527,344.205658 
	C288.054962,305.282440 288.134277,266.359161 288.534485,227.554642 
	C291.738373,229.388580 294.601166,231.103760 297.193542,233.158249 
	C296.615479,235.605286 296.043365,237.712555 296.039764,239.820816 
	C295.983307,272.798309 295.978027,305.775970 296.045380,338.753418 
	C296.050385,341.202484 296.697968,343.650238 297.046814,346.098633 
z"/>
<path fill="#438842" opacity="1.000000" stroke="none" 
	d="
M318.001129,229.017700 
	C318.001007,260.739319 317.944519,292.461212 318.108002,324.181976 
	C318.121063,326.715820 319.653168,329.241882 320.833282,331.919800 
	C319.349518,333.316193 317.511810,334.564331 315.156372,335.808167 
	C313.760071,335.868561 312.881500,335.933258 311.755859,336.004547 
	C311.508789,336.011139 311.014648,336.023926 310.763977,335.731262 
	C310.009399,332.887177 309.075165,330.337158 309.067017,327.784149 
	C308.967377,296.537262 309.003510,265.289886 309.239929,233.791824 
	C312.317322,232.033234 315.159210,230.525467 318.001129,229.017700 
z"/>
<path fill="#69A858" opacity="1.000000" stroke="none" 
	d="
M13.101841,232.467957 
	C18.780998,226.762299 23.426546,231.424896 28.103342,233.685944 
	C35.967499,237.487946 43.644230,241.677628 51.709732,245.859314 
	C47.560814,253.596756 43.101971,261.179108 38.193455,268.675537 
	C35.685944,266.806763 33.479965,263.386322 31.598799,263.556488 
	C26.515305,264.016327 23.636673,260.972748 20.099455,258.646698 
	C17.926579,257.217865 15.484402,256.198517 13.163159,254.995285 
	C13.121424,247.641022 13.079688,240.286743 13.101841,232.467957 
z"/>
<path fill="#458A44" opacity="1.000000" stroke="none" 
	d="
M364.888611,225.547668 
	C358.649261,223.392181 352.381653,220.963974 346.318665,218.102158 
	C338.099945,214.222794 330.038025,210.011139 321.797363,205.512299 
	C329.292053,202.060074 334.180450,197.386841 331.858612,188.334183 
	C333.526093,188.533340 335.391327,188.317062 336.828125,189.000916 
	C344.586456,192.693436 352.227478,196.631561 359.937958,200.426117 
	C361.257141,201.075317 362.716339,201.440018 364.471191,201.971603 
	C364.871552,209.698639 364.911530,217.390213 364.888611,225.547668 
z"/>
<path fill="#589450" opacity="1.000000" stroke="none" 
	d="
M47.834156,143.730072 
	C43.085300,146.761505 39.252575,143.157272 35.416191,141.431931 
	C28.027641,138.109039 20.997375,133.989487 13.493379,130.105316 
	C13.115218,123.389046 12.780997,116.754532 13.091529,110.150337 
	C13.378603,104.044998 17.627655,100.286568 22.719095,97.330353 
	C30.774132,111.752869 38.403526,125.868935 46.032921,139.985001 
	C46.582779,141.138153 47.132637,142.291321 47.834156,143.730072 
z"/>
<path fill="#6BBF47" opacity="1.000000" stroke="none" 
	d="
M46.323181,139.734314 
	C38.403526,125.868935 30.774132,111.752869 23.067282,97.281731 
	C31.075758,92.299957 39.161690,87.673256 47.603714,82.979065 
	C47.972893,99.724464 48.033333,116.537621 47.937725,133.349884 
	C47.926083,135.396912 47.075321,137.439178 46.323181,139.734314 
z"/>
<path fill="#51904B" opacity="1.000000" stroke="none" 
	d="
M297.399353,346.042603 
	C296.697968,343.650238 296.050385,341.202484 296.045380,338.753418 
	C295.978027,305.775970 295.983307,272.798309 296.039764,239.820816 
	C296.043365,237.712555 296.615479,235.605286 297.439575,233.370361 
	C299.637390,234.125854 301.318756,235.008514 303.000977,236.366653 
	C303.001343,268.891083 302.963898,300.940186 303.071564,332.988770 
	C303.080048,335.514496 304.097931,338.036835 304.582275,340.615479 
	C304.517822,340.670258 304.373840,340.423492 304.822174,340.584076 
	C305.569489,340.851440 305.868500,340.958252 306.167480,341.065063 
	C303.362305,342.705566 300.557098,344.346069 297.399353,346.042603 
z"/>
<path fill="#5A9552" opacity="1.000000" stroke="none" 
	d="
M288.193390,227.435898 
	C288.134277,266.359161 288.054962,305.282440 288.083527,344.205658 
	C288.084778,345.920532 289.071808,347.634674 289.799500,349.677124 
	C287.893311,351.299316 285.787262,352.593536 283.338501,353.933105 
	C282.663971,351.184845 282.048035,348.391693 282.043335,345.597473 
	C281.979431,307.674500 281.986237,269.751373 282.037598,231.828369 
	C282.040466,229.717758 282.584747,227.607880 283.442322,225.202377 
	C285.402893,225.750031 286.798157,226.592972 288.193390,227.435898 
z"/>
<path fill="#4B8D47" opacity="1.000000" stroke="none" 
	d="
M306.422791,340.953094 
	C305.868500,340.958252 305.569489,340.851440 304.886475,340.544556 
	C304.502441,340.344452 304.646698,340.560730 304.646698,340.560730 
	C304.097931,338.036835 303.080048,335.514496 303.071564,332.988770 
	C302.963898,300.940186 303.001343,268.891083 303.357788,236.340958 
	C305.477325,235.240738 307.240906,234.641693 309.004486,234.042648 
	C309.003510,265.289886 308.967377,296.537262 309.067017,327.784149 
	C309.075165,330.337158 310.009399,332.887177 310.761902,335.972351 
	C311.010437,336.506073 311.006592,336.988831 311.003296,336.994415 
	C311.000000,337.000000 310.994263,337.011108 310.819672,337.212769 
	C310.431946,337.899384 310.218781,338.384277 310.005615,338.869202 
	C310.005615,338.869202 309.603638,338.999573 309.189148,339.143188 
	C308.505890,339.457703 308.256958,339.653717 308.027832,339.874847 
	C307.577911,340.196930 307.127991,340.519043 306.422791,340.953094 
z"/>
<path fill="#53914D" opacity="1.000000" stroke="none" 
	d="
M337.070740,251.355499 
	C339.429169,251.272186 342.107147,250.978195 344.286865,251.883713 
	C350.991211,254.668884 357.504913,257.912994 364.464478,260.991272 
	C364.795746,274.522583 364.755219,288.041443 364.375671,301.831238 
	C361.414703,296.325989 359.132202,290.364319 356.099243,284.812561 
	C350.003540,273.654541 343.498535,262.720154 337.070740,251.355499 
z"/>
<path fill="#63AA52" opacity="1.000000" stroke="none" 
	d="
M13.097012,255.459534 
	C15.484402,256.198517 17.926579,257.217865 20.099455,258.646698 
	C23.636673,260.972748 26.515305,264.016327 31.598799,263.556488 
	C33.479965,263.386322 35.685944,266.806763 37.935242,268.900635 
	C35.652481,273.407440 33.178265,277.603271 30.196028,281.772278 
	C24.180962,278.837769 18.673916,275.930054 13.166866,273.022339 
	C13.121531,267.322815 13.076198,261.623291 13.097012,255.459534 
z"/>
<path fill="#5CAC48" opacity="1.000000" stroke="none" 
	d="
M13.103929,273.485626 
	C18.673916,275.930054 24.180962,278.837769 29.956593,282.013184 
	C27.924780,286.658936 25.624378,291.036987 22.786266,295.621338 
	C19.220276,294.882294 16.191996,293.936920 13.163718,292.991547 
	C13.122809,286.644012 13.081899,280.296448 13.103929,273.485626 
z"/>
<path fill="#53AB40" opacity="1.000000" stroke="none" 
	d="
M13.097559,293.437958 
	C16.191996,293.936920 19.220276,294.882294 22.599804,295.907349 
	C20.977217,299.779694 19.003382,303.572357 16.997284,307.735901 
	C13.162249,304.055084 12.434721,299.152832 13.097559,293.437958 
z"/>
<path fill="#4B8D47" opacity="1.000000" stroke="none" 
	d="
M312.002960,335.997955 
	C312.881500,335.933258 313.760071,335.868561 314.857697,335.968323 
	C313.954742,336.765656 312.832733,337.398560 311.365784,337.804260 
	C311.011963,337.388397 311.003113,337.199738 310.994263,337.011108 
	C310.994263,337.011108 311.000000,337.000000 311.182648,336.843292 
	C311.596863,336.474640 311.809418,336.245087 312.002960,335.997955 
z"/>
<path fill="#6DA360" opacity="1.000000" stroke="none" 
	d="
M286.814880,57.728142 
	C286.427734,57.799942 285.929993,57.600742 285.228638,57.225052 
	C285.584747,57.184753 286.144501,57.320946 286.814880,57.728142 
z"/>
<path fill="#679F5C" opacity="1.000000" stroke="none" 
	d="
M178.680328,7.027225 
	C178.516144,7.303806 178.052353,7.597708 177.315079,7.943798 
	C177.487976,7.678839 177.934357,7.361692 178.680328,7.027225 
z"/>
<path fill="#51904B" opacity="1.000000" stroke="none" 
	d="
M310.819672,337.212769 
	C311.003113,337.199738 311.011963,337.388397 311.035645,337.859955 
	C310.983246,338.480988 310.793640,338.723236 310.243622,338.869446 
	C310.218781,338.384277 310.431946,337.899384 310.819672,337.212769 
z"/>
<path fill="#679F5C" opacity="1.000000" stroke="none" 
	d="
M234.861481,27.711044 
	C234.466705,27.782545 233.952118,27.577871 233.227173,27.190067 
	C233.591766,27.149582 234.166702,27.292225 234.861481,27.711044 
z"/>
<path fill="#679F5C" opacity="1.000000" stroke="none" 
	d="
M180.681732,6.021489 
	C180.509323,6.297073 180.037903,6.590806 179.289520,6.935081 
	C179.469284,6.670293 179.926010,6.354966 180.681732,6.021489 
z"/>
<path fill="#679F5C" opacity="1.000000" stroke="none" 
	d="
M229.879150,24.707342 
	C229.493484,24.789370 228.974640,24.603683 228.240479,24.244926 
	C228.598755,24.194445 229.172363,24.317038 229.879150,24.707342 
z"/>
<path fill="#51904B" opacity="1.000000" stroke="none" 
	d="
M308.286011,339.855316 
	C308.256958,339.653717 308.505890,339.457703 308.978943,339.164551 
	C308.970245,339.306824 308.757233,339.571289 308.286011,339.855316 
z"/>
<path fill="#679F5C" opacity="1.000000" stroke="none" 
	d="
M176.746765,8.106640 
	C176.829453,8.322170 176.621002,8.553090 176.158325,8.854179 
	C176.024353,8.623902 176.208191,8.356463 176.746765,8.106640 
z"/>
<path fill="#78B85E" opacity="1.000000" stroke="none" 
	d="
M146.731323,25.313204 
	C146.773071,25.510723 146.585480,25.666285 146.230133,25.902931 
	C146.093033,25.682976 146.239594,25.445385 146.731323,25.313204 
z"/>
<path fill="#679F5C" opacity="1.000000" stroke="none" 
	d="
M230.936951,25.743652 
	C230.756699,25.804356 230.520187,25.596636 230.165985,25.171240 
	C230.299042,25.157873 230.576508,25.331762 230.936951,25.743652 
z"/>
<path fill="#679F5C" opacity="1.000000" stroke="none" 
	d="
M232.921707,26.765888 
	C232.753067,26.871483 232.531662,26.726519 232.186615,26.413452 
	C232.391510,26.128159 232.660156,26.218153 232.921707,26.765888 
z"/>
<path fill="#6DA360" opacity="1.000000" stroke="none" 
	d="
M287.742188,58.751648 
	C287.548584,58.807652 287.371765,58.622208 287.115295,58.253365 
	C287.336945,58.102509 287.578033,58.249252 287.742188,58.751648 
z"/>
<path fill="#6DA360" opacity="1.000000" stroke="none" 
	d="
M284.890533,56.758186 
	C284.715027,56.832741 284.495972,56.654518 284.164246,56.286385 
	C284.379395,56.094826 284.644501,56.231140 284.890533,56.758186 
z"/>
<path fill="#6DA360" opacity="1.000000" stroke="none" 
	d="
M283.847656,55.765476 
	C283.669373,55.869537 283.475708,55.728943 283.180756,55.427315 
	C283.390228,55.142315 283.641144,55.227165 283.847656,55.765476 
z"/>
<path fill="#679F5C" opacity="1.000000" stroke="none" 
	d="
M235.751984,28.748478 
	C235.553238,28.796951 235.373825,28.596001 235.116791,28.199181 
	C235.340256,28.070198 235.584305,28.235445 235.751984,28.748478 
z"/>
<path fill="#75BB59" opacity="1.000000" stroke="none" 
	d="
M125.744431,37.294781 
	C125.798538,37.500439 125.614273,37.665314 125.256638,37.910866 
	C125.093796,37.680370 125.234726,37.434521 125.744431,37.294781 
z"/>
<path fill="#75BB59" opacity="1.000000" stroke="none" 
	d="
M123.737488,38.319607 
	C123.794106,38.532970 123.616447,38.690960 123.269768,38.923073 
	C123.098289,38.688061 123.232437,38.443741 123.737488,38.319607 
z"/>
<path fill="#7AB462" opacity="1.000000" stroke="none" 
	d="
M176.991089,282.120453 
	C176.660767,285.073914 176.053024,288.026489 176.043839,290.980927 
	C175.966934,315.715424 176.023926,340.450287 175.962585,365.184845 
	C175.956512,367.637817 175.430450,370.089478 174.963028,372.961975 
	C170.177383,365.309784 165.497940,357.279785 160.991196,349.154053 
	C155.588913,339.413666 150.333969,329.591553 144.896576,319.472656 
	C145.518448,316.736359 146.890594,314.335571 146.903290,311.927612 
	C147.056290,282.907837 147.008286,253.886978 147.360931,224.466400 
	C150.450012,225.622177 153.410522,226.890518 155.891403,228.786469 
	C164.029419,235.005768 172.190353,237.869339 180.999176,230.546997 
	C181.708435,234.336899 182.416153,237.692383 182.904144,241.316330 
	C181.688843,242.175049 180.751007,242.911972 179.687881,243.330826 
	C174.443710,245.396820 172.797791,249.201523 173.158890,254.707764 
	C173.580322,261.134399 172.893753,267.640198 173.428467,274.049896 
	C173.659531,276.819855 175.746933,279.434998 176.991089,282.120453 
z"/>
<path fill="#FBFDFA" opacity="1.000000" stroke="none" 
	d="
M73.969315,210.485748 
	C73.943314,203.660828 73.985748,197.298355 73.957367,190.472839 
	C75.869514,188.348404 77.718079,186.483704 79.862320,185.066330 
	C84.962685,181.694839 90.202934,178.534973 95.691345,175.135315 
	C100.991257,171.769806 105.240250,173.836258 109.564949,176.660461 
	C113.178757,179.020432 117.042831,180.997162 121.118484,183.226471 
	C128.888779,186.123627 130.277161,191.707413 129.723618,199.090881 
	C129.055237,208.006241 129.558487,217.007751 129.498032,225.971588 
	C129.483231,228.166626 129.654022,230.831848 125.453033,228.641663 
	C113.057640,224.259003 108.476799,216.106262 110.976974,203.887283 
	C111.172325,202.932571 111.133423,201.856247 110.903389,200.909332 
	C110.682678,200.000717 110.275612,198.697922 109.597229,198.414871 
	C106.410324,197.085114 102.831429,194.656403 99.899208,195.226501 
	C95.360558,196.108902 91.604454,199.128723 92.596260,205.225021 
	C93.176765,208.793167 92.894455,212.547714 92.620132,216.189774 
	C92.480072,218.049194 91.502190,219.845535 90.903008,221.670410 
	C85.721626,224.441910 80.540237,227.213425 74.037743,230.691589 
	C74.037743,223.333633 74.037743,217.140915 73.969315,210.485748 
z"/>
<path fill="#75BB5A" opacity="1.000000" stroke="none" 
	d="
M91.051086,222.004303 
	C91.502190,219.845535 92.480072,218.049194 92.620132,216.189774 
	C92.894455,212.547714 93.176765,208.793167 92.596260,205.225021 
	C91.604454,199.128723 95.360558,196.108902 99.899208,195.226501 
	C102.831429,194.656403 106.410324,197.085114 109.597229,198.414871 
	C110.275612,198.697922 110.682678,200.000717 110.903389,200.909332 
	C111.133423,201.856247 111.172325,202.932571 110.976974,203.887283 
	C108.476799,216.106262 113.057640,224.259003 125.122696,228.562378 
	C124.913521,230.857498 124.085236,232.898224 124.062515,234.947891 
	C123.934036,246.534088 124.106483,258.124390 123.895935,269.708191 
	C123.859077,271.736237 122.489601,273.740051 121.377747,275.875000 
	C112.927345,261.461731 104.832138,246.930023 96.744202,232.394257 
	C94.883049,229.049377 93.046852,225.690598 91.051086,222.004303 
z"/>
<path fill="#FDFEFD" opacity="1.000000" stroke="none" 
	d="
M180.997635,230.112595 
	C172.190353,237.869339 164.029419,235.005768 155.891403,228.786469 
	C153.410522,226.890518 150.450012,225.622177 147.365738,223.992676 
	C142.446671,221.876541 141.429657,218.271667 141.699387,213.514191 
	C142.081619,206.772354 141.944626,199.988068 141.732513,193.231247 
	C141.632065,190.031158 142.562698,187.798019 145.749008,186.217026 
	C152.303192,182.422470 158.591553,178.863190 164.932953,175.401123 
	C166.489746,174.551178 168.219803,174.018600 170.202744,173.298248 
	C176.672836,176.851456 182.810364,180.446533 189.511444,184.376740 
	C195.670761,186.839569 197.582977,190.742203 197.022583,196.756088 
	C196.438202,203.027527 196.692200,209.404373 196.967072,215.718246 
	C197.128082,219.417496 195.729599,221.535019 192.529297,223.194626 
	C188.557648,225.254227 184.830429,227.785202 180.997635,230.112595 
z"/>
<path fill="#FDFEFD" opacity="1.000000" stroke="none" 
	d="
M259.095795,224.368576 
	C254.347244,227.140823 249.836502,229.664337 245.107025,232.438049 
	C243.418167,233.431564 242.012222,234.577805 240.463028,234.824509 
	C238.090393,235.202362 235.382782,235.609619 233.244217,234.831360 
	C229.922058,233.622406 226.958710,231.427475 223.270325,229.286209 
	C219.543915,227.092606 216.474350,225.093231 213.212540,223.483398 
	C210.160736,221.977203 208.918076,219.942871 209.046494,216.439026 
	C209.313538,209.154037 209.333862,201.844070 209.040710,194.561081 
	C208.890747,190.835312 209.801163,188.123581 213.531647,186.312927 
	C218.990997,183.170944 224.108826,180.148819 229.573715,177.042847 
	C235.093704,171.636841 240.357040,174.951675 245.966629,177.857208 
	C245.966629,163.862244 245.966629,150.926407 246.258301,137.830780 
	C250.696808,139.456207 254.843658,141.241440 258.990509,143.026672 
	C264.032227,145.258698 264.582550,149.357040 264.521942,154.366745 
	C264.276947,174.618240 264.280060,194.876175 264.530182,215.127563 
	C264.584808,219.549408 263.423920,222.477707 259.095795,224.368576 
M238.068604,214.878494 
	C240.891418,212.353821 245.914825,212.574951 246.117279,206.717072 
	C246.305817,201.262329 244.607544,198.155334 239.699524,196.032623 
	C235.336273,194.145538 227.765320,198.036026 227.500351,202.728348 
	C227.056900,210.581848 228.804108,212.785492 238.068604,214.878494 
z"/>
<path fill="#73A863" opacity="1.000000" stroke="none" 
	d="
M229.226654,177.126709 
	C224.108826,180.148819 218.990997,183.170944 213.363068,185.897675 
	C212.568649,182.975388 212.040268,180.348831 212.036682,177.721542 
	C211.983566,138.774963 212.052521,99.828194 211.954926,60.881802 
	C211.935806,53.251945 211.335556,45.623543 211.003326,37.994476 
	C212.885361,40.806553 214.767395,43.618633 216.832474,46.718025 
	C219.708115,51.555428 222.489822,56.056274 225.046402,60.681549 
	C225.977539,62.366112 226.372437,64.347061 227.017700,67.013031 
	C227.348938,76.278877 227.914581,84.723328 227.955154,93.170303 
	C228.078842,118.917870 227.969879,144.666504 228.053467,170.414413 
	C228.060760,172.653091 228.817841,174.889328 229.226654,177.126709 
z"/>
<path fill="#FCFDFB" opacity="1.000000" stroke="none" 
	d="
M309.239929,233.791824 
	C307.240906,234.641693 305.477325,235.240738 303.356934,235.865479 
	C301.318756,235.008514 299.637390,234.125854 297.709961,233.031067 
	C294.601166,231.103760 291.738373,229.388580 288.534485,227.554642 
	C286.798157,226.592972 285.402893,225.750031 283.702576,224.856110 
	C281.531311,223.597473 279.665131,222.389847 277.489563,221.058441 
	C277.066895,210.598572 276.953644,200.262512 277.109619,189.233948 
	C282.963562,185.123199 288.548279,181.704971 294.132965,178.286713 
	C294.447418,178.200348 294.845428,178.208115 295.064148,178.013916 
	C301.507996,172.292908 307.858704,173.066315 314.505310,178.357162 
	C315.204437,178.727859 315.559570,178.989761 316.141602,179.247040 
	C321.304138,182.205261 326.239838,185.168091 331.517059,188.232544 
	C334.180450,197.386841 329.292053,202.060074 321.428101,205.341217 
	C318.970062,206.657104 316.769806,207.714355 314.159546,208.968628 
	C313.818115,207.482147 313.168152,206.318802 313.392303,205.359711 
	C314.914795,198.844864 310.027069,197.105865 305.752258,195.102127 
	C302.518372,193.586304 295.527527,198.441467 295.021362,201.996780 
	C294.230255,207.553665 295.797241,211.250900 301.304077,213.715958 
	C307.024231,216.276489 312.315460,219.816650 317.709167,223.069519 
	C319.012146,223.855331 319.979950,225.196960 321.074524,226.649811 
	C320.156952,227.520920 319.266693,228.025223 318.188782,228.773621 
	C315.159210,230.525467 312.317322,232.033234 309.239929,233.791824 
z"/>
<path fill="#6FA461" opacity="1.000000" stroke="none" 
	d="
M229.573715,177.042847 
	C228.817841,174.889328 228.060760,172.653091 228.053467,170.414413 
	C227.969879,144.666504 228.078842,118.917870 227.955154,93.170303 
	C227.914581,84.723328 227.348938,76.278877 227.028656,67.397232 
	C227.963913,67.591728 229.269424,68.009613 229.765625,68.885803 
	C234.535828,77.309387 239.169617,85.810219 243.745361,94.959991 
	C243.767578,108.185280 243.819641,120.740959 244.090881,133.291901 
	C244.125000,134.870895 245.313156,136.424957 245.966629,137.990570 
	C245.966629,150.926407 245.966629,163.862244 245.966629,177.857208 
	C240.357040,174.951675 235.093704,171.636841 229.573715,177.042847 
z"/>
<path fill="#68A05D" opacity="1.000000" stroke="none" 
	d="
M246.258301,137.830780 
	C245.313156,136.424957 244.125000,134.870895 244.090881,133.291901 
	C243.819641,120.740959 243.767578,108.185280 243.826782,95.315460 
	C252.766830,106.425301 260.318512,118.302956 259.033142,133.658325 
	C258.799500,136.449066 258.997589,139.275940 258.993439,142.556396 
	C254.843658,141.241440 250.696808,139.456207 246.258301,137.830780 
z"/>
<path fill="#5C9654" opacity="1.000000" stroke="none" 
	d="
M293.950623,177.974945 
	C288.548279,181.704971 282.963562,185.123199 277.116119,188.764542 
	C275.939789,186.957748 274.304596,184.951538 274.237061,182.893860 
	C273.937744,173.774796 274.045990,164.640579 274.126892,155.512909 
	C274.137695,154.289825 274.832703,153.072800 275.689789,150.308167 
	C284.068176,158.824722 287.888794,168.972305 293.950623,177.974945 
z"/>
<path fill="#76AC64" opacity="1.000000" stroke="none" 
	d="
M210.925217,37.649075 
	C211.335556,45.623543 211.935806,53.251945 211.954926,60.881802 
	C212.052521,99.828194 211.983566,138.774963 212.036682,177.721542 
	C212.040268,180.348831 212.568649,182.975388 213.021545,186.017548 
	C209.801163,188.123581 208.890747,190.835312 209.040710,194.561081 
	C209.333862,201.844070 209.313538,209.154037 209.046494,216.439026 
	C208.918076,219.942871 210.160736,221.977203 213.212540,223.483398 
	C216.474350,225.093231 219.543915,227.092606 222.927933,229.143188 
	C222.758942,233.325806 222.359406,237.287155 221.605988,241.630310 
	C216.086411,239.048004 211.086288,235.713852 205.677292,233.293518 
	C203.365005,232.258865 199.860931,232.315247 197.493271,233.302490 
	C192.495804,235.386230 187.890228,238.409866 183.123871,241.047882 
	C182.416153,237.692383 181.708435,234.336899 180.999176,230.546997 
	C184.830429,227.785202 188.557648,225.254227 192.529297,223.194626 
	C195.729599,221.535019 197.128082,219.417496 196.967072,215.718246 
	C196.692200,209.404373 196.438202,203.027527 197.022583,196.756088 
	C197.582977,190.742203 195.670761,186.839569 189.846954,184.440048 
	C190.409988,182.286469 191.887970,180.406235 191.892197,178.522690 
	C192.014771,123.801804 192.004669,69.080574 191.947189,14.359463 
	C191.944260,11.558432 191.331436,8.758039 190.993958,5.538024 
	C194.451385,10.261849 198.085373,15.301488 201.337051,20.576777 
	C204.700394,26.033251 207.692566,31.718506 210.925217,37.649075 
z"/>
<path fill="#F4F8F2" opacity="1.000000" stroke="none" 
	d="
M182.904144,241.316330 
	C187.890228,238.409866 192.495804,235.386230 197.493271,233.302490 
	C199.860931,232.315247 203.365005,232.258865 205.677292,233.293518 
	C211.086288,235.713852 216.086411,239.048004 221.593292,242.096985 
	C228.887009,244.960526 230.639435,250.245300 229.951263,257.304626 
	C229.405151,262.906555 229.668381,268.611267 229.900772,274.256805 
	C230.056198,278.032379 228.836029,280.713623 225.180374,282.590210 
	C218.569229,286.414093 212.313766,290.249115 205.732254,293.403961 
	C203.533051,294.458160 200.500504,293.773804 197.476685,293.755280 
	C195.219513,292.359558 193.334518,291.092682 190.660599,289.295624 
	C192.566330,288.473755 193.909698,287.894409 195.814880,287.557190 
	C198.845947,289.816742 201.356247,290.791443 204.494034,288.970581 
	C210.411453,285.536713 216.558212,282.481598 222.338974,278.839447 
	C223.916794,277.845337 225.334808,275.365814 225.440811,273.489685 
	C225.814560,266.875763 225.419052,260.221741 225.660141,253.595474 
	C225.774124,250.462830 224.544952,248.735687 221.918350,247.371567 
	C216.718979,244.671265 211.549881,241.896240 206.504288,238.921402 
	C202.272049,236.426132 198.462463,236.338989 194.528671,240.010941 
	C189.872498,242.570923 185.616562,245.177475 181.204926,247.486526 
	C178.686783,248.804504 177.655640,250.480896 177.751114,253.363297 
	C177.949081,259.339294 178.168762,265.355072 177.695679,271.300049 
	C177.316360,276.066925 179.179962,278.597412 183.315292,280.438751 
	C188.017776,282.532623 189.779236,281.701172 189.845581,276.531189 
	C189.935135,269.552643 190.011978,262.567871 189.804611,255.594406 
	C189.717270,252.657379 190.617157,251.205795 193.752502,251.567123 
	C194.136032,252.943756 194.351532,253.964569 194.471512,255.417145 
	C194.439682,257.903625 194.503387,259.958313 194.469696,262.420685 
	C194.437241,264.216431 194.502182,265.604553 194.471527,267.415253 
	C194.439636,269.563324 194.503342,271.288757 194.470840,273.453918 
	C194.270248,276.596710 194.165878,279.299774 194.061493,282.002869 
	C190.304214,286.569550 187.294922,287.236664 182.025375,284.615448 
	C180.551498,283.882294 179.129608,283.044647 177.337479,282.187683 
	C175.746933,279.434998 173.659531,276.819855 173.428467,274.049896 
	C172.893753,267.640198 173.580322,261.134399 173.158890,254.707764 
	C172.797791,249.201523 174.443710,245.396820 179.687881,243.330826 
	C180.751007,242.911972 181.688843,242.175049 182.904144,241.316330 
z"/>
<path fill="#B7D2B0" opacity="1.000000" stroke="none" 
	d="
M233.935898,246.941299 
	C234.574997,243.737457 236.980286,242.730255 239.359848,244.090637 
	C240.942841,244.995636 242.625000,247.802155 242.310425,249.364426 
	C241.999481,250.908508 239.250763,252.976349 237.543365,253.002823 
	C234.459549,253.050629 232.404633,250.991882 233.735840,247.404236 
	C234.858078,247.754700 235.563293,248.062897 236.268509,248.371094 
	C236.361359,248.029221 236.454224,247.687347 236.547073,247.345459 
	C235.676682,247.210739 234.806290,247.076019 233.935898,246.941299 
z"/>
<path fill="#79AD69" opacity="1.000000" stroke="none" 
	d="
M194.863693,239.932892 
	C198.462463,236.338989 202.272049,236.426132 206.504288,238.921402 
	C211.549881,241.896240 216.718979,244.671265 221.918350,247.371567 
	C224.544952,248.735687 225.774124,250.462830 225.660141,253.595474 
	C225.419052,260.221741 225.814560,266.875763 225.440811,273.489685 
	C225.334808,275.365814 223.916794,277.845337 222.338974,278.839447 
	C216.558212,282.481598 210.411453,285.536713 204.494034,288.970581 
	C201.356247,290.791443 198.845947,289.816742 196.147476,287.543030 
	C195.510132,285.645020 195.102005,284.003326 194.377686,282.182251 
	C194.165878,279.299774 194.270248,276.596710 194.740540,273.416595 
	C195.740601,272.616669 196.374756,272.293762 197.279297,272.184357 
	C202.267685,278.479980 208.528976,277.202698 214.646835,275.746918 
	C218.437683,274.844879 220.484604,272.214874 220.294876,268.074005 
	C220.111404,264.069733 217.306747,262.775116 214.111404,262.031372 
	C210.888275,261.281158 207.567245,260.943878 204.356964,260.151031 
	C203.474884,259.933197 202.221985,258.711273 202.245941,257.986633 
	C202.273682,257.146118 203.396774,255.822998 204.259689,255.618713 
	C207.991364,254.735306 211.742386,254.042099 214.656342,257.833405 
	C215.485641,258.912384 217.167252,259.336273 219.123627,260.434082 
	C219.312805,254.658356 216.837646,252.609329 212.898102,251.523376 
	C205.942154,249.605957 200.949295,251.047913 196.937592,256.096985 
	C196.008499,255.584702 195.287781,255.285034 194.567047,254.985367 
	C194.351532,253.964569 194.136032,252.943756 194.115143,251.376709 
	C194.494400,247.197922 194.679047,243.565414 194.863693,239.932892 
z"/>
<path fill="#F5F9F4" opacity="1.000000" stroke="none" 
	d="
M299.270874,201.690094 
	C305.001587,197.763367 309.263184,198.884949 309.767273,203.910324 
	C310.184937,208.074326 307.527832,210.024887 304.368073,210.072144 
	C301.569458,210.113968 298.507233,208.546204 298.907013,204.513947 
	C298.988037,203.696655 299.024780,202.874985 299.270874,201.690094 
z"/>
<path fill="#51904B" opacity="1.000000" stroke="none" 
	d="
M311.755859,336.004547 
	C311.809418,336.245087 311.596863,336.474640 311.185944,336.837708 
	C311.006592,336.988831 311.010437,336.506073 311.012543,336.265015 
	C311.014648,336.023926 311.508789,336.011139 311.755859,336.004547 
z"/>
<path fill="#000000" opacity="1.000000" stroke="none" 
	d="
M304.582275,340.615479 
	C304.646698,340.560730 304.502441,340.344452 304.438141,340.383972 
	C304.373840,340.423492 304.517822,340.670258 304.582275,340.615479 
z"/>
<path fill="#72A664" opacity="1.000000" stroke="none" 
	d="
M237.702118,215.005661 
	C228.804108,212.785492 227.056900,210.581848 227.500351,202.728348 
	C227.765320,198.036026 235.336273,194.145538 239.699524,196.032623 
	C244.607544,198.155334 246.305817,201.262329 246.117279,206.717072 
	C245.914825,212.574951 240.891418,212.353821 237.702118,215.005661 
z"/>
<path fill="#79B066" opacity="1.000000" stroke="none" 
	d="
M194.528671,240.010941 
	C194.679047,243.565414 194.494400,247.197922 193.947128,251.020874 
	C190.617157,251.205795 189.717270,252.657379 189.804611,255.594406 
	C190.011978,262.567871 189.935135,269.552643 189.845581,276.531189 
	C189.779236,281.701172 188.017776,282.532623 183.315292,280.438751 
	C179.179962,278.597412 177.316360,276.066925 177.695679,271.300049 
	C178.168762,265.355072 177.949081,259.339294 177.751114,253.363297 
	C177.655640,250.480896 178.686783,248.804504 181.204926,247.486526 
	C185.616562,245.177475 189.872498,242.570923 194.528671,240.010941 
z"/>
<path fill="#79AD69" opacity="1.000000" stroke="none" 
	d="
M194.567108,266.992645 
	C194.502182,265.604553 194.437241,264.216431 194.770874,262.360718 
	C195.845444,261.462646 196.521454,261.032166 197.446625,260.857239 
	C200.363327,262.515594 202.924545,264.211578 205.731720,265.229065 
	C208.010803,266.055176 210.645752,265.856995 213.000183,266.537567 
	C214.017395,266.831604 215.405243,268.205292 215.391998,269.069672 
	C215.377365,270.025543 214.134811,271.335724 213.107590,271.836975 
	C209.110092,273.787689 204.154556,272.215851 200.892731,268.710938 
	C200.002167,267.753998 198.080231,267.756927 196.288239,267.260315 
	C195.485626,267.131714 195.026367,267.062164 194.567108,266.992645 
z"/>
<path fill="#79B066" opacity="1.000000" stroke="none" 
	d="
M197.197479,260.601685 
	C196.521454,261.032166 195.845444,261.462646 194.868256,261.953064 
	C194.503387,259.958313 194.439682,257.903625 194.471512,255.417145 
	C195.287781,255.285034 196.008499,255.584702 196.961700,256.454071 
	C197.195282,258.216431 197.196381,259.409058 197.197479,260.601685 
z"/>
<path fill="#79B066" opacity="1.000000" stroke="none" 
	d="
M194.471527,267.415253 
	C195.026367,267.062164 195.485626,267.131714 196.230072,267.592224 
	C196.679794,269.312439 196.844345,270.641663 197.008911,271.970886 
	C196.374756,272.293762 195.740601,272.616669 194.836761,272.976898 
	C194.503342,271.288757 194.439636,269.563324 194.471527,267.415253 
z"/>
<path fill="#9AC190" opacity="1.000000" stroke="none" 
	d="
M233.956924,246.969406 
	C234.806290,247.076019 235.676682,247.210739 236.547073,247.345459 
	C236.454224,247.687347 236.361359,248.029221 236.268509,248.371094 
	C235.563293,248.062897 234.858078,247.754700 234.033569,247.201996 
	C233.914276,246.957474 233.977951,246.997513 233.956924,246.969406 
z"/>
<path fill="#F3F8F2" opacity="1.000000" stroke="none" 
	d="
M197.279297,272.184357 
	C196.844345,270.641663 196.679794,269.312439 196.573425,267.651306 
	C198.080231,267.756927 200.002167,267.753998 200.892731,268.710938 
	C204.154556,272.215851 209.110092,273.787689 213.107590,271.836975 
	C214.134811,271.335724 215.377365,270.025543 215.391998,269.069672 
	C215.405243,268.205292 214.017395,266.831604 213.000183,266.537567 
	C210.645752,265.856995 208.010803,266.055176 205.731720,265.229065 
	C202.924545,264.211578 200.363327,262.515594 197.446655,260.857269 
	C197.196381,259.409058 197.195282,258.216431 197.170074,256.666687 
	C200.949295,251.047913 205.942154,249.605957 212.898102,251.523376 
	C216.837646,252.609329 219.312805,254.658356 219.123627,260.434082 
	C217.167252,259.336273 215.485641,258.912384 214.656342,257.833405 
	C211.742386,254.042099 207.991364,254.735306 204.259689,255.618713 
	C203.396774,255.822998 202.273682,257.146118 202.245941,257.986633 
	C202.221985,258.711273 203.474884,259.933197 204.356964,260.151031 
	C207.567245,260.943878 210.888275,261.281158 214.111404,262.031372 
	C217.306747,262.775116 220.111404,264.069733 220.294876,268.074005 
	C220.484604,272.214874 218.437683,274.844879 214.646835,275.746918 
	C208.528976,277.202698 202.267685,278.479980 197.279297,272.184357 
z"/>
</svg>