<?xml version="1.0" standalone="no"?>
<!DOCTYPE svg PUBLIC "-//W3C//DTD SVG 20010904//EN"
 "http://www.w3.org/TR/2001/REC-SVG-20010904/DTD/svg10.dtd">
<svg version="1.0" xmlns="http://www.w3.org/2000/svg"
 width="360.000000pt" height="360.000000pt" viewBox="0 0 360.000000 360.000000"
 preserveAspectRatio="xMidYMid meet">

<g transform="translate(0.000000,360.000000) scale(0.100000,-0.100000)"
fill="#000000" stroke="none">
<path d="M1620 3357 c-3 -2 -39 -7 -82 -11 -135 -11 -303 -63 -376 -116 -26
-18 -50 -49 -68 -87 -28 -57 -29 -61 -33 -265 l-3 -208 371 0 371 0 0 -50 0
-49 -562 -3 c-548 -3 -564 -4 -620 -25 -207 -78 -283 -190 -343 -503 -17 -87
-19 -325 -5 -420 43 -281 126 -441 264 -513 61 -31 62 -31 239 -35 l177 -4 0
181 c0 99 5 204 11 233 38 184 193 339 377 377 34 7 206 11 476 11 368 0 429
2 472 17 100 34 176 102 223 202 l26 56 0 450 0 450 -27 52 c-64 120 -216 218
-368 238 -30 4 -64 9 -75 12 -29 7 -439 16 -445 10z m-155 -251 c40 -31 61
-87 51 -140 -20 -108 -158 -152 -235 -75 -128 127 41 324 184 215z"/>
</g>
</svg>
