<?xml version="1.0" standalone="no"?>
<!DOCTYPE svg PUBLIC "-//W3C//DTD SVG 20010904//EN"
 "http://www.w3.org/TR/2001/REC-SVG-20010904/DTD/svg10.dtd">
<svg version="1.0" xmlns="http://www.w3.org/2000/svg"
 width="291.000000pt" height="489.000000pt" viewBox="0 0 291.000000 489.000000"
 preserveAspectRatio="xMidYMid meet">

<g transform="translate(0.000000,489.000000) scale(0.100000,-0.100000)"
fill="#000000" stroke="none">
<path d="M2011 4714 c0 -11 3 -14 6 -6 3 7 2 16 -1 19 -3 4 -6 -2 -5 -13z"/>
<path d="M2011 4674 c0 -11 3 -14 6 -6 3 7 2 16 -1 19 -3 4 -6 -2 -5 -13z"/>
<path d="M1960 4639 c-14 -6 -38 -9 -55 -9 -80 5 -101 -9 -44 -29 55 -19 92
-13 117 20 25 31 22 34 -18 18z"/>
<path d="M1982 4330 c0 -19 2 -27 5 -17 2 9 2 25 0 35 -3 9 -5 1 -5 -18z"/>
<path d="M1895 3979 c-38 -3 -162 -7 -275 -8 -113 0 -214 -3 -225 -5 -11 -3
-31 -5 -45 -7 -14 -1 8 -5 48 -10 106 -12 232 -44 320 -81 61 -25 90 -46 148
-102 105 -104 138 -175 220 -469 53 -191 79 -247 189 -401 47 -65 85 -123 85
-127 0 -19 18 -8 24 14 3 13 15 36 27 50 18 23 28 27 74 27 30 0 57 -4 60 -10
11 -18 37 -11 31 8 -10 33 -17 87 -19 144 l-1 58 -23 -37 c-27 -45 -47 -57
-72 -43 -11 5 -27 7 -36 4 -11 -5 -20 4 -33 35 -16 38 -32 48 -66 42 -13 -3 1
84 19 120 27 51 110 66 159 28 33 -26 39 -22 27 17 -8 28 -25 144 -37 264 -3
30 -12 94 -20 143 -8 48 -14 112 -14 142 0 61 -22 135 -53 179 l-20 29 -156
-7 c-86 -4 -168 -7 -182 -7 -25 0 -25 -1 -18 -52 12 -81 11 -97 -6 -97 -8 0
-15 8 -15 17 0 42 -23 142 -33 145 -7 2 -43 1 -82 -3z"/>
<path d="M1238 3963 c7 -3 16 -2 19 1 4 3 -2 6 -13 5 -11 0 -14 -3 -6 -6z"/>
<path d="M858 3913 c7 -3 16 -2 19 1 4 3 -2 6 -13 5 -11 0 -14 -3 -6 -6z"/>
<path d="M574 3610 c-90 -10 -149 -36 -195 -87 -95 -105 -99 -301 -13 -593 29
-98 81 -210 96 -210 6 0 9 -3 5 -6 -3 -4 1 -13 9 -21 8 -8 11 -20 7 -26 -3 -7
-3 -9 1 -5 5 4 19 -13 32 -38 54 -101 149 -170 294 -216 169 -52 573 -13 709
70 61 37 100 101 126 209 24 98 17 347 -12 443 -71 234 -234 388 -476 449
-139 36 -403 50 -583 31z m-84 -100 c0 -5 -10 -33 -21 -62 -38 -94 -50 -151
-50 -240 0 -178 51 -341 170 -542 81 -138 94 -166 76 -166 -51 0 -163 161
-218 313 -117 326 -123 541 -16 670 29 35 59 49 59 27z"/>
<path d="M2602 2760 c0 -14 2 -19 5 -12 2 6 2 18 0 25 -3 6 -5 1 -5 -13z"/>
<path d="M2410 2692 c10 -21 30 -71 44 -112 27 -76 46 -108 46 -77 0 10 14 23
34 31 36 15 56 55 56 110 l-1 31 -20 -27 c-20 -28 -62 -38 -73 -19 -3 5 -15 7
-25 4 -16 -4 -22 3 -32 37 -7 22 -20 45 -30 50 -16 9 -16 7 1 -28z"/>
<path d="M2561 2284 c0 -11 3 -14 6 -6 3 7 2 16 -1 19 -3 4 -6 -2 -5 -13z"/>
<path d="M1278 2053 c7 -3 16 -2 19 1 4 3 -2 6 -13 5 -11 0 -14 -3 -6 -6z"/>
<path d="M703 2044 c8 -8 409 -45 416 -38 9 9 -9 16 -51 20 -24 2 -68 6 -98 8
-132 12 -274 18 -267 10z"/>
<path d="M685 1946 c0 -15 5 -22 13 -19 6 3 12 14 12 24 0 10 -6 19 -12 19 -7
0 -13 -11 -13 -24z"/>
<path d="M727 1853 c5 -47 3 -52 -21 -68 -14 -10 -26 -23 -26 -30 0 -7 -5 -15
-12 -17 -6 -2 -13 -30 -16 -61 -3 -35 -9 -57 -16 -57 -7 0 -57 7 -112 14 -54
8 -142 18 -194 21 -52 3 -105 8 -117 11 -19 3 -23 -2 -32 -47 -8 -34 -8 -63
-2 -88 6 -20 10 -97 10 -172 -1 -145 7 -177 58 -251 31 -46 77 -62 150 -55 63
7 116 37 132 75 6 15 15 58 21 97 9 53 24 93 66 169 30 55 60 119 65 143 7 24
16 40 23 37 6 -2 42 -8 80 -13 38 -6 73 -16 77 -23 7 -10 9 -9 9 3 0 28 -34
48 -95 55 -33 3 -71 13 -84 21 -20 13 -23 21 -18 54 7 50 23 72 46 60 9 -4 33
-11 54 -14 43 -7 47 4 17 43 -16 22 -22 23 -39 13 -30 -19 -36 3 -6 23 24 15
24 18 10 34 -9 10 -20 31 -25 46 -7 22 -8 16 -3 -23z"/>
<path d="M1220 1894 c0 -3 11 -19 25 -36 21 -24 23 -33 14 -50 -9 -17 -5 -16
25 7 36 27 37 27 51 9 23 -30 18 -44 -17 -45 -32 -2 -32 -2 7 -9 36 -6 37 -7
10 -9 -32 -3 -29 -5 19 -16 21 -4 26 -9 17 -15 -10 -6 -9 -9 6 -14 30 -9 56
-43 49 -61 -5 -15 -9 -14 -32 4 -29 22 -59 27 -69 11 -3 -6 1 -7 10 -4 17 7
48 -13 40 -26 -3 -4 3 -7 12 -6 9 0 18 -5 21 -13 3 -8 0 -11 -7 -7 -6 4 -11 2
-11 -3 0 -15 -57 -14 -63 2 -4 9 -6 9 -6 -1 -1 -14 39 -32 73 -32 12 0 39 9
61 20 l38 20 56 -37 c76 -51 174 -90 260 -104 71 -12 72 -13 66 -38 -4 -14 -8
-48 -10 -76 -1 -36 -14 -74 -44 -132 -51 -101 -60 -143 -37 -179 17 -25 17
-27 -7 -62 -24 -37 -26 -50 -12 -84 9 -23 -11 -23 -25 0 -9 14 -10 12 -5 -13
l6 -30 -22 35 c-12 19 -35 61 -51 93 -16 31 -30 57 -32 57 -2 0 -16 -20 -31
-45 -44 -77 -139 -170 -197 -195 -109 -47 -234 -36 -296 26 -40 40 -37 52 7
30 59 -31 121 -13 121 36 0 11 -6 34 -14 51 -19 45 -50 158 -70 258 -2 8 -8
25 -15 39 -17 38 -5 -51 25 -177 25 -106 31 -157 14 -118 -6 14 -9 15 -10 5
-1 -11 -4 -9 -9 4 -4 11 -15 20 -24 22 -10 1 -14 -3 -10 -14 4 -10 2 -13 -6
-8 -6 4 -17 3 -24 -2 -7 -6 -16 -10 -22 -10 -5 0 -11 -6 -13 -14 -3 -10 -2
-11 6 0 6 9 9 3 9 -20 0 -29 -1 -30 -10 -10 -6 12 -14 22 -19 22 -5 0 -15 15
-23 33 -8 17 -14 26 -15 19 0 -8 29 -73 65 -146 36 -73 65 -138 65 -146 0 -8
-12 -65 -26 -126 l-26 -111 20 -45 c29 -67 131 -135 232 -156 140 -29 212 3
269 117 16 31 57 127 92 214 34 86 65 157 68 157 4 0 25 -31 49 -67 50 -79 51
-96 16 -229 -31 -118 -32 -172 -2 -218 32 -48 74 -73 148 -86 76 -14 210 -5
257 17 69 32 159 154 218 293 40 94 96 301 102 375 6 78 -9 124 -48 148 -11 6
-30 30 -41 52 -21 40 -98 153 -98 143 0 -3 10 -27 21 -53 42 -95 5 -191 -121
-315 -78 -77 -152 -111 -257 -118 -104 -6 -159 12 -203 68 -36 46 -39 62 -5
30 29 -27 110 -39 144 -21 25 14 28 31 4 31 -9 0 -25 7 -35 17 -10 9 -29 17
-41 17 -13 1 -37 10 -53 21 -16 11 -32 18 -36 17 -5 -1 -8 3 -8 8 0 14 11 12
30 -5 10 -9 40 -18 69 -22 108 -12 241 89 366 280 37 56 75 108 84 115 14 11
17 10 23 -10 6 -21 6 -21 7 5 1 15 8 38 17 52 19 30 33 146 14 129 -9 -9 -25
-8 -63 2 -48 13 -368 74 -388 74 -5 0 -9 6 -9 13 0 10 -13 13 -52 9 -135 -11
-282 50 -393 162 -39 39 -84 94 -101 121 l-30 50 56 1 c31 0 65 6 76 12 16 11
14 12 -21 12 -37 0 -150 13 -217 25 -16 2 -28 2 -28 -1z m-113 -949 c0 -8 -4
-12 -9 -9 -5 3 -6 10 -3 15 9 13 12 11 12 -6z"/>
<path d="M923 1783 c9 -2 25 -2 35 0 9 3 1 5 -18 5 -19 0 -27 -2 -17 -5z"/>
<path d="M980 1786 c0 -2 9 -6 20 -9 11 -3 18 -1 14 4 -5 9 -34 13 -34 5z"/>
<path d="M1058 1773 c7 -3 16 -2 19 1 4 3 -2 6 -13 5 -11 0 -14 -3 -6 -6z"/>
<path d="M1220 1769 c0 -5 5 -7 10 -4 6 3 10 8 10 11 0 2 -4 4 -10 4 -5 0 -10
-5 -10 -11z"/>
<path d="M1063 1724 c9 -11 17 -27 17 -35 0 -19 -97 -112 -132 -127 -16 -6
-28 -16 -28 -22 0 -22 40 -8 83 30 30 27 54 40 74 40 39 0 78 40 68 70 -5 16
-10 19 -18 11 -8 -8 -21 -2 -46 21 -20 18 -28 24 -18 12z"/>
<path d="M1618 1718 c47 -53 155 -95 285 -113 26 -3 47 -2 47 3 0 4 -39 14
-86 20 -90 12 -168 42 -231 88 l-38 28 23 -26z"/>
<path d="M1233 1704 c-10 -28 11 -67 47 -88 l35 -20 -37 35 c-29 28 -35 40
-31 62 6 29 -4 37 -14 11z"/>
<path d="M2390 1642 c0 -5 7 -15 15 -22 8 -7 15 -8 15 -2 0 5 -7 15 -15 22 -8
7 -15 8 -15 2z"/>
<path d="M2450 1615 c0 -8 2 -15 4 -15 2 0 6 7 10 15 3 8 1 15 -4 15 -6 0 -10
-7 -10 -15z"/>
<path d="M1320 1410 c20 -13 47 -13 55 0 4 6 -9 10 -32 10 -28 0 -34 -3 -23
-10z"/>
<path d="M901 1374 c0 -11 3 -14 6 -6 3 7 2 16 -1 19 -3 4 -6 -2 -5 -13z"/>
<path d="M921 1304 c0 -11 3 -14 6 -6 3 7 2 16 -1 19 -3 4 -6 -2 -5 -13z"/>
<path d="M991 1034 c0 -11 3 -14 6 -6 3 7 2 16 -1 19 -3 4 -6 -2 -5 -13z"/>
</g>
</svg>
