<?xml version="1.0" standalone="no"?>
<!DOCTYPE svg PUBLIC "-//W3C//DTD SVG 20010904//EN"
 "http://www.w3.org/TR/2001/REC-SVG-20010904/DTD/svg10.dtd">
<svg version="1.0" xmlns="http://www.w3.org/2000/svg"
 width="400.000000pt" height="400.000000pt" viewBox="0 0 400.000000 400.000000"
 preserveAspectRatio="xMidYMid meet">

<g transform="translate(0.000000,400.000000) scale(0.100000,-0.100000)"
fill="#000000" stroke="none">
<path d="M1775 3950 c-316 -36 -649 -170 -925 -373 -229 -169 -481 -468 -607
-722 -99 -197 -128 -337 -139 -665 -15 -459 54 -770 250 -1118 147 -262 345
-474 606 -649 179 -120 472 -242 680 -282 187 -37 459 -43 642 -16 628 93
1164 491 1438 1067 93 196 143 372 175 618 35 261 39 332 27 425 -7 50 -17
135 -23 190 -26 251 -123 470 -325 740 -208 279 -412 448 -719 597 -142 68
-427 163 -540 178 -108 15 -441 21 -540 10z m345 -420 c52 -5 131 -18 175 -27
86 -18 84 -22 -19 -38 -29 -5 -36 -9 -25 -16 11 -7 8 -9 -10 -9 -29 0 -161
-106 -161 -130 0 -5 -9 -15 -20 -22 -11 -7 -20 -18 -20 -24 0 -6 -9 -19 -20
-29 -11 -10 -20 -25 -20 -33 0 -8 -11 -27 -25 -44 -14 -16 -25 -38 -25 -47 0
-10 -11 -30 -25 -45 -14 -15 -25 -37 -25 -49 0 -13 -7 -32 -15 -43 -8 -12 -22
-50 -31 -85 -10 -35 -23 -71 -30 -79 -7 -9 -20 -41 -28 -72 -8 -31 -19 -65
-25 -76 -6 -11 -8 -22 -4 -25 3 -4 1 -12 -4 -19 -6 -7 -14 -32 -18 -55 -3 -23
-13 -47 -21 -54 -8 -6 -14 -22 -14 -36 0 -13 -9 -50 -20 -83 -11 -33 -19 -63
-18 -67 3 -17 -15 -83 -23 -83 -5 0 -9 -12 -9 -27 0 -36 -19 -103 -29 -103 -4
0 -13 -39 -19 -86 -6 -47 -15 -91 -20 -98 -5 -6 -15 -28 -21 -48 -7 -21 -17
-38 -22 -38 -5 0 -9 -27 -9 -60 0 -45 -4 -60 -14 -60 -9 0 -19 -20 -26 -51
-15 -60 -34 -102 -43 -92 -4 3 -7 -4 -7 -17 0 -33 -41 -120 -57 -120 -7 0 -13
-9 -13 -19 0 -11 -5 -23 -11 -27 -6 -3 -17 -22 -25 -40 -8 -19 -21 -34 -29
-34 -8 0 -15 -8 -15 -19 0 -10 -8 -21 -17 -25 -17 -5 -72 -42 -100 -66 -7 -5
-19 -10 -28 -10 -8 0 -15 -4 -15 -9 0 -5 -24 -11 -52 -14 -79 -7 -243 40 -270
78 -4 5 -12 10 -17 10 -5 0 -18 8 -28 17 -10 10 -38 35 -62 55 -23 21 -51 54
-62 73 -10 19 -18 29 -19 22 0 -7 -4 -11 -10 -7 -5 3 -6 13 -3 22 4 11 3 14
-5 9 -8 -5 -12 1 -12 15 0 12 -3 19 -7 16 -7 -7 -21 25 -54 128 -54 166 -67
414 -33 610 l19 110 9 -62 c7 -47 13 -64 27 -68 11 -4 19 -10 19 -15 0 -19 67
-38 123 -35 60 4 143 42 154 71 3 8 12 14 19 14 8 0 18 8 21 18 4 9 12 22 17
28 6 7 27 31 46 54 19 23 40 47 45 54 6 6 19 27 29 46 11 19 22 37 25 40 4 3
19 32 35 65 16 33 32 62 36 65 3 3 13 19 21 35 9 17 20 39 27 50 6 11 17 34
25 50 8 17 21 44 30 60 14 27 29 62 31 75 1 3 14 25 29 50 16 25 60 99 99 165
38 66 81 135 95 153 13 17 22 32 20 32 -2 0 13 18 35 40 21 23 38 48 38 56 0
9 6 14 13 11 7 -3 22 8 33 24 10 16 25 29 32 29 6 0 12 4 12 9 0 5 9 11 21 14
21 6 18 27 -4 27 -7 0 -6 -4 3 -11 11 -8 8 -9 -13 -4 -17 3 -26 2 -23 -4 3 -5
-6 -12 -20 -15 -29 -8 -183 -160 -229 -227 -65 -94 -156 -243 -196 -316 -23
-43 -48 -85 -55 -94 -8 -8 -14 -18 -14 -22 0 -6 -120 -203 -152 -250 -34 -48
-110 -139 -138 -165 -38 -35 -115 -72 -163 -78 -33 -5 -51 -1 -77 14 -18 12
-37 19 -41 16 -4 -2 -11 6 -15 18 -7 22 -7 22 -15 3 -20 -47 5 66 33 150 89
272 290 547 533 728 155 116 443 245 585 262 19 2 58 9 85 15 48 11 178 26
240 28 17 1 73 -3 125 -8z m187 -76 c-3 -3 -12 -4 -19 -1 -8 3 -5 6 6 6 11 1
17 -2 13 -5z m260 -60 c-3 -3 -12 -4 -19 -1 -8 3 -5 6 6 6 11 1 17 -2 13 -5z
m57 -19 c11 -8 15 -15 9 -15 -7 0 -15 5 -18 10 -3 6 -13 10 -21 10 -8 0 -12
-4 -9 -10 3 -6 -1 -7 -10 -3 -13 5 -14 7 -3 14 18 12 30 11 52 -6z m-87 -1
c-3 -3 -12 -4 -19 -1 -8 3 -5 6 6 6 11 1 17 -2 13 -5z m179 -41 c-6 -6 -36 9
-36 18 0 5 9 4 20 -3 10 -7 18 -14 16 -15z m109 -51 c11 -6 15 -12 8 -12 -6 0
-15 5 -18 10 -4 6 -10 8 -14 6 -4 -3 -13 0 -21 5 -23 14 20 6 45 -9z m90 -62
c3 -6 -1 -7 -9 -4 -18 7 -21 14 -7 14 6 0 13 -4 16 -10z m-2294 -1853 c-10 -9
-11 -8 -5 6 3 10 9 15 12 12 3 -3 0 -11 -7 -18z m58 -121 c-3 -3 -11 5 -18 17
-13 21 -12 21 5 5 10 -10 16 -20 13 -22z m180 -227 c7 10 9 7 8 -12 -2 -20 -5
-23 -15 -14 -7 5 -18 20 -23 31 -10 21 -10 21 6 1 13 -16 17 -17 24 -6z m56
-68 c-10 -16 15 -23 33 -9 15 12 16 11 4 -4 -8 -9 -10 -23 -6 -30 4 -7 -5 -2
-19 11 -23 20 -28 41 -11 41 3 0 3 -4 -1 -9z m125 -127 c0 -3 -13 4 -30 16
-16 12 -30 24 -30 26 0 3 14 -4 30 -16 17 -12 30 -24 30 -26z m117 -40 c-3 -3
-12 -4 -19 -1 -8 3 -5 6 6 6 11 1 17 -2 13 -5z m23 -61 c0 -7 -61 31 -73 46
-7 8 7 2 31 -14 23 -15 42 -30 42 -32z m0 47 c-8 -5 -19 -10 -25 -10 -5 0 -3
5 5 10 8 5 20 10 25 10 6 0 3 -5 -5 -10z m115 -105 c20 -16 20 -16 -1 -6 -12
6 -25 7 -29 3 -5 -4 -5 -2 -2 4 4 7 -6 17 -23 24 -17 7 -33 17 -36 22 -8 12
64 -25 91 -47z m-30 45 c3 -6 -1 -7 -9 -4 -18 7 -21 14 -7 14 6 0 13 -4 16
-10z m140 -89 c-19 -8 -19 -8 3 -15 13 -4 21 -10 19 -12 -2 -3 -16 1 -31 7
-19 9 -23 15 -14 21 7 4 20 7 28 7 10 0 8 -3 -5 -8z m80 -41 c7 -12 -2 -12
-30 0 -19 8 -19 9 2 9 12 1 25 -3 28 -9z"/>
<path d="M501 2254 c0 -11 3 -14 6 -6 3 7 2 16 -1 19 -3 4 -6 -2 -5 -13z"/>
</g>
</svg>
