<?xml version="1.0" standalone="no"?>
<!DOCTYPE svg PUBLIC "-//W3C//DTD SVG 20010904//EN"
 "http://www.w3.org/TR/2001/REC-SVG-20010904/DTD/svg10.dtd">
<svg version="1.0" xmlns="http://www.w3.org/2000/svg"
 width="712.000000pt" height="720.000000pt" viewBox="0 0 712.000000 720.000000"
 preserveAspectRatio="xMidYMid meet">

<g transform="translate(0.000000,720.000000) scale(0.100000,-0.100000)"
fill="#000000" stroke="none">
<path d="M1640 6765 c0 -32 -2 -35 -24 -29 -51 12 -75 -85 -25 -101 11 -4 26
-1 34 5 11 9 15 9 15 1 0 -6 5 -11 10 -11 6 0 10 35 10 85 0 50 -4 85 -10 85
-5 0 -10 -16 -10 -35z m-5 -80 c0 -23 -5 -31 -21 -33 -24 -3 -38 20 -28 50 4
13 13 18 27 16 17 -2 22 -10 22 -33z"/>
<path d="M2190 6765 c0 -32 -2 -35 -24 -29 -51 12 -75 -85 -25 -101 11 -4 26
-1 34 5 11 9 15 9 15 1 0 -6 5 -11 10 -11 6 0 10 35 10 85 0 50 -4 85 -10 85
-5 0 -10 -16 -10 -35z m-5 -80 c0 -23 -5 -31 -21 -33 -24 -3 -38 20 -28 50 4
13 13 18 27 16 17 -2 22 -10 22 -33z"/>
<path d="M2380 6765 c0 -32 -2 -35 -24 -29 -51 12 -75 -85 -25 -101 11 -4 26
-1 34 5 11 9 15 9 15 1 0 -6 5 -11 10 -11 6 0 10 35 10 85 0 50 -4 85 -10 85
-5 0 -10 -16 -10 -35z m-5 -80 c0 -23 -5 -31 -21 -33 -24 -3 -38 20 -28 50 4
13 13 18 27 16 17 -2 22 -10 22 -33z"/>
<path d="M3090 6715 c0 -50 4 -85 10 -85 6 0 10 15 10 33 0 41 12 60 36 55 14
-2 20 -13 22 -46 4 -51 22 -57 22 -6 0 55 -16 77 -51 69 -28 -6 -29 -5 -29 29
0 20 -4 36 -10 36 -6 0 -10 -35 -10 -85z"/>
<path d="M4060 6715 c0 -50 4 -85 10 -85 6 0 10 35 10 85 0 50 -4 85 -10 85
-6 0 -10 -35 -10 -85z"/>
<path d="M340 6710 c0 -47 4 -80 10 -80 6 0 10 13 10 28 0 23 6 30 33 37 25 8
33 16 35 40 4 34 -18 55 -60 55 l-28 0 0 -80z m65 30 c0 -18 -6 -26 -22 -28
-20 -3 -23 1 -23 28 0 27 3 31 23 28 16 -2 22 -10 22 -28z"/>
<path d="M666 6781 c-4 -5 -2 -12 3 -15 5 -4 12 -2 15 3 4 5 2 12 -3 15 -5 4
-12 2 -15 -3z"/>
<path d="M1110 6690 c0 -97 1 -100 23 -99 12 0 16 3 10 6 -9 3 -13 32 -13 93
0 61 4 90 13 93 6 3 2 6 -10 6 -22 1 -23 -2 -23 -99z"/>
<path d="M1206 6769 c-68 -54 1 -176 74 -129 11 7 7 10 -17 10 -39 0 -63 23
-63 59 0 35 28 61 64 61 16 0 25 4 21 10 -10 17 -51 11 -79 -11z"/>
<path d="M2646 6781 c-4 -5 -2 -12 3 -15 5 -4 12 -2 15 3 4 5 2 12 -3 15 -5 4
-12 2 -15 -3z"/>
<path d="M3786 6781 c-4 -7 -5 -15 -2 -18 9 -9 19 4 14 18 -4 11 -6 11 -12 0z"/>
<path d="M4438 6783 c8 -3 12 -32 12 -93 0 -61 -4 -90 -12 -93 -7 -3 -3 -6 10
-6 21 -1 22 2 22 99 0 97 -1 100 -22 99 -13 0 -17 -3 -10 -6z"/>
<path d="M1933 6755 c-23 -43 15 -150 44 -121 4 4 0 12 -10 17 -22 13 -24 69
-2 69 8 0 15 5 15 10 0 6 -6 10 -14 10 -8 0 -16 8 -18 18 -4 15 -5 15 -15 -3z"/>
<path d="M3023 6755 c-23 -43 15 -150 44 -121 4 4 0 12 -10 17 -22 13 -24 69
-2 69 8 0 15 5 15 10 0 6 -6 10 -14 10 -8 0 -16 8 -18 18 -4 15 -5 15 -15 -3z"/>
<path d="M940 6743 c-10 -12 -11 -18 -2 -21 7 -2 12 -21 12 -43 0 -38 21 -62
38 -44 4 4 1 10 -5 12 -17 6 -17 70 -1 75 9 3 8 9 -4 21 -20 20 -19 20 -38 0z"/>
<path d="M460 6685 c0 -30 5 -55 10 -55 6 0 10 18 10 41 0 32 4 42 20 46 11 3
20 9 20 14 0 13 -14 11 -28 -3 -9 -9 -12 -9 -12 0 0 7 -4 12 -10 12 -5 0 -10
-25 -10 -55z"/>
<path d="M552 6724 c-45 -31 -11 -103 43 -90 37 9 52 48 31 81 -19 29 -42 32
-74 9z m63 -23 c10 -31 -5 -52 -34 -49 -26 3 -38 26 -27 54 8 21 53 18 61 -5z"/>
<path d="M670 6686 c0 -64 -7 -86 -26 -86 -8 0 -14 -4 -14 -10 0 -12 20 -13
40 0 18 11 29 150 11 150 -7 0 -11 -21 -11 -54z"/>
<path d="M738 6729 c-12 -6 -18 -22 -18 -45 0 -27 5 -37 24 -46 14 -6 33 -7
43 -3 15 7 13 9 -11 14 -44 9 -45 31 -2 31 29 0 36 4 36 20 0 10 -9 24 -19 30
-24 12 -31 12 -53 -1z m52 -19 c0 -5 -11 -10 -25 -10 -14 0 -25 5 -25 10 0 6
11 10 25 10 14 0 25 -4 25 -10z"/>
<path d="M852 6724 c-12 -8 -22 -25 -22 -38 0 -39 57 -74 75 -46 4 6 -5 10
-20 10 -47 0 -44 61 4 68 11 2 21 8 21 13 0 14 -33 11 -58 -7z"/>
<path d="M1022 6728 c-19 -19 -14 -34 13 -46 33 -15 32 -32 -2 -32 -20 0 -24
-3 -16 -11 7 -7 23 -9 37 -5 34 9 35 43 1 56 -32 12 -32 30 1 30 14 0 23 4 19
10 -8 14 -38 13 -53 -2z"/>
<path d="M1326 6724 c-26 -25 -20 -72 9 -86 41 -18 75 3 75 46 0 51 -50 75
-84 40z m59 -39 c0 -25 -4 -30 -25 -30 -16 0 -26 6 -28 18 -6 30 6 49 30 45
18 -2 23 -9 23 -33z"/>
<path d="M1440 6683 c0 -29 5 -53 10 -53 6 0 10 15 10 33 0 41 12 60 36 55 14
-2 20 -13 22 -46 4 -52 22 -56 22 -4 0 53 -13 67 -60 68 l-40 0 0 -53z"/>
<path d="M1700 6696 c0 -53 21 -77 51 -58 11 7 19 8 19 2 0 -5 5 -10 10 -10 6
0 10 25 10 55 0 65 -17 74 -22 13 -2 -36 -7 -44 -25 -46 -21 -3 -23 1 -23 42
0 25 -4 46 -10 46 -5 0 -10 -20 -10 -44z"/>
<path d="M1842 6724 c-12 -8 -22 -25 -22 -38 0 -39 57 -74 75 -46 4 6 -5 10
-20 10 -47 0 -44 61 4 68 11 2 21 8 21 13 0 14 -33 11 -58 -7z"/>
<path d="M2016 6724 c-25 -25 -20 -72 8 -86 14 -6 33 -7 43 -3 15 7 13 9 -11
14 -44 9 -45 31 -2 31 28 0 36 4 36 18 0 39 -45 55 -74 26z m54 -14 c0 -5 -11
-10 -25 -10 -14 0 -25 5 -25 10 0 6 11 10 25 10 14 0 25 -4 25 -10z"/>
<path d="M2440 6696 c0 -53 21 -77 51 -58 11 7 19 8 19 2 0 -5 5 -10 10 -10 6
0 10 25 10 55 0 65 -17 74 -22 13 -2 -36 -7 -44 -25 -46 -21 -3 -23 1 -23 42
0 25 -4 46 -10 46 -5 0 -10 -20 -10 -44z"/>
<path d="M2560 6683 c0 -29 5 -53 10 -53 6 0 10 16 10 35 0 24 6 39 20 47 28
18 25 25 -10 25 -30 0 -30 -1 -30 -54z"/>
<path d="M2640 6685 c0 -30 5 -55 10 -55 6 0 10 25 10 55 0 30 -4 55 -10 55
-5 0 -10 -25 -10 -55z"/>
<path d="M2700 6685 c0 -64 17 -74 22 -13 2 33 8 44 22 46 24 5 36 -14 36 -55
0 -18 5 -33 11 -33 14 0 6 87 -10 103 -7 7 -18 7 -36 -1 -15 -7 -25 -8 -25 -2
0 6 -4 10 -10 10 -5 0 -10 -25 -10 -55z"/>
<path d="M2836 6724 c-30 -29 -10 -94 28 -94 6 0 18 6 25 13 10 10 12 7 9 -13
-2 -20 -9 -26 -36 -28 -36 -4 -34 -22 3 -22 41 0 55 25 55 96 0 36 -4 64 -10
64 -5 0 -10 -5 -10 -12 0 -9 -3 -9 -12 0 -16 16 -33 15 -52 -4z m59 -39 c0
-25 -4 -30 -25 -30 -16 0 -26 6 -28 18 -6 30 6 49 30 45 18 -2 23 -9 23 -33z"/>
<path d="M3230 6720 c-25 -25 -26 -52 -2 -73 21 -19 57 -22 67 -7 4 6 -6 10
-23 10 -17 0 -32 6 -36 15 -4 12 3 15 34 15 44 0 52 16 24 44 -21 21 -40 20
-64 -4z m55 -10 c4 -6 -7 -10 -25 -10 -18 0 -29 4 -25 10 3 6 15 10 25 10 10
0 22 -4 25 -10z"/>
<path d="M3407 6722 c-26 -28 -22 -70 7 -84 14 -6 33 -7 43 -3 15 7 13 9 -12
14 -25 5 -30 11 -30 36 0 25 4 30 28 33 15 2 25 8 22 13 -10 15 -41 10 -58 -9z"/>
<path d="M3500 6691 c0 -41 3 -51 20 -56 12 -4 27 -1 35 5 11 9 15 9 15 1 0
-6 5 -11 10 -11 6 0 10 25 10 55 0 65 -17 74 -22 13 -2 -36 -7 -44 -25 -46
-21 -3 -23 1 -23 42 0 25 -4 46 -10 46 -5 0 -10 -22 -10 -49z"/>
<path d="M3620 6685 c0 -65 16 -74 22 -12 5 46 1 67 -13 67 -5 0 -9 -25 -9
-55z"/>
<path d="M3655 6730 c-3 -5 1 -10 9 -10 9 0 16 5 16 10 0 6 -4 10 -9 10 -6 0
-13 -4 -16 -10z"/>
<path d="M3700 6685 c0 -65 16 -74 22 -12 5 46 1 67 -13 67 -5 0 -9 -25 -9
-55z"/>
<path d="M3735 6730 c-3 -5 1 -10 9 -10 9 0 16 5 16 10 0 6 -4 10 -9 10 -6 0
-13 -4 -16 -10z"/>
<path d="M3780 6685 c0 -30 5 -55 10 -55 6 0 10 25 10 55 0 30 -4 55 -10 55
-5 0 -10 -25 -10 -55z"/>
<path d="M3852 6724 c-12 -8 -22 -25 -22 -38 0 -39 57 -74 75 -46 4 6 -5 10
-20 10 -47 0 -44 61 4 68 11 2 21 8 21 13 0 14 -33 11 -58 -7z"/>
<path d="M3940 6696 c0 -53 21 -77 51 -58 11 7 19 8 19 2 0 -5 5 -10 10 -10 6
0 10 25 10 55 0 65 -17 74 -22 13 -2 -36 -7 -44 -25 -46 -21 -3 -23 1 -23 42
0 25 -4 46 -10 46 -5 0 -10 -20 -10 -44z"/>
<path d="M4120 6696 c0 -53 21 -77 51 -58 11 7 19 8 19 2 0 -5 5 -10 10 -10 6
0 10 25 10 55 0 65 -17 74 -22 13 -2 -35 -7 -43 -23 -43 -16 0 -21 8 -23 43
-4 55 -22 54 -22 -2z"/>
<path d="M4250 6685 c0 -65 17 -74 22 -12 2 34 7 42 23 42 16 0 21 -8 23 -42
2 -24 7 -43 12 -43 5 0 10 19 12 43 2 34 7 42 23 42 16 0 21 -8 23 -42 2 -24
7 -43 13 -43 14 0 11 74 -5 95 -12 16 -18 17 -39 8 -18 -9 -27 -9 -36 0 -9 9
-16 8 -31 -1 -12 -7 -20 -8 -20 -2 0 5 -4 10 -10 10 -5 0 -10 -25 -10 -55z"/>
<path d="M430 6389 c0 -16 -4 -19 -22 -14 -22 6 -22 6 -4 -9 20 -16 20 -16 0
-32 -18 -15 -18 -15 4 -9 18 5 22 2 22 -14 0 -12 5 -21 10 -21 6 0 10 9 10 21
0 16 4 19 23 14 21 -6 21 -6 3 9 -20 16 -20 16 0 32 18 15 18 15 -3 9 -19 -5
-23 -2 -23 14 0 12 -4 21 -10 21 -5 0 -10 -9 -10 -21z"/>
<path d="M1050 6370 c0 -12 -5 -17 -13 -14 -20 7 -40 -21 -32 -45 4 -14 14
-20 31 -19 22 2 24 7 24 50 0 26 -2 48 -5 48 -3 0 -5 -9 -5 -20z m-3 -36 c8
-21 -13 -42 -28 -27 -13 13 -5 43 11 43 6 0 13 -7 17 -16z"/>
<path d="M581 6333 c1 -27 4 -38 6 -26 2 12 12 24 21 26 15 4 15 5 0 6 -10 0
-18 7 -18 15 0 8 8 17 18 19 13 4 11 5 -5 6 -21 1 -23 -3 -22 -46z"/>
<path d="M1618 6373 c7 -3 16 -2 19 1 4 3 -2 6 -13 5 -11 0 -14 -3 -6 -6z"/>
<path d="M779 6365 c-7 -6 2 -75 10 -75 3 0 6 16 5 35 -1 35 -6 49 -15 40z"/>
<path d="M644 6346 c-9 -23 0 -51 16 -52 9 0 10 1 3 3 -21 7 -15 23 8 23 14 0
19 5 17 17 -4 23 -36 29 -44 9z m36 -6 c0 -5 -7 -10 -15 -10 -8 0 -15 5 -15
10 0 6 7 10 15 10 8 0 15 -4 15 -10z"/>
<path d="M723 6354 c20 -6 23 -24 5 -24 -9 0 -10 -3 -2 -8 6 -4 14 -14 17 -22
4 -8 5 1 4 20 -1 27 -7 35 -22 37 -16 1 -16 1 -2 -3z"/>
<path d="M824 6331 c0 -21 7 -36 16 -38 10 -3 11 -2 3 4 -6 4 -13 22 -16 38
-4 27 -5 27 -3 -4z"/>
<path d="M863 6325 c0 -22 2 -30 4 -17 2 12 2 30 0 40 -3 9 -5 -1 -4 -23z"/>
<path d="M891 6320 c1 -27 3 -29 6 -10 2 14 11 30 20 37 13 10 13 12 -6 10
-17 -1 -21 -7 -20 -37z"/>
<path d="M939 6344 c-16 -19 -1 -48 27 -51 13 -2 11 1 -6 9 l-25 12 28 4 c29
4 33 12 15 30 -16 16 -23 15 -39 -4z m36 -4 c3 -5 -3 -10 -15 -10 -12 0 -18 5
-15 10 3 6 10 10 15 10 5 0 12 -4 15 -10z"/>
<path d="M1238 6353 c6 -2 18 -2 25 0 6 3 1 5 -13 5 -14 0 -19 -2 -12 -5z"/>
<path d="M1308 6353 c6 -2 18 -2 25 0 6 3 1 5 -13 5 -14 0 -19 -2 -12 -5z"/>
<path d="M1968 6353 c7 -3 16 -2 19 1 4 3 -2 6 -13 5 -11 0 -14 -3 -6 -6z"/>
<path d="M1233 6333 c9 -2 23 -2 30 0 6 3 -1 5 -18 5 -16 0 -22 -2 -12 -5z"/>
<path d="M1303 6333 c9 -2 23 -2 30 0 6 3 -1 5 -18 5 -16 0 -22 -2 -12 -5z"/>
<path d="M1438 6323 c6 -2 18 -2 25 0 6 3 1 5 -13 5 -14 0 -19 -2 -12 -5z"/>
<path d="M1618 6323 c7 -3 16 -2 19 1 4 3 -2 6 -13 5 -11 0 -14 -3 -6 -6z"/>
<path d="M1848 6323 c6 -2 18 -2 25 0 6 3 1 5 -13 5 -14 0 -19 -2 -12 -5z"/>
<path d="M700 6311 c0 -10 19 -25 25 -20 1 2 -3 10 -11 17 -8 7 -14 8 -14 3z"/>
<path d="M1238 6293 c6 -2 18 -2 25 0 6 3 1 5 -13 5 -14 0 -19 -2 -12 -5z"/>
<path d="M1308 6293 c6 -2 18 -2 25 0 6 3 1 5 -13 5 -14 0 -19 -2 -12 -5z"/>
<path d="M508 6173 c116 -2 308 -2 425 0 116 1 21 2 -213 2 -234 0 -329 -1
-212 -2z"/>
<path d="M4960 5861 c-207 -67 -360 -238 -388 -436 -26 -180 29 -346 158 -475
l65 -65 3 63 c3 58 1 66 -27 97 -51 59 -59 134 -21 205 l13 25 11 -32 c15 -42
23 -49 31 -24 6 21 39 37 65 32 36 -7 50 -33 50 -93 0 -57 1 -59 33 -72 83
-34 77 -40 77 77 l0 104 -71 23 c-193 62 -276 186 -211 315 l15 30 14 -40 c34
-98 129 -153 348 -200 61 -13 118 -26 128 -30 13 -5 17 -2 17 12 0 51 61 74
100 38 14 -13 20 -31 20 -64 1 -40 5 -49 33 -70 30 -23 32 -27 31 -85 -2 -95
-1 -92 -29 -66 -14 13 -27 21 -30 18 -3 -3 -4 -67 -3 -142 l3 -137 59 48 c69
55 134 146 166 230 35 90 40 248 10 345 -54 180 -193 317 -379 372 -74 22
-219 20 -291 -3z m238 -111 c94 -26 179 -69 220 -111 18 -18 32 -35 33 -38 1
-10 1 -135 0 -156 -1 -16 -5 -13 -18 13 -16 34 -67 78 -118 105 -29 14 -139
49 -197 61 -27 6 -28 8 -28 76 0 82 -3 81 108 50z"/>
<path d="M1325 5229 c-63 -55 -85 -125 -65 -200 13 -48 69 -109 101 -109 18 0
19 9 19 170 0 103 -4 170 -10 170 -5 0 -25 -14 -45 -31z"/>
<path d="M5150 5059 c0 -208 6 -232 57 -237 56 -6 63 18 63 215 0 193 3 186
-79 199 l-41 7 0 -184z"/>
<path d="M4920 4902 c0 -47 24 -82 55 -82 32 0 55 25 55 60 0 25 -6 30 -47 44
-63 21 -63 21 -63 -22z"/>
<path d="M3014 4750 c-35 -14 -64 -59 -64 -99 0 -46 30 -76 120 -121 124 -62
153 -129 86 -196 -28 -28 -42 -34 -75 -34 -48 0 -96 21 -111 49 -18 35 -12 95
15 131 14 19 25 35 25 37 0 11 -40 -1 -58 -17 -18 -17 -22 -32 -22 -84 0 -52
4 -66 23 -84 61 -58 193 -55 259 5 27 24 41 85 27 120 -17 46 -47 70 -131 104
-96 40 -133 77 -124 123 8 43 40 66 90 66 31 0 48 -6 64 -23 26 -28 30 -92 6
-125 -14 -21 -14 -22 5 -22 24 0 61 45 61 73 0 31 -41 85 -74 97 -34 12 -93
12 -122 0z"/>
<path d="M4249 4599 c-16 -16 -19 -34 -19 -114 0 -94 0 -95 25 -95 24 0 24 2
27 93 2 74 6 92 18 92 12 0 16 -18 18 -92 3 -91 3 -93 27 -93 25 0 25 1 25 89
0 91 9 113 35 91 11 -9 15 -35 15 -96 0 -77 2 -84 20 -84 19 0 20 7 20 93 0
128 -6 135 -111 135 -66 0 -85 -4 -100 -19z"/>
<path d="M4547 4609 c-30 -17 -47 -73 -47 -149 0 -68 1 -70 25 -70 18 0 25 5
25 20 0 17 7 20 45 20 38 0 45 -3 45 -20 0 -15 7 -20 25 -20 24 0 25 2 25 69
0 37 -5 82 -11 100 -18 50 -87 76 -132 50z m81 -51 c7 -7 12 -27 12 -45 0 -32
-1 -33 -45 -33 -44 0 -45 1 -45 33 0 38 15 57 45 57 12 0 26 -5 33 -12z"/>
<path d="M4730 4505 l0 -115 25 0 c18 0 25 5 25 20 0 15 7 20 25 20 14 0 29
-8 35 -20 6 -11 20 -20 30 -20 22 0 23 4 11 35 -6 14 -2 28 10 44 11 13 19 39
19 60 -1 64 -38 91 -124 91 l-56 0 0 -115z m128 53 c30 -30 0 -78 -49 -78 -28
0 -29 2 -29 45 0 44 1 45 33 45 18 0 38 -5 45 -12z"/>
<path d="M4955 4595 c-49 -48 -19 -105 61 -114 40 -5 49 -9 49 -26 0 -17 -8
-20 -57 -23 -50 -3 -58 -6 -58 -22 0 -18 7 -20 64 -20 58 0 67 3 86 27 15 19
19 35 15 53 -10 39 -29 52 -84 58 -40 4 -51 8 -51 22 0 23 20 30 81 30 42 0
49 3 49 20 0 18 -7 20 -65 20 -57 0 -69 -3 -90 -25z"/>
<path d="M5130 4601 c0 -15 8 -21 33 -23 l32 -3 3 -92 c2 -84 5 -93 22 -93 17
0 20 9 22 93 l3 92 33 3 c24 2 32 8 32 23 0 17 -8 19 -90 19 -82 0 -90 -2 -90
-19z"/>
<path d="M5362 4592 c-98 -92 0 -249 122 -198 39 16 76 67 76 104 0 38 -30 92
-61 107 -47 25 -102 19 -137 -13z m122 -33 c50 -40 23 -129 -40 -129 -58 0
-95 50 -74 101 20 48 72 61 114 28z"/>
<path d="M5632 4604 c-81 -56 -61 -183 34 -214 44 -15 107 3 102 28 -3 13 -13
16 -45 14 -51 -4 -81 11 -94 45 -22 59 41 120 98 94 25 -12 42 -3 43 21 0 28
-102 37 -138 12z"/>
<path d="M5810 4505 c0 -108 1 -115 20 -115 14 0 20 7 20 24 0 13 8 34 18 46
l18 22 24 -46 c18 -34 31 -46 47 -46 29 0 29 3 -7 67 -16 29 -30 58 -30 64 0
6 14 28 30 49 36 45 37 50 8 50 -16 0 -35 -17 -63 -56 l-40 -56 -3 56 c-3 48
-6 56 -22 56 -19 0 -20 -8 -20 -115z"/>
<path d="M392 4168 c-7 -7 -12 -37 -12 -68 0 -31 5 -61 12 -68 7 -7 37 -12 68
-12 31 0 61 5 68 12 7 7 12 37 12 68 0 31 -5 61 -12 68 -16 16 -120 16 -136 0z
m75 -65 c-3 -10 -5 -2 -5 17 0 19 2 27 5 18 2 -10 2 -26 0 -35z"/>
<path d="M4322 4120 c0 -38 2 -49 8 -35 7 18 8 19 15 3 4 -10 12 -18 18 -18 5
0 2 9 -7 19 -11 12 -14 21 -7 26 6 3 11 12 11 18 0 7 -6 3 -13 -8 -11 -19 -12
-17 -18 15 -5 30 -6 27 -7 -20z"/>
<path d="M606 4144 c-9 -8 -16 -22 -16 -29 0 -19 28 -45 48 -45 12 0 9 4 -8
13 -14 7 -25 21 -25 32 0 11 11 25 25 32 17 9 20 13 8 13 -9 0 -24 -7 -32 -16z"/>
<path d="M683 4115 c0 -27 2 -40 4 -27 3 14 12 22 24 22 11 0 24 -10 29 -22 7
-18 9 -12 8 27 0 28 -3 40 -5 28 -3 -16 -11 -23 -28 -23 -17 0 -25 7 -28 23
-2 12 -4 0 -4 -28z"/>
<path d="M776 4144 c-9 -8 -16 -22 -16 -29 0 -17 27 -45 44 -45 32 0 48 54 24
78 -16 16 -33 15 -52 -4z m49 -29 c0 -23 -5 -30 -19 -30 -28 0 -43 29 -26 50
21 25 45 14 45 -20z"/>
<path d="M861 4113 c1 -27 4 -38 6 -25 5 27 29 29 38 2 3 -11 11 -20 16 -20 6
0 3 10 -5 22 -11 15 -12 25 -5 34 15 18 2 34 -27 34 -22 0 -24 -3 -23 -47z
m42 22 c1 -5 -6 -11 -15 -13 -11 -2 -18 3 -18 13 0 17 30 18 33 0z"/>
<path d="M940 4115 c0 -40 2 -45 23 -44 16 1 18 2 5 6 -13 3 -18 15 -18 39 0
31 3 35 23 32 17 -2 22 -9 22 -35 0 -17 3 -29 7 -26 12 7 9 48 -4 61 -7 7 -22
12 -35 12 -21 0 -23 -5 -23 -45z"/>
<path d="M1036 4148 c-3 -7 -4 -26 -3 -43 2 -23 7 -30 22 -30 17 0 20 7 20 40
0 30 -4 41 -18 43 -9 2 -19 -2 -21 -10z m34 -13 c0 -8 -7 -15 -15 -15 -8 0
-15 7 -15 15 0 8 7 15 15 15 8 0 15 -7 15 -15z m0 -40 c0 -8 -7 -15 -15 -15
-8 0 -15 7 -15 15 0 8 7 15 15 15 8 0 15 -7 15 -15z"/>
<path d="M3695 4150 c-10 -16 6 -32 26 -27 14 4 19 0 19 -16 0 -15 3 -18 11
-10 15 15 1 56 -17 49 -8 -3 -14 -1 -14 4 0 13 -17 13 -25 0z"/>
<path d="M3861 4113 c2 -45 2 -46 8 -13 l6 35 14 -33 c10 -24 16 -30 22 -20 5
7 9 18 9 23 0 6 -4 4 -9 -4 -6 -10 -12 -4 -22 23 -18 50 -29 45 -28 -11z"/>
<path d="M3926 4144 c-8 -22 -8 -26 3 -19 5 3 12 -9 14 -27 3 -26 4 -22 5 15
2 46 -10 63 -22 31z"/>
<path d="M4138 4147 c-7 -21 6 -70 20 -73 7 -1 8 0 2 3 -12 6 -13 50 -1 55 5
2 3 8 -4 15 -10 9 -14 9 -17 0z"/>
<path d="M3995 4127 c17 -13 17 -14 -4 -20 -20 -5 -31 -37 -11 -37 5 0 7 7 4
15 -4 10 0 15 11 15 9 0 14 -4 10 -9 -3 -5 -1 -12 5 -16 5 -3 10 3 10 14 0 31
-11 51 -28 51 -13 0 -13 -2 3 -13z"/>
<path d="M4043 4105 c0 -22 2 -30 4 -17 2 12 2 30 0 40 -3 9 -5 -1 -4 -23z"/>
<path d="M4084 4128 c-4 -6 0 -16 9 -23 22 -16 21 -22 0 -28 -16 -4 -16 -5 -1
-6 24 -2 34 20 15 34 -22 16 -21 22 1 28 15 4 15 5 0 6 -9 0 -20 -4 -24 -11z"/>
<path d="M4193 4133 c-18 -7 -16 -52 3 -60 23 -9 51 23 38 44 -12 19 -23 24
-41 16z m34 -19 c8 -21 -13 -42 -28 -27 -13 13 -5 43 11 43 6 0 13 -7 17 -16z"/>
<path d="M4266 4131 c-4 -5 3 -7 14 -4 23 6 26 13 6 13 -8 0 -17 -4 -20 -9z"/>
<path d="M3670 4120 c0 -5 5 -10 11 -10 5 0 7 5 4 10 -3 6 -8 10 -11 10 -2 0
-4 -4 -4 -10z"/>
<path d="M3721 4094 c0 -11 3 -14 6 -6 3 7 2 16 -1 19 -3 4 -6 -2 -5 -13z"/>
<path d="M4250 4104 c0 -17 27 -37 42 -31 8 4 7 6 -4 6 -9 1 -22 9 -27 19 -6
9 -11 12 -11 6z"/>
<path d="M420 3896 c0 -2 9 -6 20 -9 11 -3 18 -1 14 4 -5 9 -34 13 -34 5z"/>
<path d="M533 3893 c9 -2 23 -2 30 0 6 3 -1 5 -18 5 -16 0 -22 -2 -12 -5z"/>
<path d="M653 3893 c9 -2 23 -2 30 0 6 3 -1 5 -18 5 -16 0 -22 -2 -12 -5z"/>
<path d="M740 3896 c0 -2 9 -6 20 -9 11 -3 18 -1 14 4 -5 9 -34 13 -34 5z"/>
<path d="M888 3893 c12 -2 32 -2 45 0 12 2 2 4 -23 4 -25 0 -35 -2 -22 -4z"/>
<path d="M993 3893 c9 -2 23 -2 30 0 6 3 -1 5 -18 5 -16 0 -22 -2 -12 -5z"/>
<path d="M1235 3890 c-3 -6 1 -7 9 -4 18 7 21 14 7 14 -6 0 -13 -4 -16 -10z"/>
<path d="M1353 3893 c9 -2 25 -2 35 0 9 3 1 5 -18 5 -19 0 -27 -2 -17 -5z"/>
<path d="M4175 3891 c19 -8 19 -8 0 -19 -11 -6 -15 -12 -8 -12 6 0 15 5 18 11
4 6 17 14 29 19 17 7 13 9 -19 9 -29 0 -35 -3 -20 -8z"/>
<path d="M4668 3893 c6 -2 18 -2 25 0 6 3 1 5 -13 5 -14 0 -19 -2 -12 -5z"/>
<path d="M5258 3893 c6 -2 18 -2 25 0 6 3 1 5 -13 5 -14 0 -19 -2 -12 -5z"/>
<path d="M5368 3893 c6 -2 18 -2 25 0 6 3 1 5 -13 5 -14 0 -19 -2 -12 -5z"/>
<path d="M5513 3893 c9 -2 25 -2 35 0 9 3 1 5 -18 5 -19 0 -27 -2 -17 -5z"/>
<path d="M5606 3891 c-4 -5 3 -7 14 -4 23 6 26 13 6 13 -8 0 -17 -4 -20 -9z"/>
<path d="M5733 3893 c9 -2 25 -2 35 0 9 3 1 5 -18 5 -19 0 -27 -2 -17 -5z"/>
<path d="M5833 3893 c9 -2 23 -2 30 0 6 3 -1 5 -18 5 -16 0 -22 -2 -12 -5z"/>
<path d="M5978 3893 c12 -2 30 -2 40 0 9 3 -1 5 -23 4 -22 0 -30 -2 -17 -4z"/>
<path d="M6083 3893 c9 -2 25 -2 35 0 9 3 1 5 -18 5 -19 0 -27 -2 -17 -5z"/>
<path d="M6193 3893 c9 -2 25 -2 35 0 9 3 1 5 -18 5 -19 0 -27 -2 -17 -5z"/>
<path d="M6288 3893 c7 -3 16 -2 19 1 4 3 -2 6 -13 5 -11 0 -14 -3 -6 -6z"/>
<path d="M1476 3881 c-3 -4 6 -6 19 -3 14 2 25 6 25 8 0 8 -39 4 -44 -5z"/>
<path d="M4433 3883 c9 -2 23 -2 30 0 6 3 -1 5 -18 5 -16 0 -22 -2 -12 -5z"/>
<path d="M4909 3881 c10 -7 10 -10 1 -13 -7 -2 3 -4 23 -4 20 0 32 3 26 7 -8
4 -7 8 2 12 8 3 -4 6 -26 6 -26 0 -35 -2 -26 -8z"/>
<path d="M988 3873 c6 -2 18 -2 25 0 6 3 1 5 -13 5 -14 0 -19 -2 -12 -5z"/>
<path d="M1353 3873 c9 -2 25 -2 35 0 9 3 1 5 -18 5 -19 0 -27 -2 -17 -5z"/>
<path d="M4290 3876 c0 -2 8 -10 18 -17 15 -13 16 -12 3 4 -13 16 -21 21 -21
13z"/>
<path d="M4519 3863 c-12 -16 -12 -17 2 -6 9 7 20 9 24 5 5 -4 5 -1 1 6 -9 16
-11 15 -27 -5z"/>
<path d="M4568 3873 c7 -3 16 -2 19 1 4 3 -2 6 -13 5 -11 0 -14 -3 -6 -6z"/>
<path d="M4828 3873 c7 -3 16 -2 19 1 4 3 -2 6 -13 5 -11 0 -14 -3 -6 -6z"/>
<path d="M5258 3873 c7 -3 16 -2 19 1 4 3 -2 6 -13 5 -11 0 -14 -3 -6 -6z"/>
<path d="M5733 3873 c9 -2 25 -2 35 0 9 3 1 5 -18 5 -19 0 -27 -2 -17 -5z"/>
<path d="M6083 3873 c9 -2 25 -2 35 0 9 3 1 5 -18 5 -19 0 -27 -2 -17 -5z"/>
<path d="M6288 3873 c7 -3 16 -2 19 1 4 3 -2 6 -13 5 -11 0 -14 -3 -6 -6z"/>
<path d="M6338 3873 c7 -3 16 -2 19 1 4 3 -2 6 -13 5 -11 0 -14 -3 -6 -6z"/>
<path d="M653 3863 c9 -2 23 -2 30 0 6 3 -1 5 -18 5 -16 0 -22 -2 -12 -5z"/>
<path d="M755 3860 c-16 -7 -17 -9 -3 -9 9 -1 20 4 23 9 7 11 7 11 -20 0z"/>
<path d="M1536 3861 c-4 -5 3 -7 14 -4 23 6 26 13 6 13 -8 0 -17 -4 -20 -9z"/>
<path d="M1597 3863 c-3 -5 5 -8 18 -8 13 0 21 3 18 8 -2 4 -10 7 -18 7 -8 0
-16 -3 -18 -7z"/>
<path d="M1697 3863 c-3 -5 5 -8 18 -8 13 0 21 3 18 8 -2 4 -10 7 -18 7 -8 0
-16 -3 -18 -7z"/>
<path d="M3768 3863 c7 -3 16 -2 19 1 4 3 -2 6 -13 5 -11 0 -14 -3 -6 -6z"/>
<path d="M3898 3863 c7 -3 16 -2 19 1 4 3 -2 6 -13 5 -11 0 -14 -3 -6 -6z"/>
<path d="M3940 3866 c0 -2 9 -6 20 -9 11 -3 18 -1 14 4 -5 9 -34 13 -34 5z"/>
<path d="M4005 3860 c-3 -6 1 -7 9 -4 18 7 21 14 7 14 -6 0 -13 -4 -16 -10z"/>
<path d="M4433 3863 c9 -2 23 -2 30 0 6 3 -1 5 -18 5 -16 0 -22 -2 -12 -5z"/>
<path d="M4668 3863 c6 -2 18 -2 25 0 6 3 1 5 -13 5 -14 0 -19 -2 -12 -5z"/>
<path d="M5050 3866 c0 -2 8 -10 18 -17 15 -13 16 -12 3 4 -13 16 -21 21 -21
13z"/>
<path d="M5608 3858 c5 -5 16 -8 23 -6 8 3 3 7 -10 11 -17 4 -21 3 -13 -5z"/>
<path d="M5824 3848 l-19 -23 23 19 c12 11 22 21 22 23 0 8 -8 2 -26 -19z"/>
<path d="M428 3853 c7 -3 16 -2 19 1 4 3 -2 6 -13 5 -11 0 -14 -3 -6 -6z"/>
<path d="M888 3853 c12 -2 32 -2 45 0 12 2 2 4 -23 4 -25 0 -35 -2 -22 -4z"/>
<path d="M993 3853 c9 -2 23 -2 30 0 6 3 -1 5 -18 5 -16 0 -22 -2 -12 -5z"/>
<path d="M1358 3853 c12 -2 30 -2 40 0 9 3 -1 5 -23 4 -22 0 -30 -2 -17 -4z"/>
<path d="M1770 3856 c0 -2 7 -7 16 -10 8 -3 12 -2 9 4 -6 10 -25 14 -25 6z"/>
<path d="M4812 3844 c-14 -15 -7 -17 22 -5 15 6 16 9 5 13 -8 3 -20 -1 -27 -8z"/>
<path d="M5258 3853 c6 -2 18 -2 25 0 6 3 1 5 -13 5 -14 0 -19 -2 -12 -5z"/>
<path d="M5513 3853 c9 -2 25 -2 35 0 9 3 1 5 -18 5 -19 0 -27 -2 -17 -5z"/>
<path d="M5733 3853 c9 -2 25 -2 35 0 9 3 1 5 -18 5 -19 0 -27 -2 -17 -5z"/>
<path d="M5978 3853 c12 -2 30 -2 40 0 9 3 -1 5 -23 4 -22 0 -30 -2 -17 -4z"/>
<path d="M6088 3853 c12 -2 30 -2 40 0 9 3 -1 5 -23 4 -22 0 -30 -2 -17 -4z"/>
<path d="M6288 3853 c6 -2 18 -2 25 0 6 3 1 5 -13 5 -14 0 -19 -2 -12 -5z"/>
<path d="M643 3843 c15 -2 37 -2 50 0 12 2 0 4 -28 4 -27 0 -38 -2 -22 -4z"/>
<path d="M1237 3839 c7 -7 15 -10 18 -7 3 3 -2 9 -12 12 -14 6 -15 5 -6 -5z"/>
<path d="M3778 3843 c7 -3 16 -2 19 1 4 3 -2 6 -13 5 -11 0 -14 -3 -6 -6z"/>
<path d="M4050 3842 c0 -4 9 -13 20 -20 19 -12 20 -11 8 8 -13 20 -28 27 -28
12z"/>
<path d="M4173 3843 c15 -2 37 -2 50 0 12 2 0 4 -28 4 -27 0 -38 -2 -22 -4z"/>
<path d="M4423 3843 c15 -2 37 -2 50 0 12 2 0 4 -28 4 -27 0 -38 -2 -22 -4z"/>
<path d="M4913 3843 c15 -2 37 -2 50 0 12 2 0 4 -28 4 -27 0 -38 -2 -22 -4z"/>
<path d="M533 3833 c9 -2 23 -2 30 0 6 3 -1 5 -18 5 -16 0 -22 -2 -12 -5z"/>
<path d="M753 3833 c9 -2 25 -2 35 0 9 3 1 5 -18 5 -19 0 -27 -2 -17 -5z"/>
<path d="M1013 3833 c9 -2 23 -2 30 0 6 3 -1 5 -18 5 -16 0 -22 -2 -12 -5z"/>
<path d="M4293 3833 c9 -2 25 -2 35 0 9 3 1 5 -18 5 -19 0 -27 -2 -17 -5z"/>
<path d="M4543 3833 c9 -2 25 -2 35 0 9 3 1 5 -18 5 -19 0 -27 -2 -17 -5z"/>
<path d="M4673 3833 c10 -3 14 -9 10 -16 -5 -9 -3 -9 8 -1 8 6 21 14 29 17 8
3 -3 5 -25 5 -22 0 -32 -2 -22 -5z"/>
<path d="M5283 3833 c9 -2 25 -2 35 0 9 3 1 5 -18 5 -19 0 -27 -2 -17 -5z"/>
<path d="M5723 3833 c15 -2 39 -2 55 0 15 2 2 4 -28 4 -30 0 -43 -2 -27 -4z"/>
<path d="M6313 3833 c9 -2 25 -2 35 0 9 3 1 5 -18 5 -19 0 -27 -2 -17 -5z"/>
<path d="M653 3823 c9 -2 25 -2 35 0 9 3 1 5 -18 5 -19 0 -27 -2 -17 -5z"/>
<path d="M883 3823 c15 -2 39 -2 55 0 15 2 2 4 -28 4 -30 0 -43 -2 -27 -4z"/>
<path d="M1353 3823 c15 -2 37 -2 50 0 12 2 0 4 -28 4 -27 0 -38 -2 -22 -4z"/>
<path d="M1478 3818 c5 -5 16 -8 23 -6 8 3 3 7 -10 11 -17 4 -21 3 -13 -5z"/>
<path d="M1597 3818 c2 -5 10 -8 18 -8 8 0 16 3 18 8 3 4 -5 7 -18 7 -13 0
-21 -3 -18 -7z"/>
<path d="M1697 3818 c2 -5 10 -8 18 -8 8 0 16 3 18 8 3 4 -5 7 -18 7 -13 0
-21 -3 -18 -7z"/>
<path d="M1775 3820 c-16 -7 -17 -9 -3 -9 9 -1 20 4 23 9 7 11 7 11 -20 0z"/>
<path d="M3775 3820 c-16 -7 -17 -9 -3 -9 9 -1 20 4 23 9 7 11 7 11 -20 0z"/>
<path d="M3955 3820 c-16 -7 -17 -9 -3 -9 9 -1 20 4 23 9 7 11 7 11 -20 0z"/>
<path d="M4007 3819 c7 -7 15 -10 18 -7 3 3 -2 9 -12 12 -14 6 -15 5 -6 -5z"/>
<path d="M4918 3823 c12 -2 30 -2 40 0 9 3 -1 5 -23 4 -22 0 -30 -2 -17 -4z"/>
<path d="M5153 3823 c15 -2 39 -2 55 0 15 2 2 4 -28 4 -30 0 -43 -2 -27 -4z"/>
<path d="M5363 3823 c9 -2 25 -2 35 0 9 3 1 5 -18 5 -19 0 -27 -2 -17 -5z"/>
<path d="M5513 3823 c15 -2 37 -2 50 0 12 2 0 4 -28 4 -27 0 -38 -2 -22 -4z"/>
<path d="M5613 3823 c9 -2 25 -2 35 0 9 3 1 5 -18 5 -19 0 -27 -2 -17 -5z"/>
<path d="M5973 3823 c15 -2 37 -2 50 0 12 2 0 4 -28 4 -27 0 -38 -2 -22 -4z"/>
<path d="M6083 3823 c15 -2 37 -2 50 0 12 2 0 4 -28 4 -27 0 -38 -2 -22 -4z"/>
<path d="M6183 3823 c15 -2 39 -2 55 0 15 2 2 4 -28 4 -30 0 -43 -2 -27 -4z"/>
<path d="M1013 3813 c9 -2 23 -2 30 0 6 3 -1 5 -18 5 -16 0 -22 -2 -12 -5z"/>
<path d="M3858 3813 c7 -3 16 -2 19 1 4 3 -2 6 -13 5 -11 0 -14 -3 -6 -6z"/>
<path d="M443 3803 c9 -2 25 -2 35 0 9 3 1 5 -18 5 -19 0 -27 -2 -17 -5z"/>
<path d="M653 3803 c9 -2 25 -2 35 0 9 3 1 5 -18 5 -19 0 -27 -2 -17 -5z"/>
<path d="M4428 3803 c12 -2 30 -2 40 0 9 3 -1 5 -23 4 -22 0 -30 -2 -17 -4z"/>
<path d="M5283 3803 c9 -2 25 -2 35 0 9 3 1 5 -18 5 -19 0 -27 -2 -17 -5z"/>
<path d="M6313 3803 c9 -2 25 -2 35 0 9 3 1 5 -18 5 -19 0 -27 -2 -17 -5z"/>
<path d="M1013 3793 c9 -2 25 -2 35 0 9 3 1 5 -18 5 -19 0 -27 -2 -17 -5z"/>
<path d="M460 3646 c0 -2 9 -6 20 -9 11 -3 18 -1 14 4 -5 9 -34 13 -34 5z"/>
<path d="M884 3639 c-3 -6 1 -17 10 -25 9 -8 11 -9 6 -2 -14 17 -12 26 8 31
15 4 15 5 0 6 -9 0 -20 -4 -24 -10z"/>
<path d="M1980 3641 c0 -6 4 -13 10 -16 6 -3 7 1 4 9 -7 18 -14 21 -14 7z"/>
<path d="M2100 3640 c0 -5 5 -10 11 -10 5 0 7 5 4 10 -3 6 -8 10 -11 10 -2 0
-4 -4 -4 -10z"/>
<path d="M2314 3639 c-3 -6 -1 -16 5 -22 9 -9 11 -8 6 5 -4 11 0 18 12 21 15
4 16 5 1 6 -9 0 -20 -4 -24 -10z"/>
<path d="M2638 3643 c7 -3 16 -2 19 1 4 3 -2 6 -13 5 -11 0 -14 -3 -6 -6z"/>
<path d="M3018 3643 c6 -2 18 -2 25 0 6 3 1 5 -13 5 -14 0 -19 -2 -12 -5z"/>
<path d="M3720 3646 c0 -2 9 -6 20 -9 11 -3 18 -1 14 4 -5 9 -34 13 -34 5z"/>
<path d="M4158 3643 c7 -3 16 -2 19 1 4 3 -2 6 -13 5 -11 0 -14 -3 -6 -6z"/>
<path d="M5240 3645 c0 -5 5 -17 10 -25 5 -8 10 -10 10 -5 0 6 -5 17 -10 25
-5 8 -10 11 -10 5z"/>
<path d="M5360 3641 c0 -6 4 -13 10 -16 6 -3 7 1 4 9 -7 18 -14 21 -14 7z"/>
<path d="M5574 3639 c-3 -6 -1 -16 5 -22 9 -9 11 -8 6 5 -4 11 0 18 12 21 15
4 16 5 1 6 -9 0 -20 -4 -24 -10z"/>
<path d="M5888 3643 c6 -2 18 -2 25 0 6 3 1 5 -13 5 -14 0 -19 -2 -12 -5z"/>
<path d="M6278 3643 c7 -3 16 -2 19 1 4 3 -2 6 -13 5 -11 0 -14 -3 -6 -6z"/>
<path d="M635 3620 c-3 -6 1 -7 9 -4 18 7 21 14 7 14 -6 0 -13 -4 -16 -10z"/>
<path d="M678 3623 c7 -3 16 -2 19 1 4 3 -2 6 -13 5 -11 0 -14 -3 -6 -6z"/>
<path d="M1110 3626 c0 -2 9 -6 20 -9 11 -3 20 -1 20 4 0 5 -9 9 -20 9 -11 0
-20 -2 -20 -4z"/>
<path d="M1175 3620 c-3 -6 1 -7 9 -4 18 7 21 14 7 14 -6 0 -13 -4 -16 -10z"/>
<path d="M1226 3621 c-4 -5 3 -7 14 -4 23 6 26 13 6 13 -8 0 -17 -4 -20 -9z"/>
<path d="M1286 3622 c-2 -4 4 -8 14 -8 10 0 16 4 14 8 -3 4 -9 8 -14 8 -5 0
-11 -4 -14 -8z"/>
<path d="M1386 3622 c-2 -4 4 -8 14 -8 10 0 16 4 14 8 -3 4 -9 8 -14 8 -5 0
-11 -4 -14 -8z"/>
<path d="M1446 3621 c-4 -5 3 -7 14 -4 23 6 26 13 6 13 -8 0 -17 -4 -20 -9z"/>
<path d="M1506 3621 c-4 -5 3 -7 14 -4 23 6 26 13 6 13 -8 0 -17 -4 -20 -9z"/>
<path d="M1578 3623 c7 -3 16 -2 19 1 4 3 -2 6 -13 5 -11 0 -14 -3 -6 -6z"/>
<path d="M1626 3622 c-2 -4 4 -8 14 -8 10 0 16 4 14 8 -3 4 -9 8 -14 8 -5 0
-11 -4 -14 -8z"/>
<path d="M1678 3623 c7 -3 16 -2 19 1 4 3 -2 6 -13 5 -11 0 -14 -3 -6 -6z"/>
<path d="M1716 3621 c-3 -5 2 -15 12 -22 15 -13 16 -12 4 3 -10 13 -10 17 0
21 9 4 9 6 1 6 -6 1 -14 -3 -17 -8z"/>
<path d="M2396 3623 c6 -4 14 -15 17 -23 5 -11 6 -9 4 4 -1 11 -9 21 -17 23
-10 3 -11 2 -4 -4z"/>
<path d="M2506 3622 c-2 -4 4 -8 14 -8 10 0 16 4 14 8 -3 4 -9 8 -14 8 -5 0
-11 -4 -14 -8z"/>
<path d="M2565 3620 c-3 -6 1 -7 9 -4 18 7 21 14 7 14 -6 0 -13 -4 -16 -10z"/>
<path d="M2690 3626 c0 -2 9 -6 20 -9 11 -3 18 -1 14 4 -5 9 -34 13 -34 5z"/>
<path d="M2756 3621 c-4 -5 3 -7 14 -4 23 6 26 13 6 13 -8 0 -17 -4 -20 -9z"/>
<path d="M2808 3623 c7 -3 16 -2 19 1 4 3 -2 6 -13 5 -11 0 -14 -3 -6 -6z"/>
<path d="M3184 3615 c-13 -32 23 -63 40 -36 4 5 -3 7 -14 4 -16 -4 -20 0 -20
17 0 17 4 21 20 17 11 -3 18 -1 14 4 -8 14 -34 11 -40 -6z"/>
<path d="M3260 3626 c0 -2 7 -7 16 -10 8 -3 12 -2 9 4 -6 10 -25 14 -25 6z"/>
<path d="M3895 3620 c-3 -6 1 -7 9 -4 18 7 21 14 7 14 -6 0 -13 -4 -16 -10z"/>
<path d="M3938 3623 c7 -3 16 -2 19 1 4 3 -2 6 -13 5 -11 0 -14 -3 -6 -6z"/>
<path d="M4188 3623 c7 -3 16 -2 19 1 4 3 -2 6 -13 5 -11 0 -14 -3 -6 -6z"/>
<path d="M4318 3623 c7 -3 16 -2 19 1 4 3 -2 6 -13 5 -11 0 -14 -3 -6 -6z"/>
<path d="M4364 3615 c-13 -32 23 -63 40 -36 4 5 -3 7 -14 4 -16 -4 -20 0 -20
17 0 17 4 21 20 17 11 -3 18 -1 14 4 -8 14 -34 11 -40 -6z"/>
<path d="M4438 3623 c7 -3 16 -2 19 1 4 3 -2 6 -13 5 -11 0 -14 -3 -6 -6z"/>
<path d="M4480 3626 c0 -2 9 -6 20 -9 11 -3 18 -1 14 4 -5 9 -34 13 -34 5z"/>
<path d="M4546 3622 c-2 -4 4 -8 14 -8 10 0 16 4 14 8 -3 4 -9 8 -14 8 -5 0
-11 -4 -14 -8z"/>
<path d="M4650 3626 c0 -2 7 -7 16 -10 8 -3 12 -2 9 4 -6 10 -25 14 -25 6z"/>
<path d="M4700 3626 c0 -2 9 -6 20 -9 11 -3 18 -1 14 4 -5 9 -34 13 -34 5z"/>
<path d="M4766 3622 c-2 -4 4 -8 14 -8 10 0 16 4 14 8 -3 4 -9 8 -14 8 -5 0
-11 -4 -14 -8z"/>
<path d="M4890 3626 c0 -2 7 -7 16 -10 8 -3 12 -2 9 4 -6 10 -25 14 -25 6z"/>
<path d="M4938 3623 c7 -3 16 -2 19 1 4 3 -2 6 -13 5 -11 0 -14 -3 -6 -6z"/>
<path d="M4975 3619 c-11 -16 -1 -19 13 -3 7 8 8 14 3 14 -5 0 -13 -5 -16 -11z"/>
<path d="M5636 3621 c-4 -5 3 -7 14 -4 23 6 26 13 6 13 -8 0 -17 -4 -20 -9z"/>
<path d="M5770 3626 c0 -2 7 -7 16 -10 8 -3 12 -2 9 4 -6 10 -25 14 -25 6z"/>
<path d="M5826 3622 c-2 -4 4 -8 15 -8 10 0 19 4 19 8 0 4 -6 8 -14 8 -8 0
-17 -4 -20 -8z"/>
<path d="M5895 3620 c-16 -7 -17 -9 -3 -9 9 -1 20 4 23 9 7 11 7 11 -20 0z"/>
<path d="M5944 3615 c-13 -32 23 -63 40 -36 4 5 -3 7 -14 4 -16 -4 -20 0 -20
17 0 17 4 21 20 17 11 -3 18 -1 14 4 -8 14 -34 11 -40 -6z"/>
<path d="M6010 3626 c0 -2 9 -6 20 -9 11 -3 18 -1 14 4 -5 9 -34 13 -34 5z"/>
<path d="M6068 3623 c7 -3 16 -2 19 1 4 3 -2 6 -13 5 -11 0 -14 -3 -6 -6z"/>
<path d="M6386 3621 c-4 -5 3 -7 14 -4 23 6 26 13 6 13 -8 0 -17 -4 -20 -9z"/>
<path d="M6446 3621 c-4 -5 3 -7 14 -4 23 6 26 13 6 13 -8 0 -17 -4 -20 -9z"/>
<path d="M6520 3626 c0 -2 7 -7 16 -10 8 -3 12 -2 9 4 -6 10 -25 14 -25 6z"/>
<path d="M475 3610 c-16 -7 -17 -9 -3 -9 9 -1 20 4 23 9 7 11 7 11 -20 0z"/>
<path d="M2643 3614 c21 -7 23 -31 2 -37 -11 -4 -10 -4 2 -3 25 2 23 40 -2 43
-16 1 -16 1 -2 -3z"/>
<path d="M3735 3610 c-16 -7 -17 -9 -3 -9 9 -1 20 4 23 9 7 11 7 11 -20 0z"/>
<path d="M4153 3609 c9 -5 17 -14 17 -19 0 -5 -8 -11 -17 -13 -16 -4 -16 -5
-1 -6 9 0 20 4 23 9 8 13 -12 40 -29 40 -6 0 -3 -5 7 -11z"/>
<path d="M6285 3610 c-16 -7 -17 -9 -3 -9 9 -1 20 4 23 9 7 11 7 11 -20 0z"/>
<path d="M528 3603 c6 -2 18 -2 25 0 6 3 1 5 -13 5 -14 0 -19 -2 -12 -5z"/>
<path d="M575 3600 c-3 -5 -3 -14 0 -20 8 -13 35 -13 35 0 0 5 -7 7 -15 4 -8
-4 -15 -1 -15 4 0 6 8 13 18 15 15 4 15 5 0 6 -9 0 -20 -3 -23 -9z"/>
<path d="M1058 3603 c6 -2 18 -2 25 0 6 3 1 5 -13 5 -14 0 -19 -2 -12 -5z"/>
<path d="M1104 3590 c1 -16 46 -28 46 -12 0 6 -9 8 -19 5 -11 -3 -21 1 -24 9
-3 9 -4 8 -3 -2z"/>
<path d="M1562 3593 c2 -10 12 -19 23 -20 16 -1 16 -1 3 3 -10 3 -18 9 -18 14
0 5 8 11 18 13 12 3 11 5 -6 6 -17 1 -23 -4 -20 -16z"/>
<path d="M2103 3599 c-29 -11 -30 -19 -2 -12 12 4 25 0 30 -8 5 -8 9 -9 9 -4
0 23 -15 32 -37 24z"/>
<path d="M3018 3603 c7 -3 16 -2 19 1 4 3 -2 6 -13 5 -11 0 -14 -3 -6 -6z"/>
<path d="M3788 3603 c6 -2 18 -2 25 0 6 3 1 5 -13 5 -14 0 -19 -2 -12 -5z"/>
<path d="M3835 3600 c-3 -5 -3 -14 0 -20 8 -13 35 -13 35 0 0 5 -7 7 -15 4 -8
-4 -15 -1 -15 4 0 6 8 13 18 15 15 4 15 5 0 6 -9 0 -20 -3 -23 -9z"/>
<path d="M4302 3593 c2 -10 12 -19 23 -20 16 -1 16 -1 3 3 -25 8 -22 22 5 27
18 4 17 5 -6 6 -22 1 -28 -3 -25 -16z"/>
<path d="M4828 3603 c6 -2 18 -2 25 0 6 3 1 5 -13 5 -14 0 -19 -2 -12 -5z"/>
<path d="M5310 3601 c0 -7 -4 -9 -10 -6 -6 4 -7 -1 -3 -11 6 -15 7 -15 15 1 6
9 7 19 4 22 -3 4 -6 1 -6 -6z"/>
<path d="M1973 3593 c9 -2 23 -2 30 0 6 3 -1 5 -18 5 -16 0 -22 -2 -12 -5z"/>
<path d="M2047 3593 c-4 -3 -7 -11 -7 -17 0 -6 5 -5 12 2 6 6 9 14 7 17 -3 3
-9 2 -12 -2z"/>
<path d="M5233 3593 c9 -2 23 -2 30 0 6 3 -1 5 -18 5 -16 0 -22 -2 -12 -5z"/>
<path d="M5353 3593 c9 -2 23 -2 30 0 6 3 -1 5 -18 5 -16 0 -22 -2 -12 -5z"/>
<path d="M528 3578 c5 -5 16 -8 23 -6 8 3 3 7 -10 11 -17 4 -21 3 -13 -5z"/>
<path d="M637 3579 c7 -7 15 -10 18 -7 3 3 -2 9 -12 12 -14 6 -15 5 -6 -5z"/>
<path d="M980 3578 c0 -9 -6 -19 -12 -21 -10 -4 -10 -6 0 -6 14 -1 28 26 18
36 -3 4 -6 -1 -6 -9z"/>
<path d="M1058 3578 c5 -5 16 -8 23 -6 8 3 3 7 -10 11 -17 4 -21 3 -13 -5z"/>
<path d="M1177 3579 c7 -7 15 -10 18 -7 3 3 -2 9 -12 12 -14 6 -15 5 -6 -5z"/>
<path d="M1227 3579 c7 -7 15 -10 18 -7 3 3 -2 9 -12 12 -14 6 -15 5 -6 -5z"/>
<path d="M1395 3580 c-16 -7 -17 -9 -3 -9 9 -1 20 4 23 9 7 11 7 11 -20 0z"/>
<path d="M1447 3579 c7 -7 15 -10 18 -7 3 3 -2 9 -12 12 -14 6 -15 5 -6 -5z"/>
<path d="M2370 3579 c0 -5 9 -9 20 -9 11 0 20 2 20 4 0 2 -9 6 -20 9 -11 3
-20 1 -20 -4z"/>
<path d="M2567 3579 c7 -7 15 -10 18 -7 3 3 -2 9 -12 12 -14 6 -15 5 -6 -5z"/>
<path d="M2705 3580 c-16 -7 -17 -9 -3 -9 9 -1 20 4 23 9 7 11 7 11 -20 0z"/>
<path d="M2757 3579 c7 -7 15 -10 18 -7 3 3 -2 9 -12 12 -14 6 -15 5 -6 -5z"/>
<path d="M3080 3578 c0 -9 -6 -19 -12 -21 -10 -4 -10 -6 0 -6 14 -1 28 26 18
36 -3 4 -6 -1 -6 -9z"/>
<path d="M3788 3578 c5 -5 16 -8 23 -6 8 3 3 7 -10 11 -17 4 -21 3 -13 -5z"/>
<path d="M3897 3579 c7 -7 15 -10 18 -7 3 3 -2 9 -12 12 -14 6 -15 5 -6 -5z"/>
<path d="M4495 3580 c-16 -7 -17 -9 -3 -9 9 -1 20 4 23 9 7 11 7 11 -20 0z"/>
<path d="M4637 3578 c2 -5 10 -8 18 -8 8 0 16 3 18 8 3 4 -5 7 -18 7 -13 0
-21 -3 -18 -7z"/>
<path d="M4715 3580 c-16 -7 -17 -9 -3 -9 9 -1 20 4 23 9 7 11 7 11 -20 0z"/>
<path d="M4828 3578 c5 -5 16 -8 23 -6 8 3 3 7 -10 11 -17 4 -21 3 -13 -5z"/>
<path d="M5630 3580 c0 -6 7 -10 15 -10 8 0 15 2 15 4 0 2 -7 6 -15 10 -8 3
-15 1 -15 -4z"/>
<path d="M5835 3579 l-20 -8 20 -1 20 -1 -20 -9 c-18 -8 -18 -9 -2 -9 10 -1
20 6 24 14 7 21 2 24 -22 14z"/>
<path d="M6025 3580 c-16 -7 -17 -9 -3 -9 9 -1 20 4 23 9 7 11 7 11 -20 0z"/>
<path d="M6448 3578 c5 -5 16 -8 23 -6 8 3 3 7 -10 11 -17 4 -21 3 -13 -5z"/>
<path d="M888 3573 c7 -3 16 -2 19 1 4 3 -2 6 -13 5 -11 0 -14 -3 -6 -6z"/>
<path d="M1718 3573 c7 -3 16 -2 19 1 4 3 -2 6 -13 5 -11 0 -14 -3 -6 -6z"/>
<path d="M2318 3573 c6 -2 18 -2 25 0 6 3 1 5 -13 5 -14 0 -19 -2 -12 -5z"/>
<path d="M4438 3573 c7 -3 16 -2 19 1 4 3 -2 6 -13 5 -11 0 -14 -3 -6 -6z"/>
<path d="M4978 3573 c7 -3 16 -2 19 1 4 3 -2 6 -13 5 -11 0 -14 -3 -6 -6z"/>
<path d="M5578 3573 c6 -2 18 -2 25 0 6 3 1 5 -13 5 -14 0 -19 -2 -12 -5z"/>
<path d="M5888 3573 c6 -2 18 -2 25 0 6 3 1 5 -13 5 -14 0 -19 -2 -12 -5z"/>
<path d="M2568 3553 c7 -3 16 -2 19 1 4 3 -2 6 -13 5 -11 0 -14 -3 -6 -6z"/>
<path d="M3820 2375 l0 -875 1290 0 1290 0 0 105 0 105 -24 -6 c-13 -3 -27 -1
-30 5 -4 6 -2 11 3 11 6 0 11 7 11 15 0 8 9 15 20 15 18 0 20 7 20 85 0 47 -4
85 -9 85 -5 0 -11 -5 -13 -11 -3 -9 -9 -9 -24 -1 -15 8 -24 8 -31 1 -8 -8 -17
-8 -31 0 -18 9 -21 7 -31 -19 -10 -29 -12 -30 -70 -30 l-61 0 2 45 c1 25 6 45
10 45 4 0 8 7 8 15 0 8 -4 15 -10 15 -18 0 -11 28 8 32 10 3 19 12 19 21 0 12
-4 14 -19 6 -17 -9 -18 -4 -18 61 0 68 1 70 25 70 16 0 25 6 25 16 0 12 -6 15
-25 10 -14 -4 -25 -2 -25 3 0 12 56 25 70 16 21 -13 60 4 60 26 0 11 14 34 30
51 46 45 40 58 -22 52 -72 -8 -78 -10 -79 -36 -1 -20 -2 -21 -6 -3 -10 45 -12
46 -34 34 -17 -9 -20 -8 -17 3 4 10 37 14 137 16 l132 3 -3 69 c-1 39 -3 70
-4 70 -1 0 -21 -7 -44 -15 -26 -9 -78 -15 -131 -15 l-89 0 0 69 c0 46 4 71 13
75 10 5 10 7 0 12 -17 8 -17 84 0 84 26 0 55 -29 50 -50 -3 -12 0 -20 7 -20 7
0 10 7 6 15 -6 16 22 35 42 28 6 -3 12 -12 13 -21 0 -14 2 -13 9 3 5 14 1 29
-16 51 -24 32 -50 122 -39 133 4 3 12 6 18 7 7 0 20 2 30 2 24 3 21 22 -4 22
-11 0 -18 4 -14 10 4 6 15 6 30 0 16 -6 25 -6 25 0 0 6 -12 15 -26 20 -19 7
-25 16 -22 33 3 19 9 22 53 22 44 0 50 -3 55 -25 5 -19 1 -28 -14 -37 -20 -11
-19 -12 12 -13 17 0 32 -4 32 -8 0 -5 -9 -8 -20 -8 -10 1 -19 -3 -20 -9 0 -5
10 -10 22 -10 23 0 23 2 26 139 2 120 0 141 -15 158 -15 17 -15 21 -3 28 10 7
11 10 3 10 -17 0 -16 15 2 34 24 23 19 26 -45 26 -51 0 -60 -3 -60 -17 0 -38
13 -63 31 -63 14 0 19 -7 19 -25 0 -14 -4 -25 -10 -25 -5 0 -10 -7 -10 -15 0
-9 -10 -15 -26 -15 -24 0 -25 3 -19 28 5 15 8 36 8 47 0 48 -3 57 -18 52 -8
-4 -17 -2 -20 3 -4 6 1 10 9 10 9 0 16 5 16 10 0 6 -33 10 -80 10 l-79 0 -3
-82 -3 -83 -133 0 c-74 0 -151 2 -173 4 l-39 3 0 79 c0 64 -3 79 -15 79 -11 0
-15 -11 -15 -40 0 -45 -11 -51 -34 -18 -16 22 -16 22 -16 -15 0 -34 2 -37 19
-27 29 15 31 13 31 -25 l0 -35 -105 -2 c-58 -1 -122 -2 -142 -2 l-38 -1 3 43
c4 53 -9 54 -34 3 -10 -22 -22 -37 -26 -35 -5 3 -8 39 -8 80 l0 74 -31 0 c-27
0 -30 -2 -19 -15 10 -12 7 -14 -17 -11 -41 5 -106 -7 -111 -22 -6 -19 87 -16
94 3 4 8 10 15 14 15 11 0 42 -62 34 -69 -3 -3 -70 -8 -149 -11 -122 -4 -146
-8 -164 -24 -12 -11 -21 -17 -22 -15 -9 38 -8 123 1 134 11 13 7 15 -25 15
l-37 0 6 -62 7 -63 -25 50 -25 50 0 -42 -1 -43 -40 0 c-22 0 -40 -4 -40 -9 0
-6 9 -8 20 -6 11 2 22 0 25 -6 4 -5 -14 -9 -39 -9 -34 0 -46 4 -46 15 0 8 -4
15 -10 15 -5 0 -9 -6 -7 -12 1 -8 -11 -14 -32 -16 -28 -3 -33 -1 -27 14 5 14
2 16 -26 10 -24 -4 -29 -3 -18 4 11 7 11 10 2 10 -7 0 -15 -7 -18 -15 -4 -8
-14 -15 -23 -14 -10 0 -11 2 -3 6 6 2 12 11 12 19 0 8 3 13 8 13 20 -3 32 2
32 16 0 12 16 15 82 15 95 0 101 8 8 12 -36 1 -68 7 -72 12 -6 8 -11 7 -16 -2
-7 -10 -15 -10 -36 -2 -23 9 -26 13 -16 25 11 13 7 15 -29 15 l-41 0 0 -44 c0
-55 -16 -69 -78 -68 -33 0 -41 -2 -27 -8 11 -4 23 -6 27 -4 4 3 9 1 12 -4 3
-5 -16 -9 -41 -11 -40 -2 -45 0 -39 15 6 17 6 17 -12 1 -24 -22 -87 -24 -78
-2 3 9 0 15 -9 15 -9 0 -15 10 -15 25 0 20 5 25 28 26 15 0 21 3 15 6 -7 2
-13 11 -13 19 0 9 -4 12 -10 9 -5 -3 -10 1 -10 9 0 9 -5 16 -10 16 -7 0 -7 -8
1 -22 10 -18 8 -24 -7 -35 -18 -13 -19 -11 -22 21 l-3 36 -65 0 c-63 0 -65 -1
-60 -22 3 -13 3 -18 0 -12 -3 8 -17 9 -41 3 -42 -9 -55 -5 -46 16 4 11 -2 15
-23 14 -16 0 -23 -3 -16 -6 17 -7 15 -23 -3 -23 -8 0 -15 7 -15 15 0 8 -4 15
-10 15 -5 0 -10 -9 -10 -20 0 -11 -5 -20 -11 -20 -6 0 -8 9 -4 20 4 11 2 20
-4 20 -6 0 -11 -10 -11 -22 l-1 -23 -18 23 c-22 25 -67 31 -57 7 3 -8 1 -15
-4 -15 -6 0 -10 7 -10 15 0 8 -7 15 -15 15 -13 0 -15 -104 -15 -875z m2390
855 c0 -5 -5 -10 -11 -10 -5 0 -7 5 -4 10 3 6 8 10 11 10 2 0 4 -4 4 -10z
m144 1 c7 -11 -14 -20 -31 -13 -7 2 -13 8 -13 13 0 12 37 12 44 0z m-2214 -66
c0 -23 -4 -25 -42 -25 -39 0 -40 -1 -22 -15 18 -13 17 -14 -18 -15 -27 0 -38
4 -38 15 0 11 -12 15 -50 15 -27 0 -50 4 -50 9 0 5 -3 16 -6 25 -5 14 8 16
110 16 l116 0 0 -25z m2078 -23 c3 -16 -1 -19 -17 -15 -21 5 -27 23 -14 37 12
11 28 0 31 -22z m-878 -27 c0 -15 -6 -25 -14 -25 -11 0 -12 5 -3 25 15 31 17
31 17 0z m-1335 5 c-3 -5 -22 -10 -41 -10 -19 0 -34 5 -34 10 0 6 18 10 41 10
24 0 38 -4 34 -10z m1140 0 c-3 -5 -19 -10 -36 -10 -16 0 -29 5 -29 10 0 6 16
10 36 10 21 0 33 -4 29 -10z m101 -3 c4 -4 -14 -7 -39 -7 -26 0 -47 5 -47 10
0 11 75 8 86 -3z m-196 -18 c0 -5 -7 -9 -15 -9 -15 0 -20 12 -9 23 8 8 24 -1
24 -14z m-963 -81 c-3 -8 -6 -5 -6 6 -1 11 2 17 5 13 3 -3 4 -12 1 -19z m64
-1 c-10 -9 -11 -8 -5 6 3 10 9 15 12 12 3 -3 0 -11 -7 -18z m26 1 c-3 -8 -6
-5 -6 6 -1 11 2 17 5 13 3 -3 4 -12 1 -19z m1521 -106 c2 -34 7 -62 12 -62 6
0 10 -20 10 -45 0 -44 0 -45 -34 -45 -21 0 -36 -6 -39 -15 -8 -18 0 -22 41
-20 21 0 32 -4 32 -13 0 -8 -5 -10 -12 -6 -10 6 -10 4 0 -7 20 -22 14 -36 -18
-34 -16 1 -27 -2 -24 -7 10 -16 -9 -8 -22 10 -12 15 -13 16 -14 0 0 -9 -3 -24
-7 -33 -5 -15 0 -17 45 -13 l50 5 -1 -44 c-1 -24 -5 -43 -9 -43 -5 0 -8 -16
-8 -35 0 -19 -4 -35 -10 -35 -5 0 -10 14 -10 30 0 27 -3 30 -31 30 -23 0 -30
-4 -26 -14 5 -12 2 -12 -21 0 -19 10 -29 10 -39 2 -10 -8 -17 -8 -25 0 -18 18
-24 15 -38 -18 -12 -29 -15 -30 -72 -30 l-59 0 2 43 c1 23 7 48 13 56 8 11 8
15 -1 18 -17 6 -17 33 0 33 13 0 28 39 42 103 5 24 2 27 -20 27 -24 0 -25 -2
-13 -22 18 -33 18 -49 3 -64 -22 -23 -25 -17 -25 51 0 63 1 65 25 65 16 0 25
6 25 15 0 9 -9 15 -25 15 -14 0 -25 5 -25 10 0 6 3 9 8 9 4 -1 31 -1 60 0 41
1 54 5 58 19 13 39 28 62 46 68 10 3 18 14 18 25 0 21 -18 23 -89 10 -30 -6
-51 -5 -63 3 -15 9 -21 8 -28 -4 -8 -13 -10 -13 -10 2 0 14 12 18 73 21 39 2
113 3 162 2 l90 -1 3 -62z m-476 26 c6 2 18 0 27 -3 14 -6 14 -8 -3 -20 -18
-14 -18 -17 15 -89 23 -52 40 -76 53 -78 11 -2 21 -9 24 -15 2 -9 -10 -14 -40
-15 l-43 -1 38 -4 c40 -5 48 -29 9 -27 -28 2 -27 -2 3 -42 17 -23 26 -49 29
-86 3 -29 2 -45 0 -35 -6 20 -34 23 -34 4 0 -7 -5 -18 -11 -24 -9 -9 -23 2
-55 44 -24 31 -44 61 -44 67 -1 6 -11 -7 -23 -30 -31 -57 -77 -114 -93 -114
-7 0 -15 9 -19 19 -4 14 -11 18 -23 14 -15 -6 -15 -5 -3 10 7 9 9 17 4 17 -5
0 -18 6 -28 14 -19 14 -19 15 0 36 14 16 20 36 20 69 0 43 2 46 28 47 25 1 25
1 2 -3 -20 -4 -25 -10 -25 -35 0 -29 1 -30 18 -15 24 22 93 13 85 -12 -4 -14
-3 -14 6 -1 16 22 13 30 -8 30 -11 0 -23 5 -26 10 -3 6 0 10 9 10 8 0 21 3 29
6 10 4 21 -4 31 -23 l15 -28 1 29 c0 16 -8 35 -17 42 -14 10 -15 13 -4 14 11
0 10 4 -5 16 -14 11 -16 17 -6 21 10 4 10 8 0 20 -10 12 -9 18 6 29 11 7 23
11 28 7 14 -8 -12 40 -26 49 -8 5 -7 11 1 19 10 10 16 5 27 -22 18 -40 21 -26
5 20 -15 42 -33 39 -49 -9 -7 -22 -17 -40 -22 -40 -4 0 -8 -5 -8 -10 0 -6 -9
-30 -21 -55 -20 -43 -23 -45 -65 -45 -32 0 -44 4 -44 15 0 10 10 15 33 15 31
0 34 3 76 95 24 52 48 95 53 95 5 0 6 5 3 10 -3 6 -1 10 4 10 6 0 11 -4 11
-10 0 -5 4 -10 10 -10 5 0 7 8 4 18 -5 14 -3 14 11 -3 9 -11 21 -19 27 -17z
m-1197 13 c11 -4 35 -4 53 1 45 12 52 3 13 -16 -18 -10 -41 -14 -56 -10 -15 4
-25 2 -25 -5 0 -6 9 -11 19 -11 23 0 30 -10 37 -45 5 -29 -12 -33 -42 -10 -10
8 -27 15 -37 15 -9 0 -25 9 -34 19 -15 19 -39 19 -28 1 3 -4 -2 -10 -10 -14
-26 -9 -17 24 14 55 29 29 58 35 96 20z m1015 -21 c0 -13 -6 -20 -17 -19 -11
0 -13 3 -5 6 6 2 12 11 12 19 0 8 2 14 5 14 3 0 5 -9 5 -20z m-623 -22 c-3 -7
-5 -2 -5 12 0 14 2 19 5 13 2 -7 2 -19 0 -25z m140 10 c-3 -8 -6 -5 -6 6 -1
11 2 17 5 13 3 -3 4 -12 1 -19z m1368 -17 c3 -6 -4 -15 -15 -21 -20 -11 -21
-10 -10 9 12 23 16 25 25 12z m-1757 -90 c-2 -11 -11 -8 -33 12 -23 21 -26 26
-12 27 9 0 16 3 16 8 -1 4 -1 16 1 27 1 13 6 7 16 -20 8 -22 13 -46 12 -54z
m645 77 c28 -13 35 -32 16 -43 -6 -4 -8 -12 -6 -19 3 -8 -20 -11 -79 -11 -77
0 -84 2 -84 20 0 11 5 27 10 35 8 13 12 12 27 -4 17 -17 17 -18 1 -13 -10 3
-20 2 -23 -3 -4 -6 5 -10 19 -10 28 0 32 10 16 41 -10 17 -7 19 33 19 24 0 55
-6 70 -12z m77 -26 c0 -7 -5 -10 -12 -6 -7 4 -8 3 -4 -5 4 -6 12 -9 17 -6 5 4
9 1 9 -4 0 -17 -37 -13 -44 5 -10 25 -7 30 14 30 11 0 20 -6 20 -14z m30 -2
c0 -5 -4 -10 -10 -10 -5 0 -10 5 -10 10 0 6 5 10 10 10 6 0 10 -4 10 -10z
m1078 -10 c-14 -22 -24 -19 -15 5 4 8 11 15 17 15 6 0 6 -7 -2 -20z m-1721
-20 c-1 -22 -17 -28 -17 -7 0 12 9 27 16 27 2 0 2 -9 1 -20z m42 3 c6 -10 11
-12 11 -5 0 17 50 16 50 -2 0 -9 -10 -13 -32 -11 -49 4 -50 4 -44 14 4 5 0 12
-6 14 -10 4 -10 6 -1 6 7 1 17 -7 22 -16z m128 -5 c1 -13 -5 -17 -21 -16 -16
2 -22 7 -19 19 6 23 39 20 40 -3z m61 6 c6 -1 12 3 12 9 0 7 7 4 14 -6 11 -14
15 -15 19 -5 3 7 6 -2 6 -20 1 -20 -3 -31 -9 -27 -6 4 -8 10 -5 15 6 10 -51
19 -66 9 -8 -5 -8 -8 0 -13 6 -4 16 -4 23 0 7 4 8 3 4 -4 -4 -7 -16 -12 -27
-12 -14 0 -19 7 -19 28 0 33 8 44 24 35 6 -4 17 -8 24 -9z m1297 6 c3 -6 -1
-7 -9 -4 -18 7 -21 14 -7 14 6 0 13 -4 16 -10z m145 1 c-1 -17 -20 -33 -34
-28 -25 10 -19 32 9 33 14 1 25 -1 25 -5z m-2013 -50 c14 -8 15 -10 3 -11 -22
0 -40 20 -39 45 0 19 1 19 9 -2 5 -12 17 -26 27 -32z m789 -32 c5 0 8 -12 7
-26 -3 -32 13 -54 33 -46 12 4 12 7 -2 17 -26 19 -2 56 36 56 34 0 40 -17 11
-28 -16 -6 -17 -9 -5 -19 8 -8 15 -9 19 -3 3 6 13 10 21 10 19 0 18 -35 -3
-51 -11 -10 -14 -10 -9 -1 5 8 0 12 -13 12 -14 0 -19 -5 -15 -15 7 -18 0 -19
-27 -5 -17 9 -19 7 -18 -17 0 -23 2 -25 8 -9 7 18 8 18 14 3 5 -13 13 -16 31
-11 34 8 86 -29 86 -62 0 -38 18 -28 31 18 11 42 9 54 -21 151 -7 24 -6 27 15
27 31 0 35 -20 35 -167 l0 -123 -29 0 c-27 0 -29 3 -26 30 4 26 1 30 -21 30
-14 0 -22 -4 -19 -10 3 -5 2 -10 -3 -10 -6 0 -9 -8 -8 -17 0 -12 -7 -19 -22
-21 -21 -3 -22 -2 -10 17 9 15 9 24 2 31 -8 8 -20 2 -44 -20 -33 -31 -54 -35
-120 -24 -34 6 -36 8 -32 40 2 19 8 32 12 29 5 -3 12 0 16 6 4 7 3 9 -3 6 -6
-4 -11 8 -12 26 0 18 -2 39 -4 47 -1 8 0 15 3 16 3 0 15 6 28 13 17 9 22 21
22 51 0 47 10 77 20 60 4 -6 11 -12 16 -11z m-746 -11 c0 -18 2 -20 9 -9 7 11
17 12 40 5 l31 -9 -29 -44 c-17 -25 -28 -48 -25 -52 2 -4 -6 -11 -18 -15 -13
-4 -24 -2 -26 5 -2 6 -8 8 -14 5 -6 -4 -1 7 11 23 17 22 20 37 15 57 -5 20 -9
24 -15 15 -6 -10 -10 -9 -15 5 -4 11 -2 21 7 27 22 14 29 11 29 -13z m-70 -13
c10 -12 10 -15 -4 -15 -9 0 -16 7 -16 15 0 8 2 15 4 15 2 0 9 -7 16 -15z
m1960 1 c0 -3 -4 -8 -10 -11 -5 -3 -10 -1 -10 4 0 6 5 11 10 11 6 0 10 -2 10
-4z m101 -6 c28 -16 24 -38 -6 -32 -29 5 -44 -20 -25 -43 14 -17 10 -28 -6
-17 -6 4 -14 26 -17 49 -6 34 -4 42 10 46 10 3 19 5 21 6 2 0 12 -4 23 -9z
m-91 -24 c0 -11 -19 -15 -25 -6 -3 5 1 10 9 10 9 0 16 -2 16 -4z m-1444 -28
c3 -4 1 -8 -5 -8 -15 0 -44 -59 -37 -76 3 -8 15 -14 26 -14 17 0 20 -6 20 -49
0 -52 -17 -79 -27 -42 -3 12 -12 21 -20 21 -10 0 -12 8 -8 33 5 24 2 37 -9 46
-15 13 -23 81 -10 94 9 9 64 5 70 -5z m1541 -30 c-3 -8 -6 -5 -6 6 -1 11 2 17
5 13 3 -3 4 -12 1 -19z m-2030 -57 c-1 -12 -7 -17 -19 -13 -14 3 -16 7 -7 18
16 20 28 17 26 -5z m2009 2 c26 -25 28 -43 3 -43 -11 0 -17 5 -14 10 3 6 1 10
-4 10 -6 0 -11 -4 -11 -8 0 -5 -6 -9 -12 -9 -7 0 -32 -3 -55 -6 -38 -5 -43 -4
-43 14 0 21 -1 21 59 23 25 1 47 8 49 14 5 15 5 15 28 -5z m76 -15 c-6 -40
-39 -39 -40 2 -1 25 3 29 22 28 18 -2 21 -7 18 -30z m-1855 -170 c-3 -8 -6 -5
-6 6 -1 11 2 17 5 13 3 -3 4 -12 1 -19z m272 -52 c-7 -8 -118 -10 -126 -3 -3
4 24 7 62 7 38 0 66 -2 64 -4z m112 -6 c15 -9 19 -22 19 -70 0 -41 -4 -60 -12
-61 -10 0 -10 -2 0 -6 7 -3 12 -23 12 -51 -1 -44 -2 -46 -15 -27 -8 11 -19 25
-24 32 -6 6 -6 13 -2 15 5 2 12 31 15 66 6 54 4 63 -11 69 -27 9 -43 24 -37
34 7 12 31 11 55 -1z m614 0 c3 -5 -1 -10 -9 -10 -9 0 -16 -7 -16 -15 0 -8 -9
-15 -20 -15 -23 0 -26 -10 -8 -28 8 -8 8 -12 1 -12 -6 0 -16 7 -23 15 -12 14
-15 13 -35 -5 -22 -20 -29 -46 -53 -190 -9 -53 -10 -51 -10 41 0 93 1 96 37
149 20 30 47 60 61 67 30 15 67 17 75 3z m545 -23 l0 -32 -47 4 c-27 2 -57 9
-67 17 -16 11 -23 11 -35 1 -12 -9 -13 -9 -7 1 4 7 1 12 -8 12 -18 0 -19 -2
-10 -24 3 -9 17 -16 31 -16 l25 0 -23 -20 c-15 -12 -17 -18 -8 -14 10 3 20 0
24 -6 9 -15 3 -21 -31 -24 -17 -2 -30 -10 -32 -20 -4 -16 11 -21 56 -17 25 2
31 -26 7 -35 -18 -7 -10 -24 11 -24 8 0 15 8 15 18 1 15 2 15 6 -1 3 -10 -3
-27 -12 -37 -14 -16 -15 -22 -2 -51 15 -38 12 -59 -9 -59 -8 0 -14 11 -15 28
-1 32 -17 75 -19 52 -1 -8 -2 -30 -2 -48 -1 -50 -15 -25 -20 36 -5 55 4 74 21
45 6 -10 10 -13 11 -8 0 25 -17 34 -51 29 -30 -5 -40 -13 -56 -48 -17 -34 -26
-41 -51 -43 -46 -3 -56 16 -49 101 6 85 43 170 82 188 13 6 22 15 19 19 -3 5
51 9 120 9 l126 0 0 -33z m-1555 -16 c3 -5 1 -12 -4 -15 -5 -3 -11 1 -15 9 -6
16 9 21 19 6z m-52 -41 c41 -35 51 -38 44 -9 -3 13 -1 19 6 16 19 -6 20 -53 2
-71 -9 -9 -13 -20 -10 -26 3 -5 2 -10 -4 -10 -5 0 -12 -13 -16 -30 -8 -36 -15
-41 -43 -33 -32 8 -28 33 6 33 19 0 23 3 13 9 -7 5 -11 13 -7 19 3 5 -1 15 -8
21 -12 10 -14 9 -12 -6 4 -26 -23 -43 -52 -32 -38 15 -45 11 -40 -21 4 -26 1
-30 -19 -30 -23 0 -23 1 -9 22 21 30 20 48 -2 48 -11 0 -18 8 -19 20 -2 25 12
26 21 3 6 -15 8 -15 16 -3 7 10 10 11 10 3 0 -7 5 -13 10 -13 6 0 10 11 10 24
0 25 16 44 22 26 1 -5 17 -11 35 -14 28 -3 31 -1 23 18 -5 13 -16 21 -29 20
-22 -1 -25 5 -15 30 9 24 29 19 67 -14z m331 8 c7 -29 8 -53 1 -46 -11 10 -23
68 -15 68 4 0 10 -10 14 -22z m63 -10 c-3 -8 -6 -5 -6 6 -1 11 2 17 5 13 3 -3
4 -12 1 -19z m-162 -23 c1 -17 4 -40 9 -53 5 -16 2 -31 -10 -49 -9 -15 -13
-28 -7 -30 5 -2 8 -17 7 -33 -1 -17 2 -30 7 -30 5 0 9 -12 9 -27 l1 -28 14 30
c7 17 14 24 14 16 1 -9 9 -12 26 -9 19 4 25 1 25 -13 0 -11 7 -19 15 -19 8 0
12 6 10 13 -3 6 -1 26 3 42 l9 30 13 -25 c8 -14 15 -31 16 -38 1 -8 6 -17 10
-20 4 -4 5 0 2 9 -4 9 -2 22 3 30 6 9 9 -1 9 -31 0 -25 -4 -40 -8 -35 -8 12
-161 14 -178 3 -14 -10 -94 12 -94 26 0 24 21 86 30 86 5 0 10 -10 12 -22 3
-18 6 -15 12 14 6 27 4 49 -8 78 -19 49 -20 64 -3 57 8 -3 14 1 14 9 0 8 -4
14 -9 14 -5 0 -4 9 2 21 17 30 45 20 45 -16z m1315 25 c0 -5 -2 -10 -4 -10 -3
0 -8 5 -11 10 -3 6 -1 10 4 10 6 0 11 -4 11 -10z m59 -49 l-1 -46 -10 35 c-5
19 -14 39 -19 45 -15 15 -10 23 11 18 17 -4 20 -13 19 -52z m81 21 c-9 -51
-20 -69 -30 -51 -9 13 3 54 22 76 15 19 16 17 8 -25z m70 25 c0 -4 6 -5 13 0
6 4 40 9 74 10 60 2 62 1 65 -25 4 -32 21 -32 28 0 3 13 9 18 12 12 4 -6 5
-20 2 -31 -5 -20 -12 -21 -88 -19 -45 1 -87 5 -94 10 -6 4 -12 3 -12 -1 0 -5
-11 -10 -25 -11 -21 -1 -25 2 -25 26 0 16 2 31 5 33 8 8 45 5 45 -4z m-790 -7
c0 -5 -7 -10 -16 -10 -8 0 -12 5 -9 10 3 6 10 10 16 10 5 0 9 -4 9 -10z m86
-46 c1 -16 4 -45 8 -64 6 -26 5 -31 -3 -20 -10 13 -12 13 -21 0 -8 -13 -11
-12 -24 5 -15 20 -20 32 -17 48 0 4 -3 7 -9 7 -23 0 -9 39 18 48 38 14 47 10
48 -24z m-666 10 c0 -8 -4 -12 -10 -9 -5 3 -10 10 -10 16 0 5 5 9 10 9 6 0 10
-7 10 -16z m838 -69 c2 -33 0 -45 -8 -40 -6 4 -9 13 -6 21 3 8 -1 14 -8 14 -8
0 -16 10 -20 23 -11 40 -8 47 17 38 18 -7 23 -17 25 -56z m-124 39 c26 -10 20
-37 -6 -28 -29 8 -31 10 -23 23 7 13 8 13 29 5z m671 -23 c15 -1 16 -4 7 -13
-14 -14 -16 -48 -2 -48 5 0 7 7 3 15 -4 12 3 11 30 -5 23 -14 40 -34 47 -55 7
-22 19 -35 35 -39 16 -4 25 -14 25 -26 0 -10 5 -22 11 -26 6 -3 9 -19 7 -35
-4 -27 -4 -28 14 -12 17 15 18 14 18 -15 0 -18 5 -32 11 -32 5 0 7 -4 4 -10
-3 -6 -50 -10 -106 -10 -78 0 -99 3 -99 14 0 8 11 17 25 20 30 8 34 36 5 36
-12 0 -20 -7 -21 -17 0 -11 -3 -13 -6 -5 -8 20 -33 15 -26 -5 4 -12 -1 -10
-14 6 l-20 24 -31 -23 c-18 -13 -32 -30 -32 -37 0 -7 -4 -13 -10 -13 -14 0
-13 77 2 86 6 4 31 6 55 5 l43 -1 -21 42 c-21 41 -34 84 -46 154 -5 31 -4 31
34 28 21 -2 47 -3 58 -3z m-1774 -98 c10 -11 10 -14 2 -9 -7 4 -13 2 -13 -3 0
-6 -4 -11 -9 -11 -5 0 -7 9 -4 20 6 24 7 24 24 3z m1376 -50 c-3 -10 -5 -2 -5
17 0 19 2 27 5 18 2 -10 2 -26 0 -35z m53 17 c0 -23 -4 -30 -20 -30 -14 0 -20
7 -20 23 0 27 7 37 27 37 8 0 13 -12 13 -30z m-455 -20 c-8 -16 -21 -30 -30
-32 -10 -2 -12 -7 -5 -18 8 -12 12 -13 19 -2 13 21 23 -15 11 -38 -17 -32 -10
-46 10 -21 18 21 20 21 20 4 0 -10 5 -24 11 -30 7 -7 6 -12 -5 -16 -9 -4 -16
-1 -16 5 0 9 -3 9 -12 0 -18 -18 -35 -14 -41 9 -3 12 -10 18 -16 15 -6 -4 -8
-13 -4 -21 3 -10 -1 -15 -13 -15 -25 0 -31 66 -8 91 10 11 14 26 10 41 -3 13
-3 17 0 11 7 -16 64 24 64 44 0 8 4 11 10 8 6 -4 4 -17 -5 -35z m210 10 c-3
-5 3 -10 14 -10 11 0 22 -4 25 -9 4 -5 -3 -7 -14 -4 -14 4 -20 0 -20 -12 0
-14 -3 -15 -14 -6 -15 12 -10 51 6 51 5 0 6 -4 3 -10z m-1305 -34 c0 -19 -4
-23 -20 -19 -11 3 -21 13 -21 22 -1 14 -2 14 -6 -1 -3 -11 -13 -17 -27 -16
-17 2 -22 7 -18 20 3 14 14 18 48 18 40 0 44 -2 44 -24z m56 1 c-3 -12 -5 -23
-5 -24 -1 -2 -9 5 -19 15 -22 20 -21 27 7 29 16 1 20 -3 17 -20z m112 -3 c2
-17 -2 -21 -22 -21 -15 0 -26 3 -26 8 0 5 -10 9 -22 8 -22 0 -22 -1 -3 -9 19
-8 19 -9 -2 -9 -18 -1 -23 5 -23 25 0 24 2 25 48 22 39 -2 48 -7 50 -24z m947
6 c3 -5 1 -10 -4 -10 -6 0 -11 5 -11 10 0 6 2 10 4 10 3 0 8 -4 11 -10z
m-1085 -20 c0 -5 -2 -10 -4 -10 -3 0 -8 5 -11 10 -3 6 -1 10 4 10 6 0 11 -4
11 -10z m1164 1 c3 -5 26 -12 51 -15 25 -4 45 -12 45 -18 0 -6 -8 -8 -17 -5
-10 3 -32 10 -50 15 -26 8 -31 8 -26 -4 3 -8 1 -14 -4 -14 -14 0 -53 30 -53
41 0 12 47 12 54 0z m333 -13 c-3 -8 -6 -5 -6 6 -1 11 2 17 5 13 3 -3 4 -12 1
-19z m80 -10 c-3 -7 -5 -2 -5 12 0 14 2 19 5 13 2 -7 2 -19 0 -25z m-1164 -2
l57 3 0 -35 c0 -24 -5 -34 -15 -34 -8 0 -15 6 -15 14 0 26 -20 28 -30 4 -9
-20 -9 -18 -4 10 3 20 2 32 -5 32 -6 0 -11 -10 -11 -22 0 -32 -13 -49 -29 -39
-8 6 -11 17 -6 32 5 19 4 21 -4 9 -7 -10 -11 -11 -11 -2 0 21 -16 13 -28 -15
l-12 -28 6 30 c7 38 23 58 38 47 6 -4 37 -7 69 -6z m1127 10 c0 -2 -7 -7 -16
-10 -8 -3 -12 -2 -9 4 6 10 25 14 25 6z m-120 -57 c-36 -10 -50 -10 -50 0 0
12 29 18 55 12 18 -4 18 -6 -5 -12z m-1080 -9 c0 -5 -4 -10 -10 -10 -5 0 -10
5 -10 10 0 6 5 10 10 10 6 0 10 -4 10 -10z m-424 -175 l23 -25 -33 0 c-30 0
-33 -3 -34 -29 0 -23 3 -28 15 -24 8 3 19 0 23 -7 4 -7 13 -9 19 -5 9 5 9 10
0 21 -18 22 -2 16 21 -8 11 -12 23 -18 27 -15 3 4 1 7 -5 7 -7 0 -12 4 -12 9
0 6 12 6 30 1 33 -10 47 1 25 20 -13 10 -13 14 0 27 20 19 19 33 -2 33 -38 0
-1 12 48 15 58 4 122 -12 115 -30 -2 -5 -9 -9 -16 -7 -6 1 -14 -7 -17 -18 -6
-22 -41 -28 -59 -10 -14 14 -38 -14 -30 -36 4 -10 13 -13 26 -9 11 3 20 2 20
-4 0 -5 8 -12 18 -14 31 -8 -212 -17 -260 -9 -27 4 -28 6 -28 73 l0 69 31 0
c21 0 40 -9 55 -25z m54 16 c0 -5 -11 -11 -25 -13 -17 -4 -25 -1 -25 8 0 8 11
14 25 14 14 0 25 -4 25 -9z m278 -20 c-29 -38 -33 -38 -36 -1 -2 27 0 30 29
30 l31 0 -24 -29z m133 12 c10 -11 10 -14 2 -9 -8 4 -13 1 -13 -8 0 -9 -4 -16
-9 -16 -5 0 -8 8 -6 18 2 9 4 20 4 25 1 11 7 9 22 -10z m79 13 c0 -2 -7 -7
-16 -10 -8 -3 -12 -2 -9 4 6 10 25 14 25 6z m47 -8 c0 -7 4 -22 8 -32 7 -16 5
-18 -17 -14 -17 3 -25 1 -22 -6 2 -6 -5 -17 -16 -24 -17 -10 -20 -10 -20 5 0
10 3 28 6 41 5 17 10 20 19 12 10 -8 15 -6 20 9 7 23 21 28 22 9z m813 -58 l0
-70 -145 0 c-99 0 -145 3 -145 11 0 6 -6 9 -12 6 -51 -21 -48 -23 -48 45 0 36
3 68 7 71 3 4 82 7 175 7 l168 0 0 -70z m853 63 c-7 -2 -19 -2 -25 0 -7 3 -2
5 12 5 14 0 19 -2 13 -5z m135 -4 c-2 -6 -7 -10 -11 -10 -4 1 -18 1 -32 1 -14
0 -25 5 -25 10 0 6 16 10 36 10 21 0 34 -4 32 -11z m-2298 -25 c0 -2 -9 -4
-21 -4 -11 0 -18 4 -14 10 5 8 35 3 35 -6z m2125 -34 c8 0 19 8 24 18 12 19
13 14 15 -45 1 -42 0 -43 -31 -43 l-33 0 1 58 c1 31 4 47 6 35 2 -13 11 -23
18 -23z m-1718 14 c2 -5 -6 -19 -17 -30 -12 -10 -32 -30 -46 -43 -13 -13 -27
-21 -30 -18 -4 4 7 20 25 36 17 16 31 39 31 51 0 15 5 20 17 18 9 -2 18 -8 20
-14z m506 9 c-7 -2 -21 -2 -30 0 -10 3 -4 5 12 5 17 0 24 -2 18 -5z m-639 -38
c-6 -31 4 -33 15 -2 7 19 9 16 9 -15 0 -36 -10 -49 -22 -29 -4 5 -19 3 -37 -6
-17 -8 -33 -12 -37 -8 -9 8 27 35 46 35 8 0 12 6 9 14 -3 7 0 19 6 25 15 15
16 14 11 -14z m1471 15 c3 -5 1 -10 -4 -10 -6 0 -11 5 -11 10 0 6 2 10 4 10 3
0 8 -4 11 -10z m599 -16 c3 -9 6 -24 6 -35 0 -17 -8 -19 -75 -19 -41 0 -75 2
-75 4 0 8 70 48 98 56 39 12 39 12 46 -6z m-1849 -11 c3 -10 1 -19 -4 -21 -6
-2 -9 -8 -5 -13 9 -14 -26 -23 -39 -10 -9 10 -8 16 7 26 10 8 23 12 29 8 6 -3
7 -1 3 6 -4 6 -12 8 -18 5 -7 -4 -8 -2 -4 4 10 17 23 15 31 -5z m433 -6 c3
-14 -4 -17 -46 -17 -31 0 -54 5 -61 14 -11 12 -5 15 31 19 63 6 72 4 76 -16z
m-128 4 c0 -15 -29 -21 -100 -20 -36 0 -77 -3 -92 -6 -20 -4 -28 -1 -28 9 0
11 14 16 48 19 99 7 172 7 172 -2z m718 -8 c-10 -2 -18 -13 -18 -24 0 -21 -25
-25 -50 -9 -13 8 -13 10 1 10 9 0 19 7 23 15 3 9 17 15 33 14 17 -1 21 -3 11
-6z m275 -1 c4 8 6 7 6 -4 1 -19 -33 -26 -43 -9 -9 14 6 22 20 10 8 -7 14 -6
17 3z m33 -29 c-11 -11 -19 6 -11 24 8 17 8 17 12 0 3 -10 2 -21 -1 -24z m74
12 c0 -13 -6 -22 -15 -22 -8 0 -15 7 -15 14 0 8 -4 11 -10 8 -5 -3 -10 0 -10
7 0 8 11 14 25 14 19 0 25 -5 25 -21z m42 10 c5 -6 8 -5 8 3 0 6 5 12 10 12 6
0 9 -3 9 -7 -3 -19 3 -22 27 -13 16 7 23 7 19 0 -3 -6 0 -11 7 -11 7 -1 -3 -5
-22 -8 -19 -4 -40 -3 -46 1 -7 5 -18 7 -25 6 -7 -2 -15 5 -17 15 -4 18 17 20
30 2z m-1772 -10 c0 -8 -9 -15 -20 -15 -22 0 -27 15 -7 23 21 9 27 7 27 -8z
m640 -5 c0 -5 -4 -10 -10 -10 -5 0 -10 5 -10 10 0 6 5 10 10 10 6 0 10 -4 10
-10z m765 1 c17 -7 15 -9 -13 -13 -22 -3 -32 -1 -32 9 0 14 15 16 45 4z m-875
-11 c0 -5 -7 -10 -15 -10 -8 0 -15 5 -15 10 0 6 7 10 15 10 8 0 15 -4 15 -10z"/>
<path d="M4000 3165 c0 -8 7 -11 20 -8 11 3 20 8 20 12 0 4 -9 7 -20 8 -11 1
-20 -4 -20 -12z"/>
<path d="M5580 2940 c0 -11 6 -23 14 -26 8 -3 20 -19 26 -35 18 -41 44 -35 44
11 1 29 -2 35 -20 34 -16 0 -20 4 -16 18 3 14 -1 18 -22 18 -19 0 -26 -5 -26
-20z"/>
<path d="M5585 2890 c3 -5 8 -10 11 -10 2 0 4 5 4 10 0 6 -5 10 -11 10 -5 0
-7 -4 -4 -10z"/>
<path d="M5524 2868 c-9 -14 -2 -16 26 -8 25 6 25 6 3 12 -13 3 -26 2 -29 -4z"/>
<path d="M5588 2863 c17 -7 15 -29 -4 -58 l-16 -25 -26 20 c-29 24 -33 22 -25
-9 4 -16 11 -21 24 -18 15 4 19 -1 20 -21 1 -26 2 -26 8 3 4 20 12 30 24 29
14 -2 17 7 17 42 0 36 -3 44 -17 43 -11 0 -13 -3 -5 -6z"/>
<path d="M5550 2814 c0 -17 22 -14 28 4 2 7 -3 12 -12 12 -9 0 -16 -7 -16 -16z"/>
<path d="M5630 2815 c0 -10 9 -14 25 -13 14 1 25 8 25 15 0 7 -11 13 -25 13
-15 0 -25 -6 -25 -15z"/>
<path d="M5453 2813 c-7 -3 -13 -12 -13 -21 0 -15 2 -15 17 1 18 18 16 27 -4
20z"/>
<path d="M5630 2699 c0 -5 5 -7 10 -4 6 3 10 8 10 11 0 2 -4 4 -10 4 -5 0 -10
-5 -10 -11z"/>
<path d="M5551 2643 c-6 -27 -13 -58 -17 -70 -5 -20 -3 -23 20 -23 19 0 26 5
26 20 0 11 -4 20 -10 20 -5 0 -7 21 -3 50 7 63 -2 65 -16 3z"/>
<path d="M5613 2595 c-26 -28 -15 -45 27 -45 33 0 40 3 40 20 0 15 -7 20 -27
21 l-28 1 30 8 30 8 -30 0 c-16 1 -36 -5 -42 -13z"/>
<path d="M5211 2760 c0 -14 4 -32 9 -40 8 -12 10 -12 9 5 0 11 -4 29 -9 40 -8
18 -9 18 -9 -5z"/>
<path d="M5240 2765 c0 -5 5 -17 10 -25 5 -8 10 -10 10 -5 0 6 -5 17 -10 25
-5 8 -10 11 -10 5z"/>
<path d="M5288 2553 c7 -3 16 -2 19 1 4 3 -2 6 -13 5 -11 0 -14 -3 -6 -6z"/>
<path d="M5057 2534 c-3 -4 -2 -15 4 -25 9 -17 11 -17 29 -2 11 10 20 21 20
25 0 10 -44 11 -53 2z"/>
<path d="M4775 2840 c-3 -5 1 -10 9 -10 9 0 16 5 16 10 0 6 -4 10 -9 10 -6 0
-13 -4 -16 -10z"/>
<path d="M4735 2625 c4 -16 8 -36 8 -42 0 -7 5 -13 10 -13 12 0 0 61 -14 75
-9 7 -10 2 -4 -20z"/>
<path d="M4705 2620 c3 -5 8 -10 11 -10 2 0 4 5 4 10 0 6 -5 10 -11 10 -5 0
-7 -4 -4 -10z"/>
<path d="M4730 2509 c0 -5 5 -7 10 -4 6 3 10 8 10 11 0 2 -4 4 -10 4 -5 0 -10
-5 -10 -11z"/>
<path d="M5900 2570 c-9 -6 -10 -10 -3 -10 6 0 15 5 18 10 8 12 4 12 -15 0z"/>
<path d="M5520 2170 c0 -5 5 -10 10 -10 6 0 10 5 10 10 0 6 -4 10 -10 10 -5 0
-10 -4 -10 -10z"/>
<path d="M4115 2220 c3 -5 8 -10 11 -10 2 0 4 5 4 10 0 6 -5 10 -11 10 -5 0
-7 -4 -4 -10z"/>
<path d="M4020 2185 c0 -8 7 -15 15 -15 8 0 15 7 15 15 0 8 -7 15 -15 15 -8 0
-15 -7 -15 -15z"/>
<path d="M4315 2160 c3 -5 10 -10 16 -10 5 0 9 5 9 10 0 6 -7 10 -16 10 -8 0
-12 -4 -9 -10z"/>
<path d="M4398 2013 c6 -2 18 -2 25 0 6 3 1 5 -13 5 -14 0 -19 -2 -12 -5z"/>
<path d="M5831 2234 c0 -11 3 -14 6 -6 3 7 2 16 -1 19 -3 4 -6 -2 -5 -13z"/>
<path d="M5122 2181 c2 -7 7 -12 11 -12 12 1 9 15 -3 20 -7 2 -11 -2 -8 -8z"/>
<path d="M5825 2110 c3 -5 8 -10 11 -10 2 0 4 5 4 10 0 6 -5 10 -11 10 -5 0
-7 -4 -4 -10z"/>
<path d="M5860 2071 c0 -5 7 -11 15 -15 8 -3 15 -1 15 3 0 5 -7 11 -15 15 -8
3 -15 1 -15 -3z"/>
<path d="M5875 2000 c-3 -5 3 -10 14 -10 11 0 23 5 26 10 3 6 -3 10 -14 10
-11 0 -23 -4 -26 -10z"/>
<path d="M5031 1954 c0 -11 3 -14 6 -6 3 7 2 16 -1 19 -3 4 -6 -2 -5 -13z"/>
<path d="M5267 1674 c-10 -11 3 -24 24 -24 10 0 19 7 19 15 0 15 -31 21 -43 9z"/>
<path d="M5015 1661 c-3 -5 -1 -12 5 -16 5 -3 10 -2 10 4 0 5 8 12 18 14 13 4
12 5 -5 6 -12 0 -24 -3 -28 -8z"/>
<path d="M5090 1660 c10 -6 11 -10 3 -10 -7 0 -13 -7 -13 -15 0 -9 9 -15 23
-15 16 0 18 3 8 9 -9 6 -10 11 -2 15 15 10 4 26 -17 26 -15 0 -15 -2 -2 -10z"/>
<path d="M5130 1652 c0 -12 4 -22 9 -22 10 0 9 26 -2 36 -4 4 -7 -2 -7 -14z"/>
<path d="M5225 1646 c0 -13 3 -22 8 -19 4 2 7 13 7 24 0 10 -3 19 -7 19 -5 0
-8 -11 -8 -24z"/>
<path d="M5270 1630 c-12 -8 -11 -10 8 -10 12 0 22 5 22 10 0 13 -11 13 -30 0z"/>
<path d="M4060 3246 c0 -9 30 -14 35 -6 4 6 -3 10 -14 10 -12 0 -21 -2 -21 -4z"/>
<path d="M4380 3220 c0 -25 4 -30 25 -30 21 0 25 5 25 30 0 25 -4 30 -25 30
-21 0 -25 -5 -25 -30z"/>
<path d="M4725 3240 c-3 -5 -1 -10 4 -10 6 0 11 5 11 10 0 6 -2 10 -4 10 -3 0
-8 -4 -11 -10z"/>
<path d="M5093 3243 c-7 -2 -13 -9 -13 -14 0 -6 8 -6 19 1 29 15 32 13 25 -15
-5 -19 -2 -25 10 -25 11 0 15 9 13 30 -2 30 -20 37 -54 23z"/>
<path d="M5445 3240 c4 -6 11 -8 16 -5 14 9 11 15 -7 15 -8 0 -12 -5 -9 -10z"/>
<path d="M5506 3233 c-6 -14 -5 -15 5 -6 7 7 10 15 7 18 -3 3 -9 -2 -12 -12z"/>
<path d="M5577 3233 c3 -7 9 -10 14 -7 14 8 11 21 -5 21 -8 0 -12 -6 -9 -14z"/>
<path d="M5882 3223 c4 -38 25 -41 24 -3 -1 17 -6 30 -14 30 -9 0 -12 -10 -10
-27z"/>
<path d="M5025 3230 c-7 -11 18 -24 35 -18 6 2 1 9 -9 15 -13 8 -22 9 -26 3z"/>
<path d="M5475 3210 c-8 -13 8 -18 29 -10 19 6 19 7 -2 12 -12 4 -24 2 -27 -2z"/>
<path d="M4460 3200 c0 -5 5 -10 11 -10 5 0 7 5 4 10 -3 6 -8 10 -11 10 -2 0
-4 -4 -4 -10z"/>
<path d="M4380 3168 c0 -4 9 -8 20 -8 11 0 20 4 20 8 0 4 -9 8 -20 8 -11 0
-20 -4 -20 -8z"/>
<path d="M4775 3170 c-18 -8 -17 -9 8 -9 16 -1 26 3 22 9 -3 6 -7 10 -8 9 -1
0 -11 -4 -22 -9z"/>
<path d="M5155 3170 c-18 -8 -17 -9 8 -9 16 -1 26 3 22 9 -3 6 -7 10 -8 9 -1
0 -11 -4 -22 -9z"/>
<path d="M5894 3165 c11 -8 29 -15 40 -15 19 1 19 2 -4 15 -35 20 -62 19 -36
0z"/>
<path d="M4728 3133 c7 -3 16 -2 19 1 4 3 -2 6 -13 5 -11 0 -14 -3 -6 -6z"/>
<path d="M6280 2800 c0 -15 26 -23 46 -16 20 8 17 11 -18 20 -17 4 -28 2 -28
-4z"/>
<path d="M6392 2777 c-1 -9 -13 -35 -27 -57 -22 -35 -23 -40 -8 -40 35 0 44
15 40 66 -2 27 -4 41 -5 31z"/>
<path d="M6270 2750 c0 -6 11 -15 24 -22 20 -8 28 -7 40 5 24 23 20 27 -24 27
-22 0 -40 -5 -40 -10z"/>
<path d="M6150 2668 c0 -17 2 -18 15 -8 8 7 15 14 15 15 0 2 -7 5 -15 9 -10 4
-15 -1 -15 -16z"/>
<path d="M6222 2645 c0 -16 2 -22 5 -12 2 9 2 23 0 30 -3 6 -5 -1 -5 -18z"/>
<path d="M6305 2660 c3 -5 8 -10 11 -10 2 0 4 5 4 10 0 6 -5 10 -11 10 -5 0
-7 -4 -4 -10z"/>
<path d="M6380 2630 c0 -5 5 -10 11 -10 5 0 7 5 4 10 -3 6 -8 10 -11 10 -2 0
-4 -4 -4 -10z"/>
<path d="M6206 2572 c-5 -8 18 -23 59 -40 6 -3 -2 7 -17 22 -30 28 -34 30 -42
18z"/>
<path d="M6340 2336 c0 -9 14 -35 30 -58 l30 -41 0 42 c0 23 -4 40 -9 37 -5
-3 -8 2 -7 12 0 11 -7 18 -21 20 -16 2 -23 -2 -23 -12z"/>
<path d="M1756 2261 c-25 -27 -46 -105 -46 -167 0 -82 22 -123 106 -199 68
-61 74 -70 74 -105 0 -21 -9 -59 -20 -85 -26 -60 -26 -116 -1 -139 31 -28 82
-31 114 -6 34 27 36 76 7 150 -35 89 -30 104 59 189 44 42 84 86 90 98 14 27
14 156 1 204 -12 42 -53 84 -74 76 -12 -5 -13 -13 -4 -43 17 -64 15 -151 -4
-171 -44 -44 -96 39 -83 131 9 57 -6 86 -45 86 -16 0 -32 -5 -36 -11 -4 -7 -7
-50 -8 -96 -1 -76 -3 -87 -25 -104 -29 -23 -35 -24 -56 -2 -14 14 -16 30 -12
92 3 42 9 86 12 99 6 18 3 22 -12 22 -11 0 -28 -9 -37 -19z"/>
<path d="M6286 2262 c-12 -12 -5 -22 14 -19 28 5 34 14 11 20 -11 2 -22 2 -25
-1z"/>
<path d="M6340 2251 c0 -5 6 -11 12 -13 10 -4 10 -10 1 -30 -9 -21 -9 -27 2
-31 14 -6 23 23 17 61 -3 21 -32 33 -32 13z"/>
<path d="M6310 2205 c0 -8 7 -15 15 -15 8 0 15 7 15 15 0 8 -7 15 -15 15 -8 0
-15 -7 -15 -15z"/>
<path d="M6200 2184 c0 -14 3 -14 15 -4 8 7 15 14 15 16 0 2 -7 4 -15 4 -8 0
-15 -7 -15 -16z"/>
<path d="M6274 2184 c3 -9 6 -18 6 -20 0 -2 9 -4 19 -4 12 0 21 -8 24 -22 4
-21 4 -21 6 3 1 26 -25 59 -48 59 -8 0 -11 -6 -7 -16z"/>
<path d="M6163 2133 c-9 -3 -10 -10 -3 -22 5 -10 7 -21 4 -24 -3 -3 -1 -8 5
-12 7 -3 11 2 11 14 0 10 3 26 6 35 6 16 0 19 -23 9z"/>
<path d="M6320 2063 c-1 -5 -7 -34 -14 -65 l-14 -58 29 0 c30 0 41 23 15 33
-10 4 -12 18 -9 51 3 25 3 46 -1 46 -3 0 -6 -3 -6 -7z"/>
<path d="M6388 2040 c-7 -24 -3 -38 8 -28 3 4 4 17 2 30 l-3 23 -7 -25z"/>
<path d="M6370 1975 c-15 -18 -9 -38 13 -41 12 -1 17 5 17 21 0 30 -14 39 -30
20z"/>
<path d="M3996 1391 c-4 -5 3 -7 14 -4 23 6 26 13 6 13 -8 0 -17 -4 -20 -9z"/>
<path d="M4377 1380 c19 -22 28 -27 17 -9 -3 6 0 15 7 20 10 6 6 9 -13 9 -27
0 -27 -1 -11 -20z"/>
<path d="M4778 1393 c12 -2 32 -2 45 0 12 2 2 4 -23 4 -25 0 -35 -2 -22 -4z"/>
<path d="M4908 1393 c12 -2 30 -2 40 0 9 3 -1 5 -23 4 -22 0 -30 -2 -17 -4z"/>
<path d="M5213 1340 c0 -36 2 -50 4 -32 2 17 2 47 0 65 -2 17 -4 3 -4 -33z"/>
<path d="M5438 1393 c13 -3 22 -12 22 -23 0 -11 -9 -20 -22 -23 -20 -4 -19 -4
5 -6 24 -1 27 3 27 29 0 26 -3 30 -27 29 -24 -2 -25 -2 -5 -6z"/>
<path d="M5550 1380 c0 -17 6 -20 43 -18 l42 1 -37 4 c-47 5 -50 20 -5 26 31
4 31 4 -5 5 -32 2 -38 -1 -38 -18z"/>
<path d="M3868 1383 c6 -2 18 -2 25 0 6 3 1 5 -13 5 -14 0 -19 -2 -12 -5z"/>
<path d="M4138 1383 c12 -2 32 -2 45 0 12 2 2 4 -23 4 -25 0 -35 -2 -22 -4z"/>
<path d="M4268 1383 c12 -2 30 -2 40 0 9 3 -1 5 -23 4 -22 0 -30 -2 -17 -4z"/>
<path d="M4500 1360 c0 -29 2 -30 43 -28 l42 1 -37 4 c-47 5 -50 20 -5 26 l32
4 -35 3 -35 3 40 7 40 7 -42 2 c-41 1 -43 0 -43 -29z"/>
<path d="M5013 1383 c9 -2 23 -2 30 0 6 3 -1 5 -18 5 -16 0 -22 -2 -12 -5z"/>
<path d="M5137 1383 c-3 -5 5 -8 18 -8 13 0 21 3 18 8 -2 4 -10 7 -18 7 -8 0
-16 -3 -18 -7z"/>
<path d="M5263 1383 c9 -2 25 -2 35 0 9 3 1 5 -18 5 -19 0 -27 -2 -17 -5z"/>
<path d="M5683 1383 c9 -2 23 -2 30 0 6 3 -1 5 -18 5 -16 0 -22 -2 -12 -5z"/>
<path d="M601 1333 c2 -45 2 -46 8 -13 l6 35 14 -33 c10 -24 16 -30 22 -20 5
7 9 18 9 23 0 6 -4 4 -9 -4 -6 -10 -12 -4 -22 23 -18 50 -29 45 -28 -11z"/>
<path d="M666 1364 c-8 -22 -8 -26 3 -19 5 3 12 -9 14 -27 3 -26 4 -22 5 15 2
46 -10 63 -22 31z"/>
<path d="M778 1367 c-7 -21 6 -70 20 -73 7 -1 8 0 2 3 -12 6 -13 50 -1 55 5 2
3 8 -4 15 -10 9 -14 9 -17 0z"/>
<path d="M4778 1373 c12 -2 30 -2 40 0 9 3 -1 5 -23 4 -22 0 -30 -2 -17 -4z"/>
<path d="M4908 1373 c12 -2 30 -2 40 0 9 3 -1 5 -23 4 -22 0 -30 -2 -17 -4z"/>
<path d="M430 1359 c0 -3 7 -12 15 -19 12 -10 18 -10 30 0 23 19 18 26 -15 26
-16 0 -30 -3 -30 -7z"/>
<path d="M4268 1363 c12 -2 30 -2 40 0 9 3 -1 5 -23 4 -22 0 -30 -2 -17 -4z"/>
<path d="M5031 1354 c0 -11 3 -14 6 -6 3 7 2 16 -1 19 -3 4 -6 -2 -5 -13z"/>
<path d="M734 1347 c18 -13 18 -14 -3 -20 -31 -8 -28 -37 4 -35 22 2 26 7 23
33 -2 21 -9 31 -23 33 -19 4 -20 3 -1 -11z m11 -37 c-3 -5 -10 -10 -16 -10 -5
0 -9 5 -9 10 0 6 7 10 16 10 8 0 12 -4 9 -10z"/>
<path d="M821 1308 c1 -29 4 -43 6 -32 3 16 10 20 23 17 14 -4 21 2 25 20 7
27 0 47 -16 47 -5 0 -4 -9 3 -20 9 -15 10 -22 1 -31 -16 -16 -36 -1 -30 22 3
10 1 22 -4 25 -5 3 -8 -18 -8 -48z"/>
<path d="M904 1348 c-4 -6 0 -16 9 -23 22 -16 21 -22 0 -28 -16 -4 -16 -5 -1
-6 26 -2 33 20 12 36 -16 12 -17 15 -4 23 9 6 10 10 3 10 -6 0 -15 -5 -19 -12z"/>
<path d="M3998 1348 c5 -5 16 -8 23 -6 8 3 3 7 -10 11 -17 4 -21 3 -13 -5z"/>
<path d="M4908 1353 c12 -2 30 -2 40 0 9 3 -1 5 -23 4 -22 0 -30 -2 -17 -4z"/>
<path d="M5280 1353 c0 -6 8 -17 18 -24 16 -13 16 -13 2 6 -8 11 -16 22 -17
24 -2 2 -3 0 -3 -6z"/>
<path d="M3928 1343 c7 -3 16 -2 19 1 4 3 -2 6 -13 5 -11 0 -14 -3 -6 -6z"/>
<path d="M4768 1343 c18 -2 45 -2 60 0 15 2 0 4 -33 4 -33 0 -45 -2 -27 -4z"/>
<path d="M5558 1343 c18 -2 45 -2 60 0 15 2 0 4 -33 4 -33 0 -45 -2 -27 -4z"/>
<path d="M4133 1333 c15 -2 37 -2 50 0 12 2 0 4 -28 4 -27 0 -38 -2 -22 -4z"/>
<path d="M4263 1333 c26 -7 20 -21 -10 -26 -16 -2 -1 -4 32 -4 33 0 48 2 33 4
-34 5 -37 20 -5 26 12 2 2 4 -23 4 -25 1 -37 -1 -27 -4z"/>
<path d="M4898 1333 c18 -2 45 -2 60 0 15 2 0 4 -33 4 -33 0 -45 -2 -27 -4z"/>
<path d="M4398 1323 c12 -2 30 -2 40 0 9 3 -1 5 -23 4 -22 0 -30 -2 -17 -4z"/>
<path d="M4778 1323 c12 -2 30 -2 40 0 9 3 -1 5 -23 4 -22 0 -30 -2 -17 -4z"/>
<path d="M5137 1318 c2 -5 10 -8 18 -8 8 0 16 3 18 8 3 4 -5 7 -18 7 -13 0
-21 -3 -18 -7z"/>
<path d="M5568 1323 c12 -2 30 -2 40 0 9 3 -1 5 -23 4 -22 0 -30 -2 -17 -4z"/>
<path d="M5003 1313 c9 -2 25 -2 35 0 9 3 1 5 -18 5 -19 0 -27 -2 -17 -5z"/>
<path d="M450 1295 c0 -8 5 -15 10 -15 6 0 10 7 10 15 0 8 -4 15 -10 15 -5 0
-10 -7 -10 -15z"/>
<path d="M4128 1303 c18 -2 45 -2 60 0 15 2 0 4 -33 4 -33 0 -45 -2 -27 -4z"/>
<path d="M4508 1303 c18 -2 45 -2 60 0 15 2 0 4 -33 4 -33 0 -45 -2 -27 -4z"/>
<path d="M4760 1295 c0 -11 11 -15 43 -14 l42 2 -40 7 -40 6 35 6 35 5 -37 1
c-28 2 -38 -2 -38 -13z"/>
<path d="M5550 1295 c0 -11 11 -15 43 -14 l42 2 -40 7 -40 6 35 6 35 5 -37 1
c-28 2 -38 -2 -38 -13z"/>
<path d="M4018 1283 c12 -2 32 -2 45 0 12 2 2 4 -23 4 -25 0 -35 -2 -22 -4z"/>
<path d="M4908 1283 c12 -2 30 -2 40 0 9 3 -1 5 -23 4 -22 0 -30 -2 -17 -4z"/>
<path d="M5448 1283 c12 -2 30 -2 40 0 9 3 -1 5 -23 4 -22 0 -30 -2 -17 -4z"/>
<path d="M768 1113 c6 -2 18 -2 25 0 6 3 1 5 -13 5 -14 0 -19 -2 -12 -5z"/>
<path d="M878 1113 c6 -2 18 -2 25 0 6 3 1 5 -13 5 -14 0 -19 -2 -12 -5z"/>
<path d="M1023 1113 c10 -3 14 -10 11 -16 -4 -7 -4 -9 1 -5 4 4 17 3 29 -3 20
-9 20 -9 3 5 -18 14 -18 14 0 19 10 3 0 5 -22 5 -22 0 -32 -2 -22 -5z"/>
<path d="M1258 1113 c6 -2 18 -2 25 0 6 3 1 5 -13 5 -14 0 -19 -2 -12 -5z"/>
<path d="M1373 1113 c9 -2 23 -2 30 0 6 3 -1 5 -18 5 -16 0 -22 -2 -12 -5z"/>
<path d="M2138 1113 c6 -2 18 -2 25 0 6 3 1 5 -13 5 -14 0 -19 -2 -12 -5z"/>
<path d="M2258 1113 c12 -2 30 -2 40 0 9 3 -1 5 -23 4 -22 0 -30 -2 -17 -4z"/>
<path d="M2467 1113 c12 -2 27 -11 33 -19 7 -8 18 -14 24 -14 6 0 2 6 -9 12
-19 11 -19 11 0 19 14 5 6 7 -25 7 -25 0 -35 -3 -23 -5z"/>
<path d="M3693 1113 c9 -2 25 -2 35 0 9 3 1 5 -18 5 -19 0 -27 -2 -17 -5z"/>
<path d="M3803 1113 c9 -2 23 -2 30 0 6 3 -1 5 -18 5 -16 0 -22 -2 -12 -5z"/>
<path d="M3938 1113 c12 -2 30 -2 40 0 9 3 -1 5 -23 4 -22 0 -30 -2 -17 -4z"/>
<path d="M4043 1113 c9 -2 25 -2 35 0 9 3 1 5 -18 5 -19 0 -27 -2 -17 -5z"/>
<path d="M4138 1113 c6 -2 18 -2 25 0 6 3 1 5 -13 5 -14 0 -19 -2 -12 -5z"/>
<path d="M4263 1113 c9 -2 25 -2 35 0 9 3 1 5 -18 5 -19 0 -27 -2 -17 -5z"/>
<path d="M5258 1113 c7 -3 16 -2 19 1 4 3 -2 6 -13 5 -11 0 -14 -3 -6 -6z"/>
<path d="M5366 1111 c-3 -4 6 -6 19 -3 14 2 25 6 25 8 0 8 -39 4 -44 -5z"/>
<path d="M5483 1113 c9 -2 25 -2 35 0 9 3 1 5 -18 5 -19 0 -27 -2 -17 -5z"/>
<path d="M5613 1113 c9 -2 23 -2 30 0 6 3 -1 5 -18 5 -16 0 -22 -2 -12 -5z"/>
<path d="M5863 1113 c9 -2 23 -2 30 0 6 3 -1 5 -18 5 -16 0 -22 -2 -12 -5z"/>
<path d="M6063 1109 c11 -7 23 -7 35 0 14 9 11 10 -18 10 -29 0 -32 -1 -17
-10z"/>
<path d="M6313 1113 c9 -2 23 -2 30 0 6 3 -1 5 -18 5 -16 0 -22 -2 -12 -5z"/>
<path d="M1513 1103 c10 -3 14 -10 11 -16 -4 -7 -4 -9 1 -5 4 4 17 3 29 -3 20
-9 20 -9 3 5 -18 14 -18 14 0 19 10 3 0 5 -22 5 -22 0 -32 -2 -22 -5z"/>
<path d="M1613 1103 c9 -2 23 -2 30 0 6 3 -1 5 -18 5 -16 0 -22 -2 -12 -5z"/>
<path d="M2353 1103 c9 -2 25 -2 35 0 9 3 1 5 -18 5 -19 0 -27 -2 -17 -5z"/>
<path d="M5963 1103 c9 -2 23 -2 30 0 6 3 -1 5 -18 5 -16 0 -22 -2 -12 -5z"/>
<path d="M1119 1083 c-12 -16 -12 -17 2 -6 9 7 20 9 24 5 5 -4 5 -1 1 6 -9 16
-11 15 -27 -5z"/>
<path d="M1369 1083 c-12 -16 -12 -17 2 -6 12 10 18 10 29 0 12 -10 12 -9 1 6
-7 9 -15 17 -16 17 -1 0 -9 -8 -16 -17z"/>
<path d="M2460 1090 c-9 -6 -10 -10 -3 -10 6 0 15 5 18 10 8 12 4 12 -15 0z"/>
<path d="M3693 1093 c9 -2 25 -2 35 0 9 3 1 5 -18 5 -19 0 -27 -2 -17 -5z"/>
<path d="M3803 1093 c9 -2 23 -2 30 0 6 3 -1 5 -18 5 -16 0 -22 -2 -12 -5z"/>
<path d="M4043 1093 c9 -2 25 -2 35 0 9 3 1 5 -18 5 -19 0 -27 -2 -17 -5z"/>
<path d="M4136 1092 c-3 -5 1 -9 9 -9 8 0 12 4 9 9 -3 4 -7 8 -9 8 -2 0 -6 -4
-9 -8z"/>
<path d="M4263 1093 c9 -2 25 -2 35 0 9 3 1 5 -18 5 -19 0 -27 -2 -17 -5z"/>
<path d="M5258 1093 c7 -3 16 -2 19 1 4 3 -2 6 -13 5 -11 0 -14 -3 -6 -6z"/>
<path d="M5483 1093 c9 -2 25 -2 35 0 9 3 1 5 -18 5 -19 0 -27 -2 -17 -5z"/>
<path d="M5870 1096 c0 -2 8 -10 18 -17 15 -13 16 -12 3 4 -13 16 -21 21 -21
13z"/>
<path d="M6060 1088 c0 -5 9 -8 19 -8 11 0 22 3 24 8 3 4 -6 7 -19 7 -13 0
-24 -3 -24 -7z"/>
<path d="M6238 1093 c7 -3 16 -2 19 1 4 3 -2 6 -13 5 -11 0 -14 -3 -6 -6z"/>
<path d="M6307 1081 c-11 -14 -10 -14 5 -3 9 8 21 12 25 9 4 -2 17 -1 28 3 16
6 13 8 -13 7 -17 0 -38 -7 -45 -16z"/>
<path d="M558 1083 c7 -3 16 -2 19 1 4 3 -2 6 -13 5 -11 0 -14 -3 -6 -6z"/>
<path d="M610 1086 c0 -2 7 -7 16 -10 8 -3 12 -2 9 4 -6 10 -25 14 -25 6z"/>
<path d="M656 1081 c-3 -5 2 -15 12 -22 15 -13 16 -12 4 3 -10 13 -10 17 0 21
9 4 9 6 1 6 -6 1 -14 -3 -17 -8z"/>
<path d="M768 1083 c7 -3 16 -2 19 1 4 3 -2 6 -13 5 -11 0 -14 -3 -6 -6z"/>
<path d="M1609 1073 c-13 -16 -12 -17 4 -4 16 13 21 21 13 21 -2 0 -10 -8 -17
-17z"/>
<path d="M1645 1081 c-3 -5 0 -13 6 -17 7 -4 9 -3 5 4 -3 6 2 13 11 15 16 4
16 5 1 6 -9 0 -19 -3 -23 -8z"/>
<path d="M1752 1078 c-7 -7 -12 -17 -12 -22 0 -6 5 -3 11 7 9 15 13 16 27 5
15 -12 16 -11 3 5 -16 20 -14 20 -29 5z"/>
<path d="M1798 1083 c7 -3 16 -2 19 1 4 3 -2 6 -13 5 -11 0 -14 -3 -6 -6z"/>
<path d="M1863 1083 c9 -2 23 -2 30 0 6 3 -1 5 -18 5 -16 0 -22 -2 -12 -5z"/>
<path d="M2358 1083 c7 -3 16 -2 19 1 4 3 -2 6 -13 5 -11 0 -14 -3 -6 -6z"/>
<path d="M4430 1086 c0 -2 9 -6 20 -9 11 -3 18 -1 14 4 -5 9 -34 13 -34 5z"/>
<path d="M4548 1083 c7 -3 16 -2 19 1 4 3 -2 6 -13 5 -11 0 -14 -3 -6 -6z"/>
<path d="M4656 1082 c-2 -4 4 -8 14 -8 10 0 16 4 14 8 -3 4 -9 8 -14 8 -5 0
-11 -4 -14 -8z"/>
<path d="M5368 1078 c6 -6 18 -8 28 -6 14 3 12 5 -9 10 -19 3 -25 2 -19 -4z"/>
<path d="M5968 1083 c7 -3 16 -2 19 1 4 3 -2 6 -13 5 -11 0 -14 -3 -6 -6z"/>
<path d="M1258 1073 c6 -2 18 -2 25 0 6 3 1 5 -13 5 -14 0 -19 -2 -12 -5z"/>
<path d="M2188 1073 c7 -3 16 -2 19 1 4 3 -2 6 -13 5 -11 0 -14 -3 -6 -6z"/>
<path d="M2253 1073 c15 -2 37 -2 50 0 12 2 0 4 -28 4 -27 0 -38 -2 -22 -4z"/>
<path d="M3683 1073 c15 -2 37 -2 50 0 12 2 0 4 -28 4 -27 0 -38 -2 -22 -4z"/>
<path d="M3803 1073 c9 -2 25 -2 35 0 9 3 1 5 -18 5 -19 0 -27 -2 -17 -5z"/>
<path d="M3938 1073 c12 -2 30 -2 40 0 9 3 -1 5 -23 4 -22 0 -30 -2 -17 -4z"/>
<path d="M4043 1073 c9 -2 25 -2 35 0 9 3 1 5 -18 5 -19 0 -27 -2 -17 -5z"/>
<path d="M4263 1073 c9 -2 25 -2 35 0 9 3 1 5 -18 5 -19 0 -27 -2 -17 -5z"/>
<path d="M5258 1073 c6 -2 18 -2 25 0 6 3 1 5 -13 5 -14 0 -19 -2 -12 -5z"/>
<path d="M5488 1073 c12 -2 30 -2 40 0 9 3 -1 5 -23 4 -22 0 -30 -2 -17 -4z"/>
<path d="M6222 1064 c-14 -15 -7 -17 22 -5 15 6 16 9 5 13 -8 3 -20 -1 -27 -8z"/>
<path d="M506 1061 c-4 -5 3 -7 14 -4 23 6 26 13 6 13 -8 0 -17 -4 -20 -9z"/>
<path d="M1023 1063 c15 -2 37 -2 50 0 12 2 0 4 -28 4 -27 0 -38 -2 -22 -4z"/>
<path d="M2463 1063 c15 -2 39 -2 55 0 15 2 2 4 -28 4 -30 0 -43 -2 -27 -4z"/>
<path d="M4718 1063 c6 -2 18 -2 25 0 6 3 1 5 -13 5 -14 0 -19 -2 -12 -5z"/>
<path d="M4958 1063 c6 -2 18 -2 25 0 6 3 1 5 -13 5 -14 0 -19 -2 -12 -5z"/>
<path d="M5968 1063 c7 -3 16 -2 19 1 4 3 -2 6 -13 5 -11 0 -14 -3 -6 -6z"/>
<path d="M6083 1063 c9 -2 25 -2 35 0 9 3 1 5 -18 5 -19 0 -27 -2 -17 -5z"/>
<path d="M768 1053 c6 -2 18 -2 25 0 6 3 1 5 -13 5 -14 0 -19 -2 -12 -5z"/>
<path d="M878 1053 c6 -2 18 -2 25 0 6 3 1 5 -13 5 -14 0 -19 -2 -12 -5z"/>
<path d="M1143 1053 c9 -2 25 -2 35 0 9 3 1 5 -18 5 -19 0 -27 -2 -17 -5z"/>
<path d="M1513 1053 c15 -2 37 -2 50 0 12 2 0 4 -28 4 -27 0 -38 -2 -22 -4z"/>
<path d="M1863 1053 c9 -2 23 -2 30 0 6 3 -1 5 -18 5 -16 0 -22 -2 -12 -5z"/>
<path d="M2358 1053 c7 -3 16 -2 19 1 4 3 -2 6 -13 5 -11 0 -14 -3 -6 -6z"/>
<path d="M3693 1053 c9 -2 25 -2 35 0 9 3 1 5 -18 5 -19 0 -27 -2 -17 -5z"/>
<path d="M3793 1053 c15 -2 37 -2 50 0 12 2 0 4 -28 4 -27 0 -38 -2 -22 -4z"/>
<path d="M4158 1053 c12 -2 30 -2 40 0 9 3 -1 5 -23 4 -22 0 -30 -2 -17 -4z"/>
<path d="M5273 1053 c9 -2 25 -2 35 0 9 3 1 5 -18 5 -19 0 -27 -2 -17 -5z"/>
<path d="M5613 1053 c9 -2 23 -2 30 0 6 3 -1 5 -18 5 -16 0 -22 -2 -12 -5z"/>
<path d="M6338 1053 c6 -2 18 -2 25 0 6 3 1 5 -13 5 -14 0 -19 -2 -12 -5z"/>
<path d="M520 1040 c-9 -6 -10 -10 -3 -10 6 0 15 5 18 10 8 12 4 12 -15 0z"/>
<path d="M597 1038 c2 -5 10 -8 18 -8 8 0 16 3 18 8 3 4 -5 7 -18 7 -13 0 -21
-3 -18 -7z"/>
<path d="M1033 1043 c9 -2 23 -2 30 0 6 3 -1 5 -18 5 -16 0 -22 -2 -12 -5z"/>
<path d="M1383 1043 c9 -2 25 -2 35 0 9 3 1 5 -18 5 -19 0 -27 -2 -17 -5z"/>
<path d="M1973 1043 c15 -2 37 -2 50 0 12 2 0 4 -28 4 -27 0 -38 -2 -22 -4z"/>
<path d="M2478 1043 c6 -2 18 -2 25 0 6 3 1 5 -13 5 -14 0 -19 -2 -12 -5z"/>
<path d="M3933 1043 c15 -2 37 -2 50 0 12 2 0 4 -28 4 -27 0 -38 -2 -22 -4z"/>
<path d="M4033 1043 c15 -2 39 -2 55 0 15 2 2 4 -28 4 -30 0 -43 -2 -27 -4z"/>
<path d="M4253 1043 c15 -2 37 -2 50 0 12 2 0 4 -28 4 -27 0 -38 -2 -22 -4z"/>
<path d="M4445 1040 c-16 -7 -17 -9 -3 -9 9 -1 20 4 23 9 7 11 7 11 -20 0z"/>
<path d="M4505 1040 c-16 -7 -17 -9 -3 -9 9 -1 20 4 23 9 7 11 7 11 -20 0z"/>
<path d="M4670 1040 c-9 -6 -10 -10 -3 -10 6 0 15 5 18 10 8 12 4 12 -15 0z"/>
<path d="M4718 1038 c5 -5 16 -8 23 -6 8 3 3 7 -10 11 -17 4 -21 3 -13 -5z"/>
<path d="M4958 1038 c5 -5 16 -8 23 -6 8 3 3 7 -10 11 -17 4 -21 3 -13 -5z"/>
<path d="M5153 1043 c15 -2 37 -2 50 0 12 2 0 4 -28 4 -27 0 -38 -2 -22 -4z"/>
<path d="M5373 1043 c15 -2 37 -2 50 0 12 2 0 4 -28 4 -27 0 -38 -2 -22 -4z"/>
<path d="M5483 1043 c15 -2 37 -2 50 0 12 2 0 4 -28 4 -27 0 -38 -2 -22 -4z"/>
<path d="M5983 1043 c9 -2 23 -2 30 0 6 3 -1 5 -18 5 -16 0 -22 -2 -12 -5z"/>
<path d="M6083 1043 c9 -2 25 -2 35 0 9 3 1 5 -18 5 -19 0 -27 -2 -17 -5z"/>
<path d="M658 1033 c7 -3 16 -2 19 1 4 3 -2 6 -13 5 -11 0 -14 -3 -6 -6z"/>
<path d="M1260 1030 c-9 -6 -10 -10 -3 -10 6 0 15 5 18 10 8 12 4 12 -15 0z"/>
<path d="M3693 1033 c9 -2 25 -2 35 0 9 3 1 5 -18 5 -19 0 -27 -2 -17 -5z"/>
<path d="M1033 1023 c9 -2 23 -2 30 0 6 3 -1 5 -18 5 -16 0 -22 -2 -12 -5z"/>
<path d="M1143 1023 c9 -2 25 -2 35 0 9 3 1 5 -18 5 -19 0 -27 -2 -17 -5z"/>
<path d="M1383 1023 c9 -2 25 -2 35 0 9 3 1 5 -18 5 -19 0 -27 -2 -17 -5z"/>
<path d="M1633 1023 c9 -2 25 -2 35 0 9 3 1 5 -18 5 -19 0 -27 -2 -17 -5z"/>
<path d="M2373 1023 c9 -2 25 -2 35 0 9 3 1 5 -18 5 -19 0 -27 -2 -17 -5z"/>
<path d="M2478 1023 c6 -2 18 -2 25 0 6 3 1 5 -13 5 -14 0 -19 -2 -12 -5z"/>
<path d="M3803 1023 c9 -2 25 -2 35 0 9 3 1 5 -18 5 -19 0 -27 -2 -17 -5z"/>
<path d="M5873 1023 c9 -2 25 -2 35 0 9 3 1 5 -18 5 -19 0 -27 -2 -17 -5z"/>
<path d="M5983 1023 c9 -2 23 -2 30 0 6 3 -1 5 -18 5 -16 0 -22 -2 -12 -5z"/>
<path d="M6083 1023 c9 -2 25 -2 35 0 9 3 1 5 -18 5 -19 0 -27 -2 -17 -5z"/>
<path d="M6338 1023 c6 -2 18 -2 25 0 6 3 1 5 -13 5 -14 0 -19 -2 -12 -5z"/>
<path d="M3693 1013 c9 -2 25 -2 35 0 9 3 1 5 -18 5 -19 0 -27 -2 -17 -5z"/>
<path d="M460 876 c0 -2 9 -6 20 -9 11 -3 18 -1 14 4 -5 9 -34 13 -34 5z"/>
<path d="M884 869 c-3 -6 1 -17 10 -25 9 -8 11 -9 6 -2 -14 17 -12 26 8 31 15
4 15 5 0 6 -9 0 -20 -4 -24 -10z"/>
<path d="M1980 871 c0 -6 4 -13 10 -16 6 -3 7 1 4 9 -7 18 -14 21 -14 7z"/>
<path d="M2100 870 c0 -5 5 -10 11 -10 5 0 7 5 4 10 -3 6 -8 10 -11 10 -2 0
-4 -4 -4 -10z"/>
<path d="M2314 869 c-3 -6 -1 -16 5 -22 9 -9 11 -8 6 5 -4 11 0 18 12 21 15 4
16 5 1 6 -9 0 -20 -4 -24 -10z"/>
<path d="M2638 873 c7 -3 16 -2 19 1 4 3 -2 6 -13 5 -11 0 -14 -3 -6 -6z"/>
<path d="M3015 869 c-4 -6 -4 -13 -1 -16 3 -4 6 -1 6 6 0 9 9 12 25 9 13 -3
22 -1 19 3 -7 13 -42 11 -49 -2z"/>
<path d="M4138 873 c7 -3 16 -2 19 1 4 3 -2 6 -13 5 -11 0 -14 -3 -6 -6z"/>
<path d="M4198 873 c7 -3 16 -2 19 1 4 3 -2 6 -13 5 -11 0 -14 -3 -6 -6z"/>
<path d="M4248 873 c7 -3 16 -2 19 1 4 3 -2 6 -13 5 -11 0 -14 -3 -6 -6z"/>
<path d="M4654 869 c-3 -6 -1 -16 5 -22 9 -9 11 -8 6 5 -4 11 0 18 12 21 15 4
16 5 1 6 -9 0 -20 -4 -24 -10z"/>
<path d="M635 850 c-3 -6 1 -7 9 -4 18 7 21 14 7 14 -6 0 -13 -4 -16 -10z"/>
<path d="M678 853 c7 -3 16 -2 19 1 4 3 -2 6 -13 5 -11 0 -14 -3 -6 -6z"/>
<path d="M1110 856 c0 -2 9 -6 20 -9 11 -3 20 -1 20 4 0 5 -9 9 -20 9 -11 0
-20 -2 -20 -4z"/>
<path d="M1175 850 c-3 -6 1 -7 9 -4 18 7 21 14 7 14 -6 0 -13 -4 -16 -10z"/>
<path d="M1226 851 c-4 -5 3 -7 14 -4 23 6 26 13 6 13 -8 0 -17 -4 -20 -9z"/>
<path d="M1286 852 c-2 -4 4 -8 14 -8 10 0 16 4 14 8 -3 4 -9 8 -14 8 -5 0
-11 -4 -14 -8z"/>
<path d="M1386 852 c-2 -4 4 -8 14 -8 10 0 16 4 14 8 -3 4 -9 8 -14 8 -5 0
-11 -4 -14 -8z"/>
<path d="M1446 851 c-4 -5 3 -7 14 -4 23 6 26 13 6 13 -8 0 -17 -4 -20 -9z"/>
<path d="M1506 851 c-4 -5 3 -7 14 -4 23 6 26 13 6 13 -8 0 -17 -4 -20 -9z"/>
<path d="M1578 853 c7 -3 16 -2 19 1 4 3 -2 6 -13 5 -11 0 -14 -3 -6 -6z"/>
<path d="M1626 852 c-2 -4 4 -8 14 -8 10 0 16 4 14 8 -3 4 -9 8 -14 8 -5 0
-11 -4 -14 -8z"/>
<path d="M1678 853 c7 -3 16 -2 19 1 4 3 -2 6 -13 5 -11 0 -14 -3 -6 -6z"/>
<path d="M1716 851 c-3 -5 2 -15 12 -22 15 -13 16 -12 4 3 -10 13 -10 17 0 21
9 4 9 6 1 6 -6 1 -14 -3 -17 -8z"/>
<path d="M2396 853 c6 -4 14 -15 17 -23 5 -11 6 -9 4 4 -1 11 -9 21 -17 23
-10 3 -11 2 -4 -4z"/>
<path d="M2506 852 c-2 -4 4 -8 14 -8 10 0 16 4 14 8 -3 4 -9 8 -14 8 -5 0
-11 -4 -14 -8z"/>
<path d="M2565 850 c-3 -6 1 -7 9 -4 18 7 21 14 7 14 -6 0 -13 -4 -16 -10z"/>
<path d="M2690 856 c0 -2 9 -6 20 -9 11 -3 18 -1 14 4 -5 9 -34 13 -34 5z"/>
<path d="M2756 851 c-4 -5 3 -7 14 -4 23 6 26 13 6 13 -8 0 -17 -4 -20 -9z"/>
<path d="M2808 853 c7 -3 16 -2 19 1 4 3 -2 6 -13 5 -11 0 -14 -3 -6 -6z"/>
<path d="M3095 850 c-3 -6 1 -7 9 -4 18 7 21 14 7 14 -6 0 -13 -4 -16 -10z"/>
<path d="M3138 853 c7 -3 16 -2 19 1 4 3 -2 6 -13 5 -11 0 -14 -3 -6 -6z"/>
<path d="M3184 845 c-9 -23 3 -45 23 -44 17 1 17 2 1 6 -10 2 -18 13 -18 23 0
10 8 21 18 23 16 4 16 5 -1 6 -10 0 -20 -6 -23 -14z"/>
<path d="M3836 852 c-2 -4 4 -8 14 -8 10 0 16 4 14 8 -3 4 -9 8 -14 8 -5 0
-11 -4 -14 -8z"/>
<path d="M4608 853 c7 -3 16 -2 19 1 4 3 -2 6 -13 5 -11 0 -14 -3 -6 -6z"/>
<path d="M4715 850 c-3 -6 1 -7 9 -4 18 7 21 14 7 14 -6 0 -13 -4 -16 -10z"/>
<path d="M4765 850 c-3 -6 1 -7 9 -4 18 7 21 14 7 14 -6 0 -13 -4 -16 -10z"/>
<path d="M4836 852 c-2 -4 4 -8 14 -8 10 0 16 4 14 8 -3 4 -9 8 -14 8 -5 0
-11 -4 -14 -8z"/>
<path d="M4888 853 c7 -3 16 -2 19 1 4 3 -2 6 -13 5 -11 0 -14 -3 -6 -6z"/>
<path d="M475 840 c-16 -7 -17 -9 -3 -9 9 -1 20 4 23 9 7 11 7 11 -20 0z"/>
<path d="M2643 844 c21 -7 23 -31 2 -37 -11 -4 -10 -4 2 -3 25 2 23 40 -2 43
-16 1 -16 1 -2 -3z"/>
<path d="M3733 843 c9 -2 23 -2 30 0 6 3 -1 5 -18 5 -16 0 -22 -2 -12 -5z"/>
<path d="M4193 839 c9 -5 17 -14 17 -19 0 -5 -8 -11 -17 -13 -16 -4 -16 -5 -1
-6 9 0 20 4 23 9 8 13 -12 40 -29 40 -6 0 -3 -5 7 -11z"/>
<path d="M528 833 c6 -2 18 -2 25 0 6 3 1 5 -13 5 -14 0 -19 -2 -12 -5z"/>
<path d="M575 830 c-3 -5 -3 -14 0 -20 8 -13 35 -13 35 0 0 5 -7 7 -15 4 -8
-4 -15 -1 -15 4 0 6 8 13 18 15 15 4 15 5 0 6 -9 0 -20 -3 -23 -9z"/>
<path d="M1058 833 c6 -2 18 -2 25 0 6 3 1 5 -13 5 -14 0 -19 -2 -12 -5z"/>
<path d="M1104 820 c1 -16 46 -28 46 -12 0 6 -9 8 -19 5 -11 -3 -21 1 -24 9
-3 9 -4 8 -3 -2z"/>
<path d="M1562 823 c2 -10 12 -19 23 -20 16 -1 16 -1 3 3 -10 3 -18 9 -18 14
0 5 8 11 18 13 12 3 11 5 -6 6 -17 1 -23 -4 -20 -16z"/>
<path d="M2103 829 c-29 -11 -30 -19 -2 -12 12 4 25 0 30 -8 5 -8 9 -9 9 -4 0
23 -15 32 -37 24z"/>
<path d="M3268 833 c6 -2 18 -2 25 0 6 3 1 5 -13 5 -14 0 -19 -2 -12 -5z"/>
<path d="M4265 828 c6 -14 2 -18 -16 -19 -19 -1 -20 -2 -5 -6 25 -7 44 13 27
30 -10 10 -11 9 -6 -5z"/>
<path d="M4495 830 c-3 -5 -3 -14 0 -20 8 -13 35 -13 35 0 0 5 -7 7 -15 4 -8
-4 -15 -1 -15 4 0 6 8 13 18 15 15 4 15 5 0 6 -9 0 -20 -3 -23 -9z"/>
<path d="M1973 823 c9 -2 23 -2 30 0 6 3 -1 5 -18 5 -16 0 -22 -2 -12 -5z"/>
<path d="M2047 823 c-4 -3 -7 -11 -7 -17 0 -6 5 -5 12 2 6 6 9 14 7 17 -3 3
-9 2 -12 -2z"/>
<path d="M528 808 c5 -5 16 -8 23 -6 8 3 3 7 -10 11 -17 4 -21 3 -13 -5z"/>
<path d="M637 809 c7 -7 15 -10 18 -7 3 3 -2 9 -12 12 -14 6 -15 5 -6 -5z"/>
<path d="M980 808 c0 -9 -6 -19 -12 -21 -10 -4 -10 -6 0 -6 14 -1 28 26 18 36
-3 4 -6 -1 -6 -9z"/>
<path d="M1058 808 c5 -5 16 -8 23 -6 8 3 3 7 -10 11 -17 4 -21 3 -13 -5z"/>
<path d="M1177 809 c7 -7 15 -10 18 -7 3 3 -2 9 -12 12 -14 6 -15 5 -6 -5z"/>
<path d="M1227 809 c7 -7 15 -10 18 -7 3 3 -2 9 -12 12 -14 6 -15 5 -6 -5z"/>
<path d="M1395 810 c-16 -7 -17 -9 -3 -9 9 -1 20 4 23 9 7 11 7 11 -20 0z"/>
<path d="M1447 809 c7 -7 15 -10 18 -7 3 3 -2 9 -12 12 -14 6 -15 5 -6 -5z"/>
<path d="M2370 809 c0 -5 9 -9 20 -9 11 0 20 2 20 4 0 2 -9 6 -20 9 -11 3 -20
1 -20 -4z"/>
<path d="M2567 809 c7 -7 15 -10 18 -7 3 3 -2 9 -12 12 -14 6 -15 5 -6 -5z"/>
<path d="M2705 810 c-16 -7 -17 -9 -3 -9 9 -1 20 4 23 9 7 11 7 11 -20 0z"/>
<path d="M2757 809 c7 -7 15 -10 18 -7 3 3 -2 9 -12 12 -14 6 -15 5 -6 -5z"/>
<path d="M3017 808 c2 -5 13 -8 23 -8 10 0 21 3 23 8 3 4 -8 7 -23 7 -15 0
-26 -3 -23 -7z"/>
<path d="M3268 808 c5 -5 16 -8 23 -6 8 3 3 7 -10 11 -17 4 -21 3 -13 -5z"/>
<path d="M4118 808 c5 -5 16 -8 23 -6 8 3 3 7 -10 11 -17 4 -21 3 -13 -5z"/>
<path d="M4717 809 c7 -7 15 -10 18 -7 3 3 -2 9 -12 12 -14 6 -15 5 -6 -5z"/>
<path d="M4845 810 c-16 -7 -17 -9 -3 -9 9 -1 20 4 23 9 7 11 7 11 -20 0z"/>
<path d="M888 803 c7 -3 16 -2 19 1 4 3 -2 6 -13 5 -11 0 -14 -3 -6 -6z"/>
<path d="M1718 803 c7 -3 16 -2 19 1 4 3 -2 6 -13 5 -11 0 -14 -3 -6 -6z"/>
<path d="M2318 803 c6 -2 18 -2 25 0 6 3 1 5 -13 5 -14 0 -19 -2 -12 -5z"/>
<path d="M3138 803 c7 -3 16 -2 19 1 4 3 -2 6 -13 5 -11 0 -14 -3 -6 -6z"/>
<path d="M4608 803 c7 -3 16 -2 19 1 4 3 -2 6 -13 5 -11 0 -14 -3 -6 -6z"/>
<path d="M4658 803 c6 -2 18 -2 25 0 6 3 1 5 -13 5 -14 0 -19 -2 -12 -5z"/>
<path d="M2568 783 c7 -3 16 -2 19 1 4 3 -2 6 -13 5 -11 0 -14 -3 -6 -6z"/>
</g>
</svg>
